<svg width="62" height="56" viewBox="0 0 62 56" fill="none" xmlns="http://www.w3.org/2000/svg">
<path d="M61.7657 34.75C61.6798 35.6094 60.8907 36.0391 60.2189 36.4297C59.5939 36.7891 58.9689 37.1562 58.3517 37.5156C57.3517 38.0937 56.3595 38.6719 55.3595 39.25C54.1095 39.9766 52.8673 40.7031 51.6173 41.4219C50.2423 42.2187 48.8673 43.0234 47.4845 43.8203C46.1017 44.625 44.7189 45.4297 43.3282 46.2344C42.0548 46.9766 40.7892 47.7109 39.5157 48.4531C38.4767 49.0547 37.4454 49.6562 36.4064 50.2578C35.7267 50.6484 35.047 51.0469 34.3673 51.4375C33.8517 51.7344 33.3673 52.0312 32.7814 52.2031C31.2579 52.6406 29.5704 52.4922 28.1954 51.6953C27.7032 51.4062 27.2032 51.125 26.711 50.8359C25.8048 50.3125 24.9064 49.7969 24.0001 49.2734C22.8126 48.5859 21.6251 47.8984 20.4376 47.2187C19.086 46.4375 17.7267 45.6562 16.3751 44.875C14.9767 44.0703 13.5782 43.2578 12.1798 42.4531C10.8595 41.6875 9.53917 40.9297 8.21105 40.1641L4.83605 38.2187C4.03136 37.75 3.21886 37.2891 2.41417 36.8203C2.04698 36.6094 1.6798 36.3984 1.31261 36.1797C0.734484 35.8437 0.164171 35.3125 0.164171 34.5938C0.164171 35.25 0.164171 35.9062 0.156359 36.5703C0.156359 36.8047 0.140734 37.0469 0.156359 37.2891C0.203234 37.9219 0.703233 38.4141 1.22667 38.7266C1.54698 38.9219 1.87511 39.1016 2.20323 39.2891C3.04698 39.7734 3.89073 40.2656 4.73448 40.75C5.95323 41.4531 7.16417 42.1562 8.38292 42.8594C9.82823 43.6953 11.2814 44.5312 12.7267 45.3672C14.2345 46.2422 15.7423 47.1094 17.2579 47.9844C18.6954 48.8125 20.1251 49.6406 21.5626 50.4687C22.7579 51.1562 23.9454 51.8437 25.1407 52.5312C25.9454 53 26.7579 53.4609 27.5626 53.9297C28.0314 54.1953 28.4923 54.5 29.0001 54.6875C30.586 55.2656 32.4454 55.1406 33.9064 54.2891C34.461 53.9687 35.0157 53.6406 35.5704 53.3203C36.5939 52.7266 37.6173 52.1328 38.6329 51.5391C39.9689 50.7656 41.297 49.9922 42.6329 49.2109C44.1251 48.3437 45.6173 47.4766 47.1017 46.6094L51.5782 44.0078C52.9142 43.2266 54.2501 42.4531 55.5939 41.6719C56.6329 41.0703 57.672 40.4687 58.711 39.8594C59.2814 39.5234 59.8595 39.1953 60.4298 38.8594C60.6017 38.7578 60.7814 38.6562 60.9454 38.5391C61.3829 38.2109 61.7267 37.7578 61.7345 37.1875C61.7423 36.8984 61.7345 36.6172 61.7345 36.3281C61.7345 35.7578 61.7345 35.1797 61.7423 34.6094C61.7735 34.6719 61.7735 34.7109 61.7657 34.75C61.7657 34.7734 61.7657 34.7344 61.7657 34.75Z" fill="#8FC1EF"/>
<path d="M60.6563 33.0703C62.1406 33.9297 62.1485 35.3281 60.6719 36.1875L33.7656 51.8203C32.2891 52.6797 29.875 52.6797 28.3906 51.8203L1.3047 36.1875C-0.17967 35.3281 -0.187482 33.9297 1.28908 33.0703L28.1953 17.4297C29.6719 16.5703 32.086 16.5703 33.5703 17.4297L60.6563 33.0703Z" fill="#E4ECF9"/>
<path d="M31.7266 1.59373C32.4687 1.16405 33.0781 1.51561 33.0859 2.36717L33.1641 29.3828C33.1641 30.2344 32.5625 31.289 31.8203 31.7187L18.0312 39.6719C17.2891 40.1015 16.6797 39.75 16.6719 38.8984L16.5938 11.8828C16.5938 11.0312 17.1953 9.97655 17.9453 9.54686L31.7266 1.59373Z" fill="#267FD0"/>
<path d="M30.4922 5.21096C30.75 5.06252 30.9609 5.17971 30.9609 5.47658L31.0156 24.7422C31.0156 25.0391 30.8047 25.4063 30.5469 25.5547L19.2656 32.0703C19.0078 32.2188 18.7969 32.1016 18.7969 31.8047L18.7344 12.5391C18.7344 12.2422 18.9453 11.875 19.2031 11.7266L30.4922 5.21096Z" fill="#3B94E5"/>
<path d="M32.0391 1.46094C32.0625 1.45312 32.0781 1.44531 32.1016 1.44531C32.1172 1.4375 32.1406 1.4375 32.1562 1.42969C32.1797 1.42187 32.2031 1.42187 32.2266 1.42187C32.2422 1.42187 32.25 1.42187 32.2656 1.41406H32.3672C32.3984 1.41406 32.4375 1.42187 32.4688 1.42969C32.4766 1.42969 32.4844 1.42969 32.4922 1.4375C32.5156 1.44531 32.5391 1.45312 32.5703 1.46094C32.5781 1.46094 32.5859 1.46875 32.5938 1.46875C32.625 1.48437 32.6562 1.49219 32.6797 1.50781L31.5234 0.835937C31.5234 0.835937 31.5156 0.835937 31.5156 0.828124C31.4922 0.812499 31.4688 0.804687 31.4453 0.796875C31.4375 0.796875 31.4375 0.796874 31.4297 0.789062C31.4219 0.789062 31.4141 0.78125 31.4063 0.78125C31.3906 0.773438 31.3828 0.773437 31.3672 0.765624C31.3516 0.765624 31.3438 0.757812 31.3281 0.757812C31.3203 0.757812 31.3125 0.749999 31.3047 0.749999H31.2891C31.2656 0.742187 31.2344 0.742188 31.2031 0.742188H31.0859C31.0703 0.742188 31.0625 0.742187 31.0469 0.749999C31.0312 0.749999 31.0234 0.75 31.0078 0.757812C31 0.757812 30.9844 0.765624 30.9766 0.765624C30.9609 0.765624 30.9375 0.773438 30.9219 0.78125C30.9141 0.78125 30.8984 0.781249 30.8906 0.789062C30.8828 0.789062 30.8672 0.796875 30.8594 0.796875C30.8281 0.804687 30.7969 0.820312 30.7656 0.828124C30.7578 0.835937 30.7422 0.835937 30.7344 0.843749C30.7266 0.843749 30.7188 0.851562 30.7188 0.851562C30.6641 0.875 30.6094 0.898438 30.5547 0.9375L16.7891 8.88281C16.7422 8.90625 16.7031 8.9375 16.6641 8.96094C16.6484 8.96875 16.6406 8.98438 16.625 8.99219C16.5938 9.01563 16.5703 9.03125 16.5391 9.05469C16.5234 9.07031 16.5078 9.07812 16.4922 9.09375C16.4687 9.11719 16.4375 9.14062 16.4141 9.16406C16.3984 9.17969 16.3828 9.19531 16.3672 9.20312C16.3594 9.21094 16.3516 9.21875 16.3359 9.22656C16.3281 9.23438 16.3203 9.25 16.3047 9.25781L16.2109 9.35156C16.2031 9.35937 16.1953 9.375 16.1797 9.38281C16.1719 9.39063 16.1641 9.39844 16.1563 9.41406C16.1406 9.4375 16.1172 9.45312 16.1016 9.47656C16.0937 9.49219 16.0781 9.5 16.0703 9.51562C16.0625 9.53125 16.0547 9.53906 16.0469 9.55469C16.0313 9.57031 16.0234 9.58594 16.0078 9.60938C16 9.61719 15.9922 9.63281 15.9844 9.64062C15.9687 9.66406 15.9531 9.67969 15.9453 9.70312C15.9375 9.71875 15.9297 9.72656 15.9219 9.74219C15.9219 9.75 15.9141 9.75 15.9141 9.75781L15.8438 9.875C15.8438 9.875 15.8438 9.88281 15.8359 9.88281C15.8281 9.89062 15.8281 9.89844 15.8203 9.90625C15.8047 9.9375 15.7891 9.96094 15.7734 9.99219C15.7656 10.0078 15.7578 10.0156 15.7578 10.0312C15.75 10.0469 15.7422 10.0625 15.7344 10.0703C15.7266 10.0859 15.7188 10.0937 15.7188 10.1094C15.7031 10.1406 15.6875 10.1719 15.6797 10.2031C15.6797 10.2109 15.6719 10.2187 15.6719 10.2266V10.2344C15.6562 10.2734 15.6406 10.3125 15.625 10.3594C15.625 10.3672 15.6172 10.375 15.6172 10.3828C15.6094 10.3984 15.6094 10.4141 15.6016 10.4297C15.5938 10.4531 15.5859 10.4687 15.5781 10.4922C15.5703 10.5078 15.5703 10.5234 15.5625 10.5391C15.5547 10.5547 15.5547 10.5781 15.5469 10.5938C15.5469 10.6094 15.5391 10.6172 15.5391 10.6328C15.5313 10.6563 15.5312 10.6719 15.5234 10.6953C15.5156 10.7188 15.5078 10.7422 15.5078 10.7656C15.5078 10.7734 15.5 10.7812 15.5 10.7891C15.5 10.8047 15.4922 10.8203 15.4922 10.8359C15.4844 10.875 15.4766 10.9062 15.4766 10.9453C15.4766 10.9531 15.4688 10.9688 15.4688 10.9766C15.4688 11 15.4609 11.0234 15.4609 11.0391C15.4609 11.0547 15.4609 11.0703 15.4531 11.0859C15.4531 11.1328 15.4453 11.1875 15.4453 11.2344L15.5234 38.25C15.5234 38.625 15.6406 38.8984 15.8359 39.0547C15.8672 39.0781 15.8906 39.0938 15.9219 39.1172L17.0781 39.7891C16.8359 39.6484 16.6797 39.3516 16.6797 38.9219L16.6016 11.9062C16.6016 11.8594 16.6016 11.8047 16.6094 11.7578C16.6094 11.7422 16.6094 11.7266 16.6172 11.7109C16.6172 11.6797 16.625 11.6484 16.6328 11.6172C16.6406 11.5859 16.6406 11.5469 16.6484 11.5078C16.6562 11.4844 16.6563 11.4609 16.6641 11.4297C16.6719 11.4062 16.6719 11.3828 16.6797 11.3594L16.7031 11.2656C16.7109 11.25 16.7109 11.2266 16.7188 11.2109C16.7266 11.1719 16.7422 11.1406 16.7578 11.1016C16.7656 11.0859 16.7656 11.0703 16.7734 11.0547C16.7891 11.0078 16.8125 10.9531 16.8359 10.9062C16.8359 10.8984 16.8437 10.8906 16.8437 10.8828C16.8594 10.8359 16.8828 10.7969 16.9063 10.7578C16.9141 10.7422 16.9219 10.7344 16.9297 10.7187C16.9531 10.6797 16.9766 10.6328 16.9922 10.5938C17 10.5859 17 10.5781 17.0078 10.5703C17.0312 10.5234 17.0625 10.4766 17.0938 10.4297C17.1016 10.4141 17.1094 10.4062 17.1172 10.3906L17.1875 10.2969C17.2031 10.2812 17.2109 10.2656 17.2266 10.2422C17.25 10.2188 17.2656 10.1875 17.2891 10.1641C17.3047 10.1406 17.3203 10.1172 17.3438 10.1016C17.3594 10.0781 17.375 10.0625 17.3984 10.0391C17.4297 10.0078 17.4609 9.97656 17.4844 9.94531L17.5391 9.89062C17.5547 9.875 17.5703 9.85938 17.5859 9.85156C17.6094 9.82812 17.6406 9.80469 17.6641 9.78125C17.6797 9.76562 17.6953 9.75781 17.7109 9.74219C17.7422 9.71875 17.7656 9.69531 17.7969 9.67969C17.8125 9.67187 17.8203 9.65625 17.8359 9.64844C17.875 9.61719 17.9219 9.59375 17.9609 9.57031L31.7266 1.59375C31.7812 1.5625 31.8359 1.53125 31.8984 1.50781C31.9141 1.5 31.9375 1.49219 31.9531 1.48438C31.9766 1.47656 32.0078 1.46875 32.0391 1.46094Z" fill="#3B94E5"/>
<path d="M25.6953 30.1562C26.5469 29.664 27.2344 30.0624 27.2422 31.039C27.25 32.0156 26.5547 33.2031 25.711 33.6953C24.8594 34.1874 24.1719 33.789 24.1719 32.8124C24.1563 31.8359 24.8438 30.6484 25.6953 30.1562Z" fill="white"/>
<path d="M42.6094 23.375C42.5937 23.3672 42.5859 23.3594 42.5703 23.3516L42.3828 23.2578L42.3359 23.2344C42.2969 23.2188 42.2656 23.2031 42.2266 23.1875C42.2031 23.1797 42.1797 23.1719 42.1562 23.1563C42.1328 23.1484 42.1172 23.1406 42.0938 23.1328C42.0234 23.1094 41.9453 23.0781 41.8672 23.0547H41.8516C41.7813 23.0313 41.7031 23.0156 41.625 23C41.6016 22.9922 41.5781 22.9922 41.5547 22.9844C41.5312 22.9766 41.5078 22.9766 41.4844 22.9688C41.4453 22.9609 41.3984 22.9531 41.3516 22.9531C41.3359 22.9531 41.3203 22.9453 41.2969 22.9453C41.2266 22.9375 41.1484 22.9297 41.0703 22.9219H40.625C40.5859 22.9219 40.5391 22.9297 40.5 22.9297C40.4687 22.9297 40.4375 22.9297 40.4141 22.9375C40.3203 22.9453 40.2344 22.9531 40.1406 22.9688H40.1328C40.0313 22.9844 39.9297 23 39.8281 23.0234L39.7344 23.0469L39.5469 23.0938C39.5391 23.0938 39.5313 23.1016 39.5313 23.1016C39.4141 23.1328 39.2891 23.1719 39.1719 23.2109L39.1016 23.2344C39 23.2656 38.9063 23.3047 38.8047 23.3437C38.7891 23.3516 38.7813 23.3516 38.7656 23.3594C38.6875 23.3906 38.6016 23.4297 38.5234 23.4688C38.5156 23.4766 38.5 23.4766 38.4922 23.4844C38.3984 23.5234 38.3125 23.5703 38.2188 23.6172C38.1953 23.6328 38.1641 23.6484 38.1406 23.6562C38.0391 23.7109 37.9375 23.7656 37.8281 23.8281C37.7188 23.8906 37.6094 23.9531 37.5078 24.0234C37.4766 24.0469 37.4375 24.0703 37.4062 24.0938C37.3359 24.1406 37.2656 24.1875 37.1875 24.2344C37.1484 24.2656 37.1094 24.2891 37.0703 24.3203C37.0078 24.3672 36.9375 24.4141 36.875 24.4609L36.7578 24.5547C36.6953 24.6016 36.625 24.6562 36.5625 24.7109C36.5234 24.7422 36.4844 24.7734 36.4531 24.8047C36.375 24.8672 36.3047 24.9297 36.2344 24.9922C36.2109 25.0156 36.1797 25.0391 36.1484 25.0625C36.0469 25.1484 35.9531 25.2422 35.8516 25.3281C35.8281 25.3437 35.8125 25.3672 35.7891 25.3906C35.7266 25.4531 35.6562 25.5156 35.5937 25.5781L35.5625 25.6094C35.4453 25.7266 35.3359 25.8437 35.2188 25.9609C35.2109 25.9687 35.2109 25.9766 35.2031 25.9766C35.0937 26.0938 34.9922 26.2109 34.8906 26.3281L34.8594 26.3594L34.7422 26.5C34.7031 26.5469 34.6562 26.6016 34.6172 26.6484C34.5625 26.7109 34.5156 26.7734 34.4609 26.8438C34.4219 26.8906 34.3828 26.9453 34.3437 26.9922C34.3359 27 34.3281 27.0078 34.3203 27.0234C34.3047 27.0391 34.2969 27.0547 34.2812 27.0703C34.1562 27.2344 34.0313 27.4063 33.9063 27.5781C33.8906 27.5938 33.8828 27.6094 33.8672 27.6328C33.8594 27.6406 33.8594 27.6484 33.8516 27.6563C33.7344 27.8203 33.625 27.9922 33.5078 28.1641C33.5 28.1797 33.4844 28.1953 33.4766 28.2109C33.4609 28.2344 33.4453 28.2578 33.4297 28.2891C33.3437 28.4297 33.2578 28.5703 33.1719 28.7188C33.1562 28.7422 33.1406 28.7656 33.1328 28.7891C33.125 28.7969 33.125 28.8047 33.1172 28.8125C33.0234 28.9766 32.9297 29.1406 32.8359 29.3125C32.8281 29.3281 32.8203 29.3359 32.8125 29.3516C32.7969 29.3828 32.7813 29.4063 32.7734 29.4375C32.7031 29.5703 32.6328 29.7031 32.5703 29.8437C32.5547 29.875 32.5391 29.8984 32.5312 29.9297C32.5234 29.9453 32.5156 29.9609 32.5078 29.9844C32.4297 30.1563 32.3437 30.3281 32.2734 30.5C32.2734 30.5078 32.2656 30.5078 32.2656 30.5156C32.2578 30.5313 32.25 30.5547 32.2422 30.5703C32.1719 30.7266 32.1094 30.8828 32.0469 31.0391C32.0391 31.0625 32.0234 31.0859 32.0156 31.1172C32.0078 31.1406 32 31.1563 31.9922 31.1797C31.9219 31.3672 31.8516 31.5547 31.7891 31.7422V31.75C31.75 31.875 31.7109 32 31.6719 32.1172C31.6641 32.1484 31.6484 32.1875 31.6406 32.2188C31.6172 32.2891 31.6016 32.3594 31.5781 32.4297C31.5703 32.4531 31.5703 32.4766 31.5625 32.5C31.5469 32.5547 31.5312 32.6172 31.5156 32.6719C31.4922 32.75 31.4766 32.8281 31.4609 32.9062C31.4453 32.9688 31.4375 33.0234 31.4219 33.0859C31.4141 33.125 31.4062 33.1641 31.3906 33.2109C31.3828 33.2422 31.3828 33.2656 31.375 33.2969C31.3594 33.3828 31.3438 33.4766 31.3281 33.5625C31.3203 33.625 31.3047 33.6875 31.2969 33.7422C31.2812 33.8359 31.2656 33.9219 31.2578 34.0156C31.25 34.0547 31.2422 34.1016 31.2422 34.1406C31.2422 34.1562 31.2344 34.1797 31.2344 34.1953C31.2266 34.2344 31.2266 34.2813 31.2187 34.3203L31.1953 34.5781C31.1875 34.625 31.1875 34.6641 31.1875 34.7109C31.1797 34.7969 31.1797 34.8828 31.1719 34.9688C31.1719 35.0078 31.1641 35.0469 31.1641 35.0859C31.1562 35.2109 31.1563 35.3359 31.1563 35.4531C31.1641 37.5703 31.9141 39.0625 33.1172 39.7656L34.2734 40.4375C33.0625 39.7344 32.3203 38.2422 32.3125 36.125C32.3125 36 32.3125 35.8828 32.3203 35.7578C32.3203 35.7188 32.3203 35.6797 32.3281 35.6406C32.3359 35.5547 32.3359 35.4688 32.3438 35.3828C32.3438 35.3359 32.3516 35.2969 32.3516 35.25L32.375 34.9922C32.3828 34.9531 32.3828 34.9063 32.3906 34.8672C32.3984 34.8047 32.4062 34.7422 32.4141 34.6875C32.4297 34.5937 32.4375 34.5078 32.4531 34.4141C32.4609 34.3516 32.4766 34.2891 32.4844 34.2344C32.5 34.1484 32.5156 34.0625 32.5312 33.9688L32.5781 33.7578C32.5938 33.6953 32.6016 33.6406 32.6172 33.5781C32.6328 33.5 32.6563 33.4219 32.6719 33.3438C32.6875 33.2891 32.7031 33.2266 32.7188 33.1719C32.7422 33.0781 32.7734 32.9844 32.7969 32.8906C32.8047 32.8594 32.8203 32.8203 32.8281 32.7891C32.8672 32.6641 32.9062 32.5313 32.9531 32.4063C33.0156 32.2188 33.0859 32.0313 33.1562 31.8438C33.1719 31.7969 33.1953 31.75 33.2109 31.7031C33.2734 31.5469 33.3359 31.3906 33.4062 31.2344C33.4141 31.2109 33.4219 31.1875 33.4375 31.1641L33.6719 30.6484C33.6953 30.6016 33.7188 30.5625 33.7344 30.5156C33.7969 30.3828 33.8672 30.2422 33.9375 30.1094C33.9609 30.0703 33.9766 30.0234 34 29.9844C34.0938 29.8125 34.1797 29.6484 34.2812 29.4844C34.2969 29.4531 34.3203 29.4219 34.3359 29.3906C34.4219 29.25 34.5078 29.1016 34.5938 28.9609C34.6172 28.9219 34.6484 28.875 34.6719 28.8359C34.7812 28.6641 34.8984 28.4922 35.0156 28.3281C35.0313 28.3047 35.0547 28.2813 35.0703 28.25C35.1953 28.0781 35.3203 27.9063 35.4453 27.7422C35.4609 27.7188 35.4844 27.6875 35.5 27.6641C35.5391 27.6094 35.5781 27.5625 35.625 27.5078C35.6797 27.4453 35.7266 27.3828 35.7813 27.3203C35.8203 27.2656 35.8672 27.2188 35.9062 27.1719C35.9531 27.1094 36.0078 27.0547 36.0547 27C36.1563 26.8828 36.2656 26.7656 36.375 26.6484C36.3828 26.6406 36.3828 26.6328 36.3906 26.6328C36.5 26.5156 36.6172 26.3984 36.7344 26.2813C36.8047 26.2109 36.8828 26.1406 36.9531 26.0625C36.9766 26.0469 36.9922 26.0234 37.0156 26C37.1172 25.9062 37.2109 25.8203 37.3125 25.7344C37.3359 25.7109 37.3672 25.6875 37.3906 25.6641C37.4609 25.6016 37.5391 25.5391 37.6094 25.4766C37.6484 25.4453 37.6875 25.4141 37.7188 25.3828C37.7812 25.3281 37.8516 25.2813 37.9141 25.2266L38.0312 25.1328C38.0938 25.0859 38.1641 25.0391 38.2266 24.9922C38.2656 24.9609 38.3047 24.9375 38.3438 24.9062C38.4141 24.8594 38.4844 24.8125 38.5625 24.7656C38.5937 24.7422 38.6328 24.7188 38.6641 24.6953C38.7734 24.625 38.875 24.5625 38.9844 24.5C39.0859 24.4375 39.1953 24.3828 39.2969 24.3281C39.3203 24.3125 39.3516 24.2969 39.375 24.2891C39.4688 24.2422 39.5547 24.1953 39.6484 24.1562C39.6563 24.1484 39.6719 24.1484 39.6797 24.1406C39.7734 24.0938 39.8672 24.0547 39.9609 24.0156C40.0625 23.9766 40.1562 23.9375 40.2578 23.8984L40.3281 23.875C40.4531 23.8359 40.5703 23.7969 40.6875 23.7656C40.7578 23.75 40.8281 23.7266 40.8984 23.7109C40.9297 23.7031 40.9609 23.6953 41 23.6875C41.1016 23.6641 41.2031 23.6484 41.3047 23.6328H41.3125C41.4062 23.6172 41.4922 23.6094 41.5859 23.6016C41.6172 23.6016 41.6484 23.5938 41.6719 23.5938C41.7344 23.5859 41.8047 23.5859 41.8672 23.5859H42.2187C42.3047 23.5938 42.3906 23.6016 42.4687 23.6094C42.4844 23.6094 42.5 23.6172 42.5234 23.6172C42.5938 23.625 42.6562 23.6406 42.7266 23.6484C42.75 23.6562 42.7734 23.6563 42.7969 23.6641C42.875 23.6797 42.9453 23.6953 43.0234 23.7188H43.0391C43.1172 23.7422 43.1953 23.7656 43.2656 23.7969C43.2891 23.8047 43.3047 23.8125 43.3281 23.8203C43.3906 23.8438 43.4453 23.8672 43.5078 23.8984L43.5547 23.9219C43.6328 23.9609 43.7031 24 43.7734 24.0391L42.6094 23.375Z" fill="#C68620"/>
<path d="M38.9844 24.5156C42.6953 22.375 45.7188 24.0938 45.7344 28.3594C45.75 32.625 42.7422 37.8281 39.0313 39.9688C35.3203 42.1094 32.2969 40.3906 32.2891 36.125C32.2813 31.8594 35.2656 26.6641 38.9844 24.5156Z" fill="#FFCD2E"/>
<path d="M38.1094 36.0547L37.2656 35.5625C37.2578 35.5625 37.2578 35.5547 37.25 35.5547L38.0937 36.0469C38.1016 36.0469 38.1016 36.0547 38.1094 36.0547Z" fill="#858585"/>
</svg>
