<svg width="62" height="48" viewBox="0 0 62 48" fill="none" xmlns="http://www.w3.org/2000/svg">
<path d="M61.7814 27.5156C61.6954 28.375 60.9064 28.8047 60.2345 29.1953C59.6095 29.5547 58.9845 29.9219 58.3673 30.2813C57.3673 30.8594 56.3751 31.4375 55.3751 32.0156C54.1251 32.7422 52.8829 33.4688 51.6329 34.1875C50.2579 34.9844 48.8829 35.7891 47.5001 36.5859C46.1173 37.3906 44.7345 38.1953 43.3439 39C42.0704 39.7422 40.8048 40.4766 39.5314 41.2188C38.4923 41.8203 37.461 42.4219 36.422 43.0234C35.7423 43.4141 35.0626 43.8125 34.3829 44.2031C33.8673 44.5 33.3829 44.7969 32.797 44.9688C31.2735 45.4063 29.586 45.2578 28.211 44.4609C27.7189 44.1719 27.2189 43.8906 26.7267 43.6016C25.8204 43.0781 24.922 42.5625 24.0157 42.0391C22.8282 41.3516 21.6407 40.6641 20.4532 39.9844C19.1017 39.2031 17.7423 38.4219 16.3907 37.6406C14.9923 36.8359 13.5939 36.0234 12.1954 35.2187C10.8751 34.4531 9.5548 33.6953 8.22667 32.9297L4.85167 30.9844C4.04698 30.5156 3.23448 30.0547 2.4298 29.5859C2.06261 29.375 1.69542 29.1641 1.32823 28.9453C0.750108 28.6094 0.179796 28.0781 0.179796 27.3594C0.179796 28.0156 0.179796 28.6719 0.171984 29.3359C0.171984 29.5703 0.156359 29.8125 0.171984 30.0547C0.218859 30.6875 0.718859 31.1797 1.2423 31.4922C1.56261 31.6875 1.89073 31.8672 2.21886 32.0547C3.06261 32.5391 3.90636 33.0312 4.75011 33.5156C5.96886 34.2187 7.1798 34.9219 8.39855 35.625C9.84386 36.4609 11.297 37.2969 12.7423 38.1328C14.2501 39.0078 15.7579 39.875 17.2735 40.75C18.711 41.5781 20.1407 42.4063 21.5782 43.2344C22.7735 43.9219 23.961 44.6094 25.1564 45.2969C25.961 45.7656 26.7735 46.2266 27.5782 46.6953C28.047 46.9609 28.5079 47.2656 29.0157 47.4531C30.6017 48.0313 32.461 47.9062 33.922 47.0547C34.4767 46.7344 35.0314 46.4063 35.586 46.0859C36.6095 45.4922 37.6329 44.8984 38.6485 44.3047C39.9845 43.5313 41.3126 42.7578 42.6485 41.9766C44.1407 41.1094 45.6329 40.2422 47.1173 39.375L51.5939 36.7734C52.9298 35.9922 54.2657 35.2187 55.6095 34.4375C56.6485 33.8359 57.6876 33.2344 58.7267 32.625C59.297 32.2891 59.8751 31.9609 60.4454 31.625C60.6173 31.5234 60.797 31.4219 60.961 31.3047C61.3985 30.9766 61.7423 30.5234 61.7501 29.9531C61.7579 29.6641 61.7501 29.3828 61.7501 29.0938C61.7501 28.5234 61.7501 27.9453 61.7579 27.375C61.7892 27.4297 61.7892 27.4766 61.7814 27.5156C61.7892 27.5 61.7814 27.5313 61.7814 27.5156Z" fill="#8FC1EF"/>
<path d="M60.6719 25.8359C62.1563 26.6953 62.1641 28.0938 60.6875 28.9531L33.7813 44.5859C32.3047 45.4453 29.8906 45.4453 28.4063 44.5859L1.32033 28.9453C-0.164045 28.0859 -0.171858 26.6875 1.3047 25.8281L28.211 10.1875C29.6875 9.32812 32.1016 9.32812 33.586 10.1875L60.6719 25.8359Z" fill="#E4ECF9"/>
<path d="M36.9531 7.20312C36.9688 7.20312 36.9766 7.19531 36.9844 7.19531H37.0156C37.0234 7.19531 37.0391 7.20312 37.0469 7.20312L35.7969 6.47656C35.7969 6.47656 35.7891 6.47656 35.7891 6.46875C35.7891 6.46875 35.7813 6.46875 35.7813 6.46094H35.7422H35.7344H35.7266C35.7188 6.46094 35.7109 6.46094 35.7109 6.46875H35.7031H35.6953H35.6875C35.6797 6.47656 35.6641 6.47656 35.6562 6.48437L13.8984 19.0547L15.1484 19.7812L36.9062 7.21875C36.9219 7.21094 36.9375 7.21094 36.9531 7.20312ZM14.9688 32.5938L14.9297 20.1484L13.6797 19.4219L13.7188 31.8672C13.7188 32.2422 13.8516 32.5 14.0625 32.625L15.3125 33.3516C15.1016 33.2266 14.9688 32.9688 14.9688 32.5938ZM14.9531 20.0469C14.9609 20.0078 14.9766 19.9766 15 19.9453C15.0156 19.9141 15.0391 19.8828 15.0625 19.8594C15.0859 19.8359 15.1172 19.8125 15.1406 19.7969L13.8906 19.0703C13.8672 19.0859 13.8438 19.1016 13.8203 19.125L13.8125 19.1328L13.8047 19.1406C13.7969 19.1484 13.7891 19.1562 13.7891 19.1641C13.7813 19.1719 13.7813 19.1797 13.7734 19.1797C13.7656 19.1875 13.7656 19.1953 13.7578 19.1953C13.7578 19.2031 13.75 19.2109 13.75 19.2109C13.75 19.2188 13.7422 19.2187 13.7422 19.2266C13.7422 19.2344 13.7344 19.2422 13.7344 19.2422C13.7344 19.25 13.7266 19.2578 13.7266 19.2578C13.7266 19.2656 13.7188 19.2734 13.7188 19.2734C13.7188 19.2812 13.7109 19.2891 13.7109 19.2969V19.3125C13.7109 19.3203 13.7031 19.3281 13.7031 19.3359C13.7031 19.3437 13.7031 19.3594 13.6953 19.3672V19.4063L14.9453 20.1328C14.9375 20.1172 14.9375 20.0859 14.9531 20.0469Z" fill="#3B94E5"/>
<path d="M36.9062 7.21871C37.0234 7.14839 37.1172 7.20308 37.1172 7.3437L37.1562 19.789C37.1562 20.539 36.625 21.4531 35.9766 21.8359L16.1563 33.2734C15.5078 33.6484 14.9688 33.3437 14.9688 32.5937L14.9297 20.1484C14.9297 20.0156 15.0234 19.8515 15.1406 19.7812L36.9062 7.21871Z" fill="#267FD0"/>
<path d="M36.1172 1.1875C36.1484 1.17969 36.1719 1.16406 36.2031 1.15625C36.2187 1.14844 36.2422 1.14844 36.2578 1.14062C36.2734 1.13281 36.2891 1.13281 36.3047 1.13281C36.3281 1.125 36.3438 1.125 36.3672 1.125H36.5C36.5313 1.125 36.5625 1.13281 36.5859 1.13281C36.5938 1.13281 36.6016 1.13281 36.6094 1.14062C36.6328 1.14844 36.6562 1.14844 36.6719 1.15625C36.6797 1.15625 36.6875 1.16406 36.6953 1.16406C36.7188 1.17188 36.75 1.1875 36.7734 1.20313L35.5234 0.476562H35.5156C35.5 0.46875 35.4766 0.453125 35.4531 0.445313C35.4531 0.445313 35.4453 0.445312 35.4453 0.4375C35.4375 0.4375 35.4297 0.429688 35.4219 0.429688C35.4141 0.429688 35.3984 0.421875 35.3906 0.421875C35.3828 0.421875 35.3672 0.414063 35.3594 0.414063C35.3516 0.414063 35.3438 0.414063 35.3359 0.40625H35.3203C35.2969 0.398438 35.2734 0.398438 35.25 0.398438H35.0781C35.0703 0.398438 35.0625 0.40625 35.0469 0.40625C35.0313 0.40625 35.0156 0.414063 35 0.414063C34.9922 0.414063 34.9844 0.414063 34.9766 0.421875C34.9688 0.421875 34.9609 0.429688 34.9531 0.429688C34.9219 0.437501 34.8984 0.445313 34.8672 0.460938C34.8594 0.460938 34.8437 0.468751 34.8359 0.468751C34.8281 0.468751 34.8281 0.476562 34.8203 0.476562C34.7734 0.5 34.7266 0.523438 34.6719 0.546876L31.6484 2.28906L32.8984 3.01562L35.9219 1.27344C35.9688 1.24219 36.0234 1.21875 36.0703 1.20313C36.0859 1.19531 36.1016 1.1875 36.1172 1.1875Z" fill="#3B94E5"/>
<path d="M31.2812 0.171875C31.2578 0.15625 31.2344 0.148438 31.2109 0.140625C31.2109 0.140625 31.2031 0.140625 31.1953 0.132812C31.1875 0.132812 31.1797 0.125 31.1719 0.125C31.1641 0.125 31.1484 0.117188 31.1406 0.117188C31.1328 0.117188 31.1172 0.109375 31.1094 0.109375C31.1016 0.109375 31.0937 0.109375 31.0859 0.101563H31.0703C31.0469 0.0937505 31.0234 0.09375 30.9922 0.09375H30.8203C30.8125 0.09375 30.7969 0.101563 30.7891 0.101563C30.7734 0.101563 30.7578 0.109375 30.7422 0.109375C30.7344 0.109375 30.7266 0.109375 30.7109 0.117188C30.7031 0.117188 30.6953 0.125 30.6875 0.125C30.6563 0.132812 30.6328 0.140625 30.6016 0.15625C30.5938 0.164063 30.5781 0.164062 30.5703 0.164062C30.5625 0.164062 30.5625 0.171875 30.5547 0.171875C30.5078 0.195312 30.4531 0.21875 30.3984 0.25L30.2812 0.320312C30.2656 0.328125 30.2578 0.335937 30.2422 0.34375C30.2188 0.359375 30.1875 0.382812 30.1641 0.398437C30.1484 0.40625 30.1328 0.421875 30.125 0.429688C30.1016 0.453125 30.0781 0.46875 30.0547 0.492188C30.0391 0.507813 30.0234 0.515625 30.0156 0.53125L29.9922 0.554687C29.9844 0.5625 29.9766 0.570313 29.9688 0.585938L29.8828 0.671875L29.8594 0.695312L29.8359 0.71875C29.8203 0.734375 29.8047 0.757813 29.7891 0.78125C29.7813 0.796875 29.7656 0.804688 29.7578 0.820313C29.75 0.828125 29.7422 0.84375 29.7344 0.851562C29.7188 0.867187 29.7109 0.882813 29.7031 0.898438C29.6953 0.90625 29.6875 0.921875 29.6797 0.929687C29.6641 0.945312 29.6563 0.96875 29.6406 0.984375C29.6328 1 29.625 1.00781 29.6172 1.02344C29.6172 1.03125 29.6094 1.03125 29.6094 1.03906C29.5859 1.07031 29.5625 1.10937 29.5469 1.14062V1.14844C29.5391 1.15625 29.5391 1.16406 29.5313 1.17188C29.5156 1.19531 29.5 1.21875 29.4922 1.25C29.4844 1.25781 29.4766 1.27344 29.4766 1.28125C29.4688 1.29687 29.4609 1.30469 29.4609 1.32031C29.4531 1.32812 29.4531 1.34375 29.4453 1.35156C29.4297 1.38281 29.4219 1.40625 29.4063 1.4375C29.4063 1.44531 29.3984 1.45312 29.3984 1.45312V1.46094C29.3828 1.5 29.3672 1.53125 29.3516 1.57031C29.3516 1.57812 29.3438 1.58594 29.3438 1.58594C29.3359 1.60156 29.3359 1.60938 29.3281 1.625C29.3203 1.64063 29.3125 1.66406 29.3047 1.67969C29.2969 1.69531 29.2969 1.71094 29.2891 1.71875C29.2813 1.73438 29.2812 1.75 29.2734 1.77344C29.2734 1.78125 29.2656 1.79687 29.2656 1.80469C29.2578 1.82031 29.2578 1.84375 29.25 1.85938C29.2422 1.88281 29.2422 1.89844 29.2344 1.92187C29.2344 1.92969 29.2266 1.9375 29.2266 1.94531C29.2266 1.96094 29.2188 1.97656 29.2188 1.99219C29.2109 2.02344 29.2031 2.05469 29.2031 2.08594C29.2031 2.09375 29.2031 2.10156 29.1953 2.11719V2.14062C29.1875 2.21094 29.1797 2.28125 29.1797 2.35156V3.67969L30.4297 4.40625V3.07812C30.4297 3.00781 30.4375 2.9375 30.4453 2.86719C30.4453 2.85156 30.4453 2.82813 30.4531 2.8125C30.4609 2.78125 30.4609 2.75 30.4688 2.71875C30.4766 2.69531 30.4766 2.67187 30.4844 2.64844C30.4922 2.625 30.4922 2.60937 30.5 2.58594C30.5078 2.55469 30.5156 2.53125 30.5234 2.5C30.5313 2.48438 30.5313 2.46875 30.5391 2.44531C30.5469 2.41406 30.5625 2.38281 30.5703 2.34375C30.5781 2.32813 30.5781 2.32031 30.5859 2.30469C30.6016 2.25781 30.625 2.21094 30.6406 2.17188C30.6406 2.16406 30.6484 2.15625 30.6484 2.15625C30.6641 2.11719 30.6875 2.07812 30.7031 2.03906C30.7109 2.02344 30.7188 2.01562 30.7188 2C30.7344 1.96094 30.7578 1.92969 30.7813 1.89062C30.7891 1.88281 30.7891 1.875 30.7969 1.86719C30.8203 1.82812 30.8516 1.78125 30.875 1.74219C30.8828 1.72656 30.8906 1.71875 30.8984 1.71094C30.9219 1.67969 30.9375 1.64844 30.9609 1.625C30.9688 1.60938 30.9844 1.59375 30.9922 1.57812C31.0078 1.55469 31.0312 1.53125 31.0469 1.50781C31.0625 1.48438 31.0781 1.46875 31.0938 1.44531C31.1094 1.42969 31.125 1.40625 31.1406 1.39063C31.1641 1.35938 31.1953 1.32812 31.2188 1.30469L31.2734 1.25C31.2891 1.23438 31.3047 1.22656 31.3125 1.21094C31.3359 1.1875 31.3594 1.17188 31.3828 1.14844C31.3984 1.14062 31.4141 1.125 31.4219 1.11719C31.4453 1.09375 31.4766 1.07812 31.5 1.0625C31.5156 1.05469 31.5234 1.04688 31.5391 1.03906C31.5781 1.01563 31.6172 0.984375 31.6563 0.960938C31.7109 0.929688 31.7578 0.90625 31.8125 0.882813C31.8281 0.875 31.8438 0.867187 31.8594 0.867187C31.8906 0.859375 31.9141 0.84375 31.9453 0.835938C31.9609 0.828125 31.9844 0.828125 32 0.820313C32.0156 0.8125 32.0313 0.8125 32.0469 0.8125C32.0703 0.804687 32.0938 0.804688 32.1094 0.804688H32.2422C32.2734 0.804688 32.3047 0.8125 32.3359 0.8125C32.3437 0.8125 32.3516 0.8125 32.3594 0.820313L32.4297 0.84375C32.4375 0.84375 32.4453 0.851562 32.4531 0.851562C32.4844 0.859375 32.5078 0.875 32.5312 0.890625L31.2812 0.171875ZM21.5859 9.54688L20.3359 8.82031L29.1797 3.71875L30.4297 4.44531L21.5859 9.54688Z" fill="#3B94E5"/>
<path d="M19.1406 9.375C19.1484 9.34375 19.1484 9.3125 19.1563 9.28125C19.1641 9.25781 19.1641 9.23438 19.1719 9.21094C19.1797 9.1875 19.1797 9.17188 19.1875 9.14844C19.1953 9.11719 19.2031 9.09375 19.2109 9.0625C19.2188 9.04687 19.2188 9.03125 19.2266 9.00781C19.2344 8.97656 19.25 8.94531 19.2578 8.90625C19.2656 8.89062 19.2656 8.88281 19.2734 8.86719C19.2891 8.82031 19.3125 8.77344 19.3281 8.73438C19.3281 8.72656 19.3359 8.72656 19.3359 8.71875C19.3516 8.67969 19.375 8.64062 19.3906 8.60156C19.3984 8.58594 19.4063 8.57812 19.4063 8.5625C19.4219 8.52344 19.4453 8.49219 19.4688 8.45313C19.4766 8.44531 19.4766 8.4375 19.4844 8.42969C19.5078 8.39063 19.5391 8.34375 19.5625 8.30469C19.5703 8.28906 19.5781 8.28125 19.5859 8.27344C19.6094 8.24219 19.625 8.21094 19.6484 8.1875C19.6563 8.17188 19.6719 8.15625 19.6797 8.14063C19.6953 8.11719 19.7188 8.09375 19.7344 8.07031C19.75 8.04688 19.7656 8.03125 19.7813 8.00781C19.7969 7.99219 19.8125 7.96875 19.8281 7.95313C19.8516 7.92188 19.8828 7.89063 19.9063 7.86719L19.9609 7.8125C19.9766 7.79687 19.9922 7.78906 20 7.77344C20.0234 7.75 20.0469 7.73438 20.0703 7.71094C20.0859 7.70313 20.1016 7.6875 20.1094 7.67969C20.1328 7.65625 20.1641 7.64062 20.1875 7.625C20.2031 7.61719 20.2109 7.60938 20.2266 7.60156C20.2656 7.57813 20.3047 7.54688 20.3438 7.52344C20.3984 7.49219 20.4453 7.46875 20.5 7.44531C20.5156 7.4375 20.5313 7.42969 20.5469 7.42969C20.5781 7.42188 20.6016 7.40625 20.6328 7.39844C20.6484 7.39063 20.6719 7.39062 20.6875 7.38281C20.7031 7.375 20.7188 7.375 20.7344 7.375C20.7578 7.36719 20.7813 7.36719 20.7969 7.36719H20.9297C20.9609 7.36719 20.9922 7.375 21.0234 7.375C21.0312 7.375 21.0391 7.375 21.0469 7.38281L21.1172 7.40625C21.125 7.40625 21.1328 7.41406 21.1406 7.41406C21.1719 7.42188 21.1953 7.4375 21.2188 7.45313L19.9688 6.72656H19.9609C19.9375 6.71875 19.9219 6.70313 19.8984 6.69531C19.8984 6.69531 19.8906 6.69531 19.8828 6.6875C19.875 6.6875 19.8672 6.67969 19.8594 6.67969C19.8516 6.67969 19.8359 6.67188 19.8281 6.67188C19.8203 6.67188 19.8047 6.66406 19.7969 6.66406C19.7891 6.66406 19.7812 6.66406 19.7734 6.65625H19.7578C19.7344 6.64844 19.7109 6.64844 19.6797 6.64844H19.5C19.4922 6.64844 19.4766 6.65625 19.4688 6.65625C19.4531 6.65625 19.4375 6.66406 19.4219 6.66406C19.4141 6.66406 19.4063 6.66406 19.3906 6.67188C19.3828 6.67188 19.375 6.67969 19.3672 6.67969C19.3359 6.6875 19.3125 6.69531 19.2813 6.71094C19.2734 6.71875 19.2578 6.71875 19.25 6.71875C19.2422 6.71875 19.2422 6.72656 19.2344 6.72656C19.1875 6.75 19.1328 6.77344 19.0781 6.80469C19.0391 6.82812 19 6.85156 18.9609 6.88281C18.9453 6.89062 18.9375 6.89844 18.9219 6.90625C18.8984 6.92188 18.8672 6.94531 18.8438 6.96094C18.8281 6.96875 18.8125 6.98437 18.8047 6.99219C18.7813 7.01562 18.7578 7.03125 18.7344 7.05469C18.7188 7.07031 18.7031 7.07813 18.6953 7.09375L18.6719 7.11719C18.6641 7.125 18.6563 7.13281 18.6484 7.14844C18.6172 7.17969 18.5938 7.20312 18.5703 7.23438C18.5625 7.24219 18.5547 7.25 18.5469 7.26562L18.5234 7.28906C18.5078 7.30469 18.4922 7.32812 18.4766 7.35156C18.4688 7.36719 18.4531 7.375 18.4453 7.39062C18.4375 7.39844 18.4297 7.41406 18.4219 7.42187C18.4063 7.4375 18.3984 7.45312 18.3906 7.46875C18.3828 7.47656 18.375 7.49219 18.3672 7.5C18.3516 7.51562 18.3438 7.53906 18.3281 7.55469C18.3203 7.57031 18.3125 7.57813 18.3047 7.59375C18.3047 7.60156 18.2969 7.60156 18.2969 7.60938C18.2734 7.64063 18.25 7.67969 18.2344 7.71094C18.2344 7.71094 18.2344 7.71875 18.2266 7.71875C18.2188 7.72656 18.2188 7.73438 18.2109 7.74219C18.1953 7.76562 18.1797 7.78906 18.1719 7.82031C18.1641 7.82812 18.1641 7.84375 18.1563 7.85156C18.1484 7.86719 18.1406 7.875 18.1406 7.89062C18.1328 7.89844 18.1328 7.91406 18.125 7.92188C18.1094 7.95313 18.1016 7.97656 18.0859 8.00781C18.0859 8.01562 18.0781 8.02344 18.0781 8.02344V8.03125C18.0625 8.07031 18.0469 8.10156 18.0313 8.14063C18.0313 8.14844 18.0234 8.15625 18.0234 8.15625C18.0156 8.17188 18.0156 8.17969 18.0078 8.19531C18 8.21094 17.9922 8.23438 17.9844 8.25C17.9766 8.26562 17.9766 8.28125 17.9688 8.28906C17.9609 8.30469 17.9609 8.32031 17.9531 8.34375C17.9531 8.35156 17.9453 8.36719 17.9453 8.375C17.9375 8.39063 17.9375 8.41406 17.9297 8.42969C17.9219 8.45313 17.9219 8.46875 17.9141 8.49219C17.9141 8.5 17.9063 8.50781 17.9063 8.51562C17.9063 8.53125 17.8984 8.54688 17.8984 8.5625C17.8906 8.59375 17.8828 8.625 17.8828 8.65625C17.8828 8.66406 17.8828 8.67188 17.875 8.6875V8.71094C17.8672 8.78125 17.8594 8.85156 17.8594 8.92188V10.25L19.1094 10.9766V9.64844C19.1094 9.57812 19.1172 9.50781 19.125 9.4375C19.1328 9.41406 19.1406 9.39844 19.1406 9.375Z" fill="#3B94E5"/>
<path d="M31.6563 0.984389C32.3359 0.593764 32.8906 0.914077 32.8906 1.68751V3.01564L35.9141 1.27345C36.5625 0.898452 37.1016 1.20314 37.1016 1.94533L37.1094 5.90626L14.9219 18.7188L14.9141 14.7578C14.9141 14.0078 15.4453 13.0938 16.0938 12.7188L19.1172 10.9766V9.64845C19.1172 8.8672 19.6719 7.91408 20.3438 7.52345C21.0234 7.13283 21.5781 7.44533 21.5781 8.22658V9.5547L30.4219 4.44533V3.1172C30.4297 2.33595 30.9766 1.37501 31.6563 0.984389Z" fill="#267FD0"/>
<path d="M17.875 10.25L14.8516 11.9922C14.7891 12.0312 14.7266 12.0703 14.6719 12.1172C14.6641 12.125 14.6484 12.1328 14.6406 12.1406C14.5859 12.1875 14.5312 12.2344 14.4766 12.2891L14.4609 12.3047L14.4375 12.3281C14.4141 12.3516 14.3828 12.3828 14.3594 12.4141L14.3359 12.4375L14.3125 12.4609C14.2969 12.4766 14.2812 12.5 14.2656 12.5156C14.2578 12.5313 14.2422 12.5391 14.2344 12.5547C14.2266 12.5625 14.2188 12.5781 14.2109 12.5859C14.2031 12.6016 14.1875 12.6172 14.1797 12.6328C14.1719 12.6406 14.1641 12.6562 14.1562 12.6641C14.1406 12.6797 14.1328 12.7031 14.1172 12.7188C14.1094 12.7266 14.1016 12.7422 14.0938 12.75C14.0938 12.7578 14.0859 12.7578 14.0859 12.7656C14.0625 12.7969 14.0469 12.8359 14.0234 12.8672V12.875C14.0234 12.8828 14.0156 12.8906 14.0156 12.8984C14 12.9219 13.9844 12.9453 13.9766 12.9766C13.9688 12.9844 13.9687 13 13.9609 13.0078C13.9531 13.0234 13.9453 13.0312 13.9453 13.0469C13.9375 13.0547 13.9375 13.0703 13.9297 13.0781C13.9141 13.1016 13.9062 13.1328 13.8906 13.1563C13.8906 13.1641 13.8828 13.1719 13.8828 13.1719V13.1797C13.8672 13.2188 13.8516 13.25 13.8359 13.2891C13.8359 13.2969 13.8281 13.3047 13.8281 13.3047C13.8203 13.3203 13.8203 13.3281 13.8125 13.3438C13.8047 13.3594 13.7969 13.3828 13.7891 13.3984C13.7813 13.4141 13.7812 13.4219 13.7734 13.4375C13.7656 13.4531 13.7656 13.4687 13.7578 13.4844C13.7578 13.4922 13.75 13.5078 13.75 13.5156C13.7422 13.5312 13.7422 13.5469 13.7344 13.5703C13.7266 13.5938 13.7266 13.6094 13.7187 13.6328C13.7187 13.6406 13.7109 13.6484 13.7109 13.6563C13.7109 13.6719 13.7031 13.6875 13.7031 13.7031C13.6953 13.7344 13.6953 13.7656 13.6875 13.7969C13.6875 13.8047 13.6875 13.8125 13.6797 13.8203V13.8438C13.6719 13.9141 13.6641 13.9844 13.6641 14.0469L13.6719 18.0078L14.9219 18.7344L14.9141 14.7734C14.9141 14.7031 14.9219 14.6406 14.9297 14.5703C14.9297 14.5547 14.9297 14.5391 14.9375 14.5156C14.9453 14.4844 14.9453 14.4531 14.9531 14.4219C14.9609 14.3984 14.9609 14.375 14.9687 14.3594C14.9766 14.3359 14.9766 14.3203 14.9844 14.2969C14.9922 14.2656 15 14.2422 15.0078 14.2109C15.0156 14.1953 15.0156 14.1797 15.0234 14.1641C15.0312 14.1328 15.0469 14.1016 15.0547 14.0703C15.0625 14.0547 15.0625 14.0469 15.0703 14.0312C15.0859 13.9844 15.1016 13.9453 15.125 13.8984C15.125 13.8906 15.1328 13.8828 15.1328 13.8828C15.1484 13.8438 15.1641 13.8047 15.1875 13.7734C15.1953 13.7578 15.2031 13.75 15.2031 13.7344C15.2187 13.6953 15.2422 13.6641 15.2578 13.625C15.2578 13.6172 15.2656 13.6094 15.2656 13.6016C15.2891 13.5625 15.3125 13.5234 15.3438 13.4766C15.3516 13.4687 15.3594 13.4531 15.3672 13.4453C15.3828 13.4141 15.4063 13.3906 15.4297 13.3594C15.4375 13.3437 15.4531 13.3281 15.4609 13.3125C15.4766 13.2891 15.5 13.2656 15.5156 13.2422C15.5312 13.2266 15.5469 13.2031 15.5625 13.1875C15.5781 13.1719 15.5937 13.1562 15.6094 13.1328C15.6328 13.1016 15.6641 13.0781 15.6875 13.0469L15.7266 13.0078C15.7812 12.9531 15.8359 12.9062 15.8906 12.8594C15.8984 12.8516 15.9141 12.8438 15.9219 12.8359C15.9844 12.7891 16.0391 12.75 16.1016 12.7109L19.125 10.9688L17.875 10.25Z" fill="#3B94E5"/>
<path d="M21.0859 23.8359C21.4531 23.625 21.7578 23.7968 21.7578 24.2187V25.5234C21.7578 25.9453 21.4609 26.4687 21.0859 26.6796L18.5469 28.1406C18.1797 28.3515 17.875 28.1796 17.875 27.7578V26.4531C17.875 26.0312 18.1719 25.5078 18.5469 25.2968L21.0859 23.8359ZM21.0703 19.0312C21.4375 18.8203 21.7422 18.9921 21.7422 19.414V20.7187C21.7422 21.1406 21.4453 21.664 21.0703 21.875L18.5313 23.3359C18.1641 23.5468 17.8594 23.375 17.8594 22.9531V21.6484C17.8594 21.2265 18.1563 20.7031 18.5313 20.4921L21.0703 19.0312ZM26.9219 20.4687C27.2891 20.2578 27.5938 20.4296 27.5938 20.8515V22.1562C27.5938 22.5781 27.2969 23.1015 26.9219 23.3125L24.3906 24.7812C24.0234 24.9921 23.7188 24.8203 23.7188 24.3984V23.0937C23.7188 22.6718 24.0156 22.1484 24.3828 21.9375L26.9219 20.4687ZM26.9063 15.664C27.2734 15.4531 27.5781 15.625 27.5781 16.0468V17.3515C27.5781 17.7734 27.2813 18.2968 26.9063 18.5078L24.3672 19.9687C24 20.1796 23.6953 20.0078 23.6953 19.5859V18.2812C23.6953 17.8593 23.9922 17.3359 24.3594 17.125L26.9063 15.664ZM32.75 17.1015C33.1172 16.8906 33.4219 17.0625 33.4219 17.4843V18.789C33.4219 19.2109 33.125 19.7343 32.75 19.9453L30.2109 21.4062C29.8438 21.6171 29.5391 21.4453 29.5391 21.0234V19.7187C29.5391 19.2968 29.8359 18.7734 30.2109 18.5625L32.75 17.1015ZM32.7422 12.2968C33.1094 12.0859 33.4141 12.2578 33.4141 12.6796V13.9843C33.4141 14.4062 33.1172 14.9296 32.7422 15.1406L30.2031 16.6015C29.8359 16.8125 29.5313 16.6406 29.5313 16.2187V14.914C29.5313 14.4921 29.8281 13.9687 30.2031 13.7578L32.7422 12.2968Z" fill="#267FD0" fill-opacity="0.5"/>
<path d="M21.8984 24.3984C21.8828 24.3906 21.875 24.3828 21.8594 24.3828C21.8516 24.375 21.8359 24.375 21.8203 24.3672C21.8125 24.3672 21.8047 24.3672 21.7969 24.3594H21.7891H21.7812C21.7656 24.3594 21.7578 24.3594 21.7422 24.3516H21.6797H21.6484C21.6328 24.3516 21.6094 24.3594 21.5859 24.3672C21.5781 24.3672 21.5703 24.375 21.5625 24.375C21.5547 24.375 21.5469 24.3828 21.5391 24.3828C21.5312 24.3828 21.5156 24.3906 21.5078 24.3906L21.4141 24.4375L18.875 25.8984C18.8359 25.9219 18.7891 25.9531 18.75 25.9844C18.7344 25.9922 18.7266 26.0078 18.7109 26.0156C18.6953 26.0312 18.6719 26.0469 18.6562 26.0703C18.6484 26.0781 18.6406 26.0859 18.6328 26.1016L18.6094 26.125L18.5859 26.1484C18.5703 26.1719 18.5469 26.1953 18.5312 26.2188C18.5234 26.2266 18.5156 26.2344 18.5156 26.2422C18.5156 26.25 18.5078 26.25 18.5078 26.2578C18.5 26.2656 18.5 26.2734 18.4922 26.2813C18.4766 26.2969 18.4687 26.3203 18.4531 26.3359C18.4375 26.3516 18.4297 26.375 18.4219 26.3906V26.4062L18.3984 26.4531C18.3906 26.4688 18.375 26.4922 18.3672 26.5078L18.3438 26.5547V26.5625C18.3359 26.5859 18.3281 26.6016 18.3203 26.625C18.3125 26.6484 18.3047 26.6641 18.2969 26.6875C18.2969 26.6953 18.2891 26.7109 18.2891 26.7187C18.2891 26.7266 18.2891 26.7266 18.2813 26.7344C18.2813 26.7422 18.2734 26.75 18.2734 26.7578C18.2656 26.7812 18.2578 26.8125 18.2578 26.8359C18.2578 26.8516 18.25 26.8672 18.25 26.8828C18.25 26.8906 18.25 26.8984 18.2422 26.9063C18.2422 26.9141 18.2422 26.9219 18.2344 26.9297C18.2266 26.9766 18.2266 27.0156 18.2266 27.0625V28.3672C18.2266 28.5781 18.3047 28.7266 18.4219 28.7969L19.3359 29.3281C19.2188 29.2578 19.1406 29.1094 19.1406 28.8984V27.5937C19.1406 27.5469 19.1484 27.4922 19.1562 27.4375C19.1562 27.4297 19.1562 27.4219 19.1641 27.4141C19.1719 27.3672 19.1797 27.3203 19.1953 27.2656C19.1953 27.2578 19.1953 27.2578 19.2031 27.25C19.2188 27.1953 19.2422 27.1406 19.2578 27.0937V27.0859C19.2813 27.0312 19.3047 26.9844 19.3359 26.9297V26.9219L19.4297 26.7812C19.4297 26.7734 19.4375 26.7734 19.4375 26.7656C19.4688 26.7266 19.5 26.6875 19.5391 26.6484L19.5625 26.625C19.5859 26.5937 19.6172 26.5703 19.6484 26.5469C19.6641 26.5391 19.6719 26.5234 19.6875 26.5156C19.7266 26.4844 19.7734 26.4531 19.8125 26.4297L22.3516 24.9688C22.3906 24.9453 22.4375 24.9297 22.4766 24.9141C22.4844 24.9141 22.4922 24.9062 22.5 24.9062C22.5391 24.8906 22.5781 24.8828 22.6094 24.8828H22.6172C22.6563 24.8828 22.6875 24.8828 22.7266 24.8906H22.7344C22.7656 24.8984 22.8047 24.9063 22.8281 24.9297L21.8984 24.3984Z" fill="#ACC5EA"/>
<path d="M22.3359 24.9687C22.7031 24.7578 23.0078 24.9296 23.0078 25.3515V26.6562C23.0078 27.0781 22.7109 27.6015 22.3359 27.8125L19.7969 29.2734C19.4297 29.4843 19.125 29.3125 19.125 28.8906V27.5859C19.125 27.164 19.4219 26.6406 19.7969 26.4296L22.3359 24.9687Z" fill="white"/>
<path d="M18.4062 23.9922L19.3203 24.5234C19.2031 24.4531 19.125 24.3047 19.125 24.0938V22.7891L18.2109 22.2578V23.5625C18.2109 23.7734 18.2812 23.9219 18.4062 23.9922Z" fill="#ACC5EA"/>
<path d="M21.8828 19.5938C21.8828 19.5859 21.8828 19.5859 21.8828 19.5938C21.8672 19.5859 21.8594 19.5781 21.8438 19.5781C21.8359 19.5703 21.8203 19.5703 21.8047 19.5625C21.7969 19.5625 21.7891 19.5625 21.7813 19.5547H21.7734H21.7656C21.75 19.5547 21.7422 19.5547 21.7266 19.5469H21.6641H21.6328C21.6172 19.5469 21.5938 19.5547 21.5703 19.5625C21.5625 19.5625 21.5547 19.5703 21.5469 19.5703C21.5391 19.5703 21.5313 19.5781 21.5234 19.5781C21.5156 19.5781 21.5 19.5859 21.4922 19.5859L21.3984 19.6328L18.8594 21.0937C18.8203 21.1172 18.7734 21.1484 18.7344 21.1797C18.7188 21.1875 18.7109 21.2031 18.6953 21.2109C18.6719 21.2266 18.6563 21.2422 18.6406 21.2656C18.6328 21.2734 18.625 21.2812 18.6172 21.2969L18.5938 21.3203L18.5703 21.3437C18.5547 21.3672 18.5313 21.3906 18.5156 21.4141C18.5078 21.4219 18.5 21.4297 18.5 21.4375C18.5 21.4453 18.4922 21.4453 18.4922 21.4531C18.4844 21.4609 18.4844 21.4688 18.4766 21.4766C18.4609 21.4922 18.4531 21.5156 18.4375 21.5312C18.4219 21.5469 18.4141 21.5703 18.4063 21.5859V21.6016L18.3828 21.6484C18.375 21.6641 18.3594 21.6875 18.3516 21.7031C18.3438 21.7188 18.3359 21.7344 18.3281 21.7578V21.7656C18.3203 21.7891 18.3125 21.8047 18.3047 21.8281C18.2969 21.8516 18.2891 21.8672 18.2813 21.8906C18.2813 21.8984 18.2734 21.9141 18.2734 21.9219C18.2734 21.9297 18.2734 21.9297 18.2656 21.9375C18.2656 21.9453 18.2578 21.9531 18.2578 21.9609C18.25 21.9844 18.2422 22.0156 18.2422 22.0391C18.2422 22.0547 18.2344 22.0703 18.2344 22.0859C18.2344 22.0937 18.2344 22.1016 18.2266 22.1094C18.2266 22.1172 18.2266 22.125 18.2188 22.1328C18.2109 22.1797 18.2109 22.2187 18.2109 22.2656L19.125 22.7969C19.125 22.75 19.1328 22.6953 19.1406 22.6406C19.1406 22.6328 19.1406 22.625 19.1484 22.6172C19.1563 22.5703 19.1641 22.5234 19.1797 22.4687C19.1797 22.4609 19.1797 22.4609 19.1875 22.4531C19.2031 22.3984 19.2266 22.3438 19.2422 22.2969C19.2656 22.2422 19.2891 22.1875 19.3203 22.1406V22.1328L19.4141 21.9922C19.4141 21.9844 19.4219 21.9844 19.4219 21.9766C19.4531 21.9375 19.4844 21.8984 19.5234 21.8594L19.5469 21.8359C19.5703 21.8047 19.6016 21.7812 19.6328 21.7578C19.6484 21.75 19.6563 21.7344 19.6719 21.7266C19.7109 21.6953 19.7578 21.6641 19.7969 21.6406L22.3359 20.1797C22.375 20.1563 22.4219 20.1406 22.4609 20.125C22.4688 20.125 22.4766 20.1172 22.4844 20.1172C22.5234 20.1016 22.5625 20.0937 22.5938 20.0937H22.6016C22.6406 20.0937 22.6719 20.0938 22.7109 20.1016H22.7188C22.75 20.1094 22.7891 20.1172 22.8125 20.1406L21.8828 19.5938Z" fill="#ACC5EA"/>
<path d="M22.3203 20.164C22.6875 19.9531 22.9922 20.125 22.9922 20.5468V21.8515C22.9922 22.2734 22.6953 22.7968 22.3203 23.0078L19.7813 24.4687C19.4141 24.6796 19.1094 24.5078 19.1094 24.0859V22.7812C19.1094 22.3593 19.4063 21.8359 19.7813 21.625L22.3203 20.164Z" fill="white"/>
<path d="M24.9687 25.5312L24.0547 25C24.0547 25.2109 24.1328 25.3594 24.25 25.4297L25.1641 25.9609C25.0391 25.8906 24.9687 25.7422 24.9687 25.5312ZM27.7344 21.0313C27.7266 21.0234 27.7266 21.0234 27.7344 21.0313C27.7188 21.0234 27.7109 21.0156 27.6953 21.0156C27.6875 21.0078 27.6719 21.0078 27.6563 21C27.6484 21 27.6406 21 27.6328 20.9922H27.625H27.6172C27.6016 20.9922 27.5938 20.9922 27.5781 20.9844H27.5156H27.4844C27.4687 20.9844 27.4453 20.9922 27.4219 21C27.4141 21 27.4062 21.0078 27.3984 21.0078C27.3906 21.0078 27.3828 21.0156 27.375 21.0156C27.3672 21.0156 27.3516 21.0234 27.3438 21.0234L27.25 21.0703L24.7109 22.5313C24.6719 22.5547 24.625 22.5859 24.5859 22.6172C24.5703 22.625 24.5625 22.6406 24.5469 22.6484C24.5312 22.6641 24.5078 22.6797 24.4922 22.7031C24.4844 22.7109 24.4766 22.7187 24.4687 22.7344L24.4453 22.7578L24.4219 22.7812C24.4062 22.8047 24.3828 22.8281 24.3672 22.8438C24.3594 22.8516 24.3516 22.8594 24.3516 22.8672C24.3516 22.875 24.3437 22.875 24.3437 22.8828C24.3359 22.8906 24.3359 22.8984 24.3281 22.9063C24.3125 22.9219 24.3047 22.9453 24.2891 22.9609C24.2734 22.9766 24.2656 23 24.2578 23.0156V23.0313L24.2344 23.0781C24.2266 23.0938 24.2109 23.1172 24.2031 23.1328C24.1953 23.1484 24.1875 23.1641 24.1797 23.1875C24.1719 23.2109 24.1641 23.2266 24.1562 23.25C24.1484 23.2734 24.1406 23.2891 24.1328 23.3125C24.1328 23.3203 24.125 23.3359 24.125 23.3438C24.125 23.3516 24.125 23.3516 24.1172 23.3594C24.1172 23.3672 24.1094 23.375 24.1094 23.3828C24.1016 23.4063 24.0938 23.4375 24.0938 23.4609C24.0938 23.4766 24.0859 23.4922 24.0859 23.5078C24.0859 23.5156 24.0859 23.5234 24.0781 23.5313C24.0781 23.5391 24.0781 23.5469 24.0703 23.5547C24.0625 23.6016 24.0625 23.6406 24.0625 23.6875V24.9922L24.9766 25.5234V24.2187C24.9766 24.1719 24.9844 24.1172 24.9922 24.0625C24.9922 24.0547 24.9922 24.0469 25 24.0391C25.0078 23.9922 25.0156 23.9453 25.0312 23.8906C25.0312 23.8828 25.0313 23.8828 25.0391 23.875C25.0547 23.8203 25.0781 23.7656 25.0937 23.7188C25.1172 23.6641 25.1406 23.6094 25.1719 23.5625V23.5547L25.2656 23.4141C25.2656 23.4063 25.2734 23.4062 25.2734 23.3984C25.3047 23.3594 25.3359 23.3203 25.375 23.2812L25.3984 23.2578C25.4219 23.2266 25.4531 23.2031 25.4844 23.1797C25.5 23.1719 25.5078 23.1563 25.5234 23.1484C25.5625 23.1172 25.6094 23.0859 25.6484 23.0625L28.1875 21.6016C28.2266 21.5781 28.2734 21.5625 28.3125 21.5469C28.3203 21.5469 28.3281 21.5391 28.3359 21.5391C28.375 21.5234 28.4141 21.5156 28.4453 21.5156H28.4531C28.4922 21.5156 28.5234 21.5156 28.5625 21.5234H28.5703C28.6016 21.5312 28.6406 21.5391 28.6641 21.5625L27.7344 21.0313Z" fill="#ACC5EA"/>
<path d="M28.1641 21.6015C28.5313 21.3906 28.8359 21.5625 28.8359 21.9843V23.289C28.8359 23.7109 28.5391 24.2343 28.1641 24.4453L25.625 25.9062C25.2578 26.1172 24.9531 25.9453 24.9531 25.5234V24.2187C24.9531 23.7968 25.25 23.2734 25.6172 23.0625L28.1641 21.6015Z" fill="white"/>
<path d="M24.9531 20.7266L24.0391 20.1953C24.0391 20.25 24.0469 20.2969 24.0547 20.3438C24.0781 20.4766 24.1484 20.5781 24.2344 20.625L25.1484 21.1563C25.0313 21.0781 24.9531 20.9297 24.9531 20.7266ZM27.7188 16.2188C27.7031 16.2109 27.6953 16.2031 27.6797 16.2031C27.6719 16.1953 27.6563 16.1953 27.6406 16.1875C27.6328 16.1875 27.625 16.1875 27.6172 16.1797H27.6094H27.6016C27.5859 16.1797 27.5781 16.1797 27.5625 16.1719H27.5H27.4687C27.4531 16.1719 27.4297 16.1797 27.4063 16.1875C27.3984 16.1875 27.3906 16.1953 27.3828 16.1953C27.375 16.1953 27.3672 16.2031 27.3594 16.2031C27.3516 16.2031 27.3359 16.2109 27.3281 16.2109L27.2344 16.2578L24.6953 17.7188C24.6562 17.7422 24.6094 17.7734 24.5703 17.8047C24.5547 17.8125 24.5469 17.8281 24.5313 17.8359C24.5156 17.8516 24.4922 17.8672 24.4766 17.8906C24.4688 17.8984 24.4609 17.9063 24.4531 17.9219L24.4297 17.9453L24.4063 17.9688C24.3906 17.9922 24.3672 18.0156 24.3516 18.0313C24.3438 18.0391 24.3359 18.0469 24.3359 18.0547C24.3359 18.0625 24.3281 18.0625 24.3281 18.0703C24.3203 18.0781 24.3203 18.0859 24.3125 18.0938C24.2969 18.1094 24.2891 18.1328 24.2734 18.1484C24.2578 18.1641 24.25 18.1875 24.2422 18.2031V18.2188L24.2188 18.2656C24.2109 18.2813 24.1953 18.3047 24.1875 18.3203C24.1797 18.3359 24.1719 18.3516 24.1641 18.375C24.1563 18.3984 24.1484 18.4141 24.1406 18.4375C24.1328 18.4609 24.125 18.4766 24.1172 18.5C24.1172 18.5078 24.1094 18.5234 24.1094 18.5313C24.1094 18.5391 24.1094 18.5391 24.1016 18.5469C24.1016 18.5547 24.0938 18.5625 24.0938 18.5703C24.0859 18.5938 24.0781 18.625 24.0781 18.6484C24.0781 18.6641 24.0703 18.6797 24.0703 18.6953C24.0703 18.7031 24.0703 18.7109 24.0625 18.7188V18.7422C24.0547 18.7891 24.0547 18.8281 24.0547 18.875V20.1797L24.9687 20.7109V19.4063C24.9687 19.3594 24.9766 19.3047 24.9844 19.25C24.9844 19.2422 24.9844 19.2344 24.9922 19.2266C25 19.1797 25.0078 19.1328 25.0234 19.0781C25.0234 19.0703 25.0234 19.0703 25.0313 19.0625C25.0469 19.0078 25.0703 18.9531 25.0859 18.9062C25.1094 18.8516 25.1328 18.8047 25.1641 18.75V18.7422L25.2578 18.6016C25.2578 18.5938 25.2656 18.5938 25.2656 18.5859C25.2969 18.5469 25.3281 18.5078 25.3672 18.4688L25.3906 18.4453C25.4141 18.4141 25.4453 18.3906 25.4766 18.3672C25.4922 18.3594 25.5 18.3438 25.5156 18.3359C25.5547 18.3047 25.6016 18.2734 25.6406 18.25L28.1797 16.7891C28.2188 16.7656 28.2656 16.75 28.3047 16.7344C28.3125 16.7344 28.3203 16.7266 28.3281 16.7266C28.3672 16.7109 28.4063 16.7031 28.4375 16.7031H28.4453C28.4844 16.7031 28.5156 16.7031 28.5547 16.7109H28.5625C28.5937 16.7188 28.6328 16.7266 28.6563 16.75L27.7188 16.2188Z" fill="#ACC5EA"/>
<path d="M28.1484 16.7968C28.5156 16.5859 28.8203 16.7578 28.8203 17.1797V18.4843C28.8203 18.9062 28.5234 19.4297 28.1484 19.6406L25.625 21.1093C25.2578 21.3203 24.9531 21.1484 24.9531 20.7265V19.4218C24.9531 19 25.25 18.4765 25.6172 18.2656L28.1484 16.7968Z" fill="white"/>
<path d="M33.5625 17.6562C33.5469 17.6484 33.5391 17.6406 33.5234 17.6406C33.5156 17.6328 33.5 17.6328 33.4844 17.625C33.4766 17.625 33.4688 17.625 33.4609 17.6172H33.4531H33.4453C33.4297 17.6172 33.4219 17.6172 33.4062 17.6094H33.3438H33.3125C33.2969 17.6094 33.2734 17.6172 33.25 17.625C33.2422 17.625 33.2344 17.6328 33.2266 17.6328C33.2188 17.6328 33.2109 17.6406 33.2031 17.6406C33.1953 17.6406 33.1797 17.6484 33.1719 17.6484L33.0781 17.6953L30.5391 19.1562C30.4922 19.1797 30.4531 19.2109 30.4141 19.2422C30.3984 19.25 30.3906 19.2656 30.375 19.2734C30.3516 19.2891 30.3359 19.3047 30.3203 19.3281C30.3125 19.3359 30.3047 19.3437 30.2969 19.3594L30.2734 19.3828L30.25 19.4062C30.2344 19.4297 30.2109 19.4531 30.1953 19.4766C30.1875 19.4844 30.1797 19.4922 30.1797 19.5C30.1797 19.5078 30.1719 19.5078 30.1719 19.5156C30.1641 19.5234 30.1641 19.5312 30.1563 19.5391C30.1406 19.5547 30.1328 19.5781 30.1172 19.5937C30.1016 19.6094 30.0937 19.6328 30.0859 19.6484V19.6641L30.0625 19.7109C30.0547 19.7266 30.0391 19.75 30.0313 19.7656C30.0234 19.7812 30.0156 19.7969 30.0078 19.8203C30 19.8437 29.9922 19.8594 29.9844 19.8828C29.9766 19.9062 29.9688 19.9219 29.9609 19.9453C29.9609 19.9531 29.9531 19.9687 29.9531 19.9766C29.9531 19.9844 29.9531 19.9844 29.9453 19.9922C29.9453 20 29.9375 20.0078 29.9375 20.0156C29.9297 20.0391 29.9219 20.0703 29.9219 20.0937C29.9219 20.1094 29.9141 20.125 29.9141 20.1406C29.9141 20.1484 29.9141 20.1562 29.9063 20.1641V20.1875C29.8984 20.2344 29.8984 20.2734 29.8984 20.3203V21.625C29.8984 21.7812 29.9375 21.9062 30.0156 21.9844C30.0391 22.0078 30.0703 22.0312 30.0938 22.0547L31.0078 22.5859C30.8906 22.5156 30.8125 22.3672 30.8125 22.1562V20.8516C30.8125 20.8047 30.8203 20.75 30.8281 20.6953C30.8281 20.6875 30.8281 20.6797 30.8359 20.6719C30.8438 20.625 30.8516 20.5781 30.8672 20.5234C30.8672 20.5156 30.8672 20.5156 30.875 20.5078C30.8906 20.4531 30.9141 20.3984 30.9297 20.3516C30.9531 20.2969 30.9766 20.2422 31.0078 20.1953V20.1875L31.1016 20.0469C31.1016 20.0391 31.1094 20.0391 31.1094 20.0312C31.1406 19.9922 31.1719 19.9531 31.2109 19.9141L31.2344 19.8906C31.2578 19.8594 31.2891 19.8359 31.3203 19.8125C31.3359 19.8047 31.3437 19.7891 31.3594 19.7812C31.3984 19.75 31.4453 19.7187 31.4844 19.6953L34.0234 18.2344C34.0625 18.2109 34.1094 18.1953 34.1484 18.1797C34.1562 18.1797 34.1641 18.1719 34.1719 18.1719C34.2109 18.1562 34.25 18.1484 34.2813 18.1484H34.2891C34.3281 18.1484 34.3594 18.1484 34.3984 18.1562H34.4062C34.4375 18.1641 34.4766 18.1719 34.5 18.1953L33.5625 17.6562Z" fill="#ACC5EA"/>
<path d="M34 18.2343C34.3672 18.0234 34.6719 18.1953 34.6719 18.6171V19.9218C34.6719 20.3437 34.375 20.8671 34 21.0781L31.4688 22.5468C31.1016 22.7578 30.7969 22.5859 30.7969 22.164V20.8593C30.7969 20.4375 31.0938 19.914 31.4688 19.7031L34 18.2343Z" fill="white"/>
<path d="M30.0703 17.2578L30.9844 17.7891C30.8672 17.7187 30.7891 17.5703 30.7891 17.3594L29.875 16.8281C29.875 17.0391 29.9531 17.1875 30.0703 17.2578ZM33.5547 12.8516C33.5469 12.8516 33.5469 12.8516 33.5547 12.8516C33.5391 12.8437 33.5313 12.8359 33.5156 12.8359C33.5078 12.8281 33.4922 12.8281 33.4766 12.8203C33.4688 12.8203 33.4609 12.8203 33.4531 12.8125H33.4453H33.4375C33.4219 12.8125 33.4141 12.8125 33.3984 12.8047H33.3359H33.3047C33.2891 12.8047 33.2656 12.8125 33.2422 12.8203C33.2344 12.8203 33.2266 12.8281 33.2188 12.8281C33.2109 12.8281 33.2031 12.8359 33.1953 12.8359C33.1875 12.8359 33.1719 12.8438 33.1641 12.8438L33.0703 12.8906L30.5312 14.3516C30.4844 14.375 30.4453 14.4062 30.4062 14.4375C30.3906 14.4453 30.3828 14.4609 30.3672 14.4687C30.3437 14.4844 30.3281 14.5 30.3047 14.5234C30.2969 14.5313 30.2891 14.5391 30.2812 14.5547L30.2578 14.5781L30.2344 14.6016C30.2188 14.625 30.1953 14.6484 30.1797 14.6641C30.1719 14.6719 30.1641 14.6797 30.1641 14.6875C30.1641 14.6953 30.1563 14.6953 30.1563 14.7031C30.1484 14.7109 30.1484 14.7187 30.1406 14.7266C30.125 14.7422 30.1172 14.7656 30.1016 14.7812C30.0859 14.7969 30.0781 14.8203 30.0703 14.8359V14.8516L30.0469 14.8984C30.0391 14.9141 30.0234 14.9375 30.0156 14.9531C30.0078 14.9688 30 14.9844 29.9922 15.0078C29.9844 15.0312 29.9766 15.0469 29.9687 15.0703C29.9609 15.0938 29.9531 15.1094 29.9453 15.1328C29.9453 15.1406 29.9375 15.1562 29.9375 15.1641C29.9375 15.1719 29.9375 15.1719 29.9297 15.1797C29.9297 15.1875 29.9219 15.1953 29.9219 15.2031C29.9141 15.2266 29.9062 15.2578 29.9062 15.2812C29.9062 15.2969 29.8984 15.3125 29.8984 15.3281C29.8984 15.3359 29.8984 15.3437 29.8906 15.3516C29.8906 15.3594 29.8906 15.3672 29.8828 15.375C29.875 15.4219 29.875 15.4609 29.875 15.5078V16.8125L30.7891 17.3437V16.0391C30.7891 15.9922 30.7969 15.9375 30.8047 15.8828C30.8047 15.875 30.8047 15.8672 30.8125 15.8594C30.8203 15.8125 30.8281 15.7656 30.8437 15.7109C30.8437 15.7031 30.8438 15.7031 30.8516 15.6953C30.8672 15.6406 30.8906 15.5859 30.9062 15.5391C30.9297 15.4844 30.9531 15.4297 30.9844 15.3828V15.375L31.0781 15.2344C31.0781 15.2266 31.0859 15.2266 31.0859 15.2187C31.1172 15.1797 31.1484 15.1406 31.1875 15.1016L31.2109 15.0781C31.2344 15.0469 31.2656 15.0234 31.2969 15C31.3125 14.9922 31.3203 14.9766 31.3359 14.9687C31.375 14.9375 31.4219 14.9062 31.4609 14.8828L34 13.4219C34.0391 13.3984 34.0859 13.3828 34.125 13.3672C34.1328 13.3672 34.1406 13.3594 34.1484 13.3594C34.1875 13.3437 34.2266 13.3359 34.2578 13.3359H34.2656C34.3047 13.3359 34.3359 13.3359 34.375 13.3437H34.3828C34.4141 13.3516 34.4531 13.3594 34.4766 13.3828L33.5547 12.8516Z" fill="#ACC5EA"/>
<path d="M33.9844 13.4296C34.3516 13.2187 34.6562 13.3906 34.6562 13.8125V15.1171C34.6562 15.539 34.3594 16.0625 33.9844 16.2734L31.4453 17.7343C31.0781 17.9453 30.7734 17.7734 30.7734 17.3515V16.0468C30.7734 15.625 31.0703 15.1015 31.4453 14.8906L33.9844 13.4296Z" fill="white"/>
<path d="M46.7656 15.2578C46.75 15.25 46.7422 15.2422 46.7266 15.2344L46.5391 15.1406L46.4922 15.1172C46.4531 15.1016 46.4219 15.0859 46.3828 15.0703C46.3594 15.0625 46.3359 15.0547 46.3125 15.0391C46.2891 15.0313 46.2734 15.0234 46.25 15.0156C46.1797 14.9922 46.1016 14.9609 46.0234 14.9375H46.0078C45.9375 14.9141 45.8594 14.8984 45.7812 14.8828C45.7578 14.875 45.7344 14.875 45.7109 14.8672C45.6875 14.8594 45.6641 14.8594 45.6406 14.8516C45.6016 14.8438 45.5547 14.8359 45.5078 14.8359C45.4922 14.8359 45.4766 14.8281 45.4531 14.8281C45.3828 14.8203 45.3047 14.8125 45.2266 14.8047H44.7813C44.7422 14.8047 44.6953 14.8125 44.6562 14.8125C44.625 14.8125 44.5938 14.8125 44.5703 14.8203C44.4766 14.8281 44.3906 14.8359 44.2969 14.8516H44.2891C44.1875 14.8672 44.0859 14.8828 43.9844 14.9063L43.8906 14.9297L43.7031 14.9766C43.6953 14.9766 43.6875 14.9844 43.6875 14.9844C43.5703 15.0156 43.4453 15.0547 43.3281 15.0938L43.2578 15.1172C43.1563 15.1484 43.0625 15.1875 42.9609 15.2266C42.9453 15.2344 42.9375 15.2344 42.9219 15.2422C42.8437 15.2734 42.7578 15.3125 42.6797 15.3516C42.6719 15.3594 42.6562 15.3594 42.6484 15.3672C42.5547 15.4063 42.4687 15.4531 42.375 15.5C42.3516 15.5156 42.3203 15.5313 42.2969 15.5391C42.1953 15.5938 42.0937 15.6484 41.9844 15.7109C41.875 15.7734 41.7656 15.8359 41.6641 15.9063C41.6328 15.9297 41.5938 15.9531 41.5625 15.9766C41.4922 16.0234 41.4219 16.0703 41.3438 16.1172C41.3047 16.1484 41.2656 16.1719 41.2266 16.2031C41.1641 16.25 41.0938 16.2969 41.0313 16.3438L40.9141 16.4375C40.8516 16.4844 40.7813 16.5391 40.7188 16.5938C40.6797 16.625 40.6406 16.6563 40.6094 16.6875C40.5391 16.75 40.4609 16.8125 40.3906 16.875C40.3672 16.8984 40.3359 16.9219 40.3047 16.9453C40.2031 17.0313 40.1094 17.125 40.0078 17.2109C39.9844 17.2266 39.9687 17.25 39.9453 17.2734C39.8828 17.3359 39.8125 17.3984 39.75 17.4609L39.7187 17.4922C39.6016 17.6094 39.4922 17.7266 39.375 17.8438C39.3672 17.8516 39.3672 17.8594 39.3594 17.8594C39.25 17.9766 39.1484 18.0938 39.0469 18.2109L39.0156 18.2422L38.8984 18.3828C38.8594 18.4297 38.8125 18.4844 38.7734 18.5313C38.7187 18.5938 38.6719 18.6563 38.6172 18.7266C38.5781 18.7734 38.5391 18.8281 38.5 18.875C38.4922 18.8828 38.4844 18.8906 38.4766 18.9063C38.4609 18.9219 38.4531 18.9375 38.4375 18.9531C38.3125 19.1172 38.1875 19.2891 38.0625 19.4609C38.0469 19.4766 38.0391 19.4922 38.0234 19.5156C38.0156 19.5234 38.0156 19.5313 38.0078 19.5391C37.8906 19.7031 37.7812 19.875 37.6641 20.0469C37.6562 20.0625 37.6406 20.0781 37.6328 20.0938C37.6172 20.1172 37.6016 20.1406 37.5859 20.1719C37.5 20.3125 37.4141 20.4531 37.3281 20.6016C37.3125 20.625 37.2969 20.6484 37.2891 20.6719C37.2812 20.6797 37.2812 20.6875 37.2734 20.6953C37.1797 20.8594 37.0859 21.0234 36.9922 21.1953C36.9844 21.2109 36.9766 21.2188 36.9688 21.2344C36.9531 21.2656 36.9375 21.2891 36.9297 21.3203C36.8594 21.4531 36.7891 21.5859 36.7266 21.7266C36.7109 21.7578 36.6953 21.7813 36.6875 21.8125C36.6797 21.8281 36.6719 21.8438 36.6641 21.8672C36.5859 22.0391 36.5 22.2109 36.4297 22.3828C36.4297 22.3906 36.4219 22.3906 36.4219 22.3984C36.4141 22.4141 36.4062 22.4375 36.3984 22.4531C36.3281 22.6094 36.2656 22.7656 36.2031 22.9219C36.1953 22.9453 36.1797 22.9688 36.1719 23C36.1641 23.0234 36.1563 23.0391 36.1484 23.0625C36.0781 23.25 36.0078 23.4375 35.9453 23.625V23.6328C35.9062 23.7578 35.8672 23.8828 35.8281 24C35.8203 24.0313 35.8047 24.0703 35.7969 24.1016C35.7734 24.1719 35.7578 24.2422 35.7344 24.3125C35.7266 24.3359 35.7266 24.3594 35.7188 24.3828C35.7031 24.4375 35.6875 24.5 35.6719 24.5547C35.6484 24.6328 35.6328 24.7109 35.6172 24.7891C35.6016 24.8516 35.5937 24.9063 35.5781 24.9688C35.5703 25.0078 35.5625 25.0469 35.5469 25.0938C35.5391 25.125 35.5391 25.1484 35.5312 25.1797C35.5156 25.2656 35.5 25.3594 35.4844 25.4453C35.4766 25.5078 35.4609 25.5703 35.4531 25.625C35.4375 25.7188 35.4219 25.8047 35.4141 25.8984C35.4062 25.9375 35.3984 25.9844 35.3984 26.0234C35.3984 26.0391 35.3906 26.0625 35.3906 26.0781C35.3828 26.1172 35.3828 26.1641 35.375 26.2031L35.3516 26.4609C35.3438 26.5078 35.3437 26.5469 35.3437 26.5938C35.3359 26.6797 35.3359 26.7656 35.3281 26.8516C35.3281 26.8906 35.3203 26.9297 35.3203 26.9688C35.3125 27.0938 35.3125 27.2188 35.3125 27.3359C35.3203 29.4531 36.0703 30.9453 37.2734 31.6484L38.4297 32.3203C37.2187 31.6172 36.4766 30.125 36.4687 28.0078C36.4687 27.8828 36.4687 27.7656 36.4766 27.6406C36.4766 27.6016 36.4766 27.5625 36.4844 27.5234C36.4922 27.4375 36.4922 27.3516 36.5 27.2656C36.5 27.2188 36.5078 27.1797 36.5078 27.1328L36.5312 26.875C36.5391 26.8359 36.5391 26.7891 36.5469 26.75C36.5547 26.6875 36.5625 26.625 36.5703 26.5703C36.5859 26.4766 36.5937 26.3906 36.6094 26.2969C36.6172 26.2344 36.6328 26.1719 36.6406 26.1172C36.6562 26.0312 36.6719 25.9453 36.6875 25.8516L36.7344 25.6406C36.75 25.5781 36.7578 25.5234 36.7734 25.4609C36.7891 25.3828 36.8125 25.3047 36.8281 25.2266C36.8437 25.1719 36.8594 25.1094 36.875 25.0547C36.8984 24.9609 36.9297 24.8672 36.9531 24.7734C36.9609 24.7422 36.9766 24.7031 36.9844 24.6719C37.0234 24.5469 37.0625 24.4141 37.1094 24.2891C37.1719 24.1016 37.2422 23.9141 37.3125 23.7266C37.3281 23.6797 37.3516 23.6328 37.3672 23.5859C37.4297 23.4297 37.4922 23.2734 37.5625 23.1172C37.5703 23.0938 37.5781 23.0703 37.5938 23.0469L37.8281 22.5313C37.8516 22.4844 37.875 22.4453 37.8906 22.3984C37.9531 22.2656 38.0234 22.125 38.0937 21.9922C38.1172 21.9531 38.1328 21.9063 38.1562 21.8672C38.25 21.6953 38.3359 21.5313 38.4375 21.3672C38.4531 21.3359 38.4766 21.3047 38.4922 21.2734C38.5781 21.1328 38.6641 20.9844 38.75 20.8438C38.7734 20.8047 38.8047 20.7578 38.8281 20.7188C38.9375 20.5469 39.0547 20.375 39.1719 20.2109C39.1875 20.1875 39.2109 20.1641 39.2266 20.1328C39.3516 19.9609 39.4766 19.7891 39.6016 19.625C39.6172 19.6016 39.6406 19.5703 39.6562 19.5469C39.6953 19.4922 39.7344 19.4453 39.7813 19.3906C39.8359 19.3281 39.8828 19.2656 39.9375 19.2031C39.9766 19.1484 40.0234 19.1016 40.0625 19.0547C40.1094 18.9922 40.1641 18.9375 40.2109 18.8828C40.3125 18.7656 40.4219 18.6484 40.5312 18.5313C40.5391 18.5234 40.5391 18.5156 40.5469 18.5156C40.6562 18.3984 40.7734 18.2813 40.8906 18.1641C40.9609 18.0938 41.0391 18.0234 41.1094 17.9453C41.1328 17.9297 41.1484 17.9063 41.1719 17.8828C41.2734 17.7891 41.3672 17.7031 41.4687 17.6172C41.4922 17.5938 41.5234 17.5703 41.5469 17.5469C41.6172 17.4844 41.6953 17.4219 41.7656 17.3594C41.8047 17.3281 41.8438 17.2969 41.875 17.2656C41.9375 17.2109 42.0078 17.1641 42.0703 17.1094L42.1875 17.0156C42.25 16.9688 42.3203 16.9219 42.3828 16.875C42.4219 16.8438 42.4609 16.8203 42.5 16.7891C42.5703 16.7422 42.6406 16.6953 42.7187 16.6484C42.75 16.625 42.7891 16.6016 42.8203 16.5781C42.9297 16.5078 43.0313 16.4453 43.1406 16.3828C43.2422 16.3203 43.3516 16.2656 43.4531 16.2109C43.4766 16.1953 43.5078 16.1797 43.5313 16.1719C43.625 16.125 43.7109 16.0781 43.8047 16.0391C43.8125 16.0313 43.8281 16.0313 43.8359 16.0234C43.9297 15.9766 44.0234 15.9375 44.1172 15.8984C44.2188 15.8594 44.3125 15.8203 44.4141 15.7813L44.4844 15.7578C44.6094 15.7188 44.7266 15.6797 44.8438 15.6484C44.9141 15.6328 44.9844 15.6094 45.0547 15.5938C45.0859 15.5859 45.1172 15.5781 45.1562 15.5703C45.2578 15.5469 45.3594 15.5313 45.4609 15.5156H45.4688C45.5625 15.5 45.6484 15.4922 45.7422 15.4844C45.7734 15.4844 45.8047 15.4766 45.8281 15.4766C45.8906 15.4688 45.9609 15.4688 46.0234 15.4688H46.375C46.4609 15.4766 46.5469 15.4844 46.625 15.4922C46.6406 15.4922 46.6562 15.5 46.6797 15.5C46.75 15.5078 46.8125 15.5234 46.8828 15.5313C46.9062 15.5391 46.9297 15.5391 46.9531 15.5469C47.0312 15.5625 47.1016 15.5781 47.1797 15.6016H47.1953C47.2734 15.625 47.3516 15.6484 47.4219 15.6797C47.4453 15.6875 47.4609 15.6953 47.4844 15.7031C47.5469 15.7266 47.6016 15.75 47.6641 15.7813L47.7109 15.8047C47.7891 15.8438 47.8594 15.8828 47.9297 15.9219L46.7656 15.2578Z" fill="#C68620"/>
<path d="M43.1406 16.3985C46.8516 14.2578 49.875 15.9766 49.8906 20.2422C49.9063 24.5078 46.8985 29.711 43.1875 31.8516C39.4766 33.9922 36.4531 32.2735 36.4453 28.0078C36.4375 23.7422 39.4219 18.5469 43.1406 16.3985Z" fill="#FFCD2E"/>
<path d="M45.7109 19.8906L45.8594 20.2031C44.2891 22.8281 43 25.9922 42.6016 27.4609L40.2266 25.9766L40.8281 25.0547L42.2031 25.5312C42.75 24.4219 43.9922 22.1328 45.7109 19.8906Z" fill="#C68620"/>
<path d="M43.3125 25.9844C43.3203 25.9688 43.3281 25.9609 43.3359 25.9453C43.375 25.8672 43.4141 25.7969 43.4609 25.7109C43.4844 25.6641 43.5156 25.6094 43.5391 25.5625C43.5625 25.5156 43.5938 25.4687 43.6172 25.4141C43.6484 25.3594 43.6797 25.3047 43.7031 25.25C43.7344 25.1953 43.7578 25.1484 43.7891 25.0938C43.8203 25.0391 43.8516 24.9844 43.8828 24.9219L43.9766 24.7578C44.0078 24.7031 44.0469 24.6406 44.0781 24.5781C44.1094 24.5234 44.1406 24.4609 44.1797 24.4063C44.2031 24.3672 44.2188 24.3359 44.2422 24.2969L44.3828 24.0625C44.4063 24.0156 44.4375 23.9766 44.4609 23.9297C44.5078 23.8594 44.5469 23.7812 44.5938 23.7109C44.625 23.6641 44.6563 23.6172 44.6875 23.5625C44.7344 23.4922 44.7813 23.4141 44.8281 23.3438C44.8594 23.2969 44.8906 23.2422 44.9219 23.1953C44.9531 23.1406 44.9844 23.0938 45.0234 23.0391C45.1328 22.8672 45.2422 22.6953 45.3594 22.5234C45.375 22.5078 45.3828 22.4922 45.3906 22.4687C45.5156 22.2812 45.6406 22.0938 45.7734 21.9063C45.8125 21.8594 45.8438 21.8047 45.8828 21.7578C45.9609 21.6484 46.0391 21.5312 46.125 21.4219C46.1641 21.3672 46.1953 21.3203 46.2344 21.2656C46.3516 21.1016 46.4688 20.9453 46.5938 20.7812L45.75 20.2891C45.625 20.4531 45.5078 20.6094 45.3906 20.7734C45.3516 20.8281 45.3203 20.875 45.2813 20.9219C45.1953 21.0313 45.1172 21.1484 45.0391 21.2578C45.0156 21.2891 45 21.3125 44.9766 21.3438L44.9297 21.4141C44.7969 21.6016 44.6719 21.7891 44.5469 21.9766C44.5313 21.9922 44.5234 22.0078 44.5156 22.0312C44.3984 22.2031 44.2891 22.375 44.1797 22.5469L44.1328 22.6172C44.1172 22.6484 44.0938 22.6719 44.0781 22.7031C44.0469 22.7578 44.0156 22.8047 43.9844 22.8516C43.9375 22.9297 43.8906 23 43.8438 23.0703C43.8125 23.1172 43.7813 23.1719 43.75 23.2188C43.7031 23.2969 43.6563 23.3672 43.6172 23.4375C43.5938 23.4844 43.5625 23.5234 43.5391 23.5703L43.3984 23.8047C43.375 23.8438 43.3516 23.875 43.3359 23.9141C43.3281 23.9219 43.3281 23.9297 43.3203 23.9375C43.2891 23.9844 43.2656 24.0391 43.2344 24.0859C43.1953 24.1484 43.1641 24.2109 43.1328 24.2656L43.0391 24.4297C43.0078 24.4844 42.9766 24.5469 42.9453 24.6016C42.9141 24.6563 42.8906 24.7031 42.8594 24.7578C42.8281 24.8125 42.7969 24.8672 42.7734 24.9219C42.75 24.9687 42.7188 25.0156 42.6953 25.0625C42.6641 25.1172 42.6406 25.1641 42.6172 25.2109C42.6094 25.2188 42.6094 25.2266 42.6016 25.2344C42.5625 25.3047 42.5312 25.375 42.4922 25.4375C42.4844 25.4531 42.4766 25.4688 42.4688 25.4766L42.375 25.6641C42.3672 25.6797 42.3594 25.7031 42.3438 25.7188C42.3125 25.7891 42.2734 25.8516 42.2422 25.9141L40.8672 25.4375L40.2656 26.3594L41.1094 26.8516L41.7109 25.9297L43.0859 26.4062C43.1172 26.3437 43.1484 26.2812 43.1875 26.2109C43.1953 26.1953 43.2031 26.1719 43.2188 26.1562C43.25 26.1172 43.2812 26.0547 43.3125 25.9844Z" fill="#E8CFAC"/>
<path d="M43.4922 28.3594L42.6484 27.8672L40.2734 26.3828L41.1172 26.875L43.4922 28.3594Z" fill="#808080"/>
<path d="M46.6016 20.7891L46.75 21.1016C45.1797 23.7266 43.8906 26.8906 43.4922 28.3594L41.1172 26.875L41.7188 25.9531L43.0937 26.4297C43.6484 25.3125 44.8906 23.0234 46.6016 20.7891Z" fill="white"/>
</svg>
