<svg width="62" height="50" viewBox="0 0 62 50" fill="none" xmlns="http://www.w3.org/2000/svg">
<path d="M61.8048 28.9609C61.7189 29.8203 60.9298 30.25 60.2579 30.6406C59.6329 31 59.0079 31.3672 58.3907 31.7266C57.3907 32.3047 56.3985 32.8828 55.3985 33.4609C54.1485 34.1875 52.9064 34.9141 51.6564 35.6328C50.2814 36.4297 48.9064 37.2344 47.5235 38.0312C46.1407 38.8359 44.7579 39.6406 43.3673 40.4453C42.0939 41.1875 40.8282 41.9219 39.5548 42.6641C38.5157 43.2656 37.4845 43.8672 36.4454 44.4688C35.7657 44.8594 35.086 45.2578 34.4064 45.6484C33.8907 45.9453 33.4064 46.2422 32.8204 46.4141C31.297 46.8516 29.6095 46.7031 28.2345 45.9062C27.7423 45.6172 27.2423 45.3359 26.7501 45.0469C25.8439 44.5234 24.9454 44.0078 24.0392 43.4844C22.8517 42.7969 21.6642 42.1094 20.4767 41.4297C19.1251 40.6484 17.7657 39.8672 16.4142 39.0859C15.0157 38.2812 13.6173 37.4687 12.2189 36.6641C10.8985 35.8984 9.57823 35.1406 8.25011 34.375L4.87511 32.4297C4.07042 31.9609 3.25792 31.5 2.45323 31.0313C2.08605 30.8203 1.71886 30.6094 1.35167 30.3906C0.773546 30.0547 0.203234 29.5234 0.203234 28.8047C0.203234 29.4609 0.203234 30.1172 0.195421 30.7812C0.195421 31.0156 0.179796 31.2578 0.195421 31.5C0.242296 32.1328 0.742296 32.625 1.26573 32.9375C1.58605 33.1328 1.91417 33.3125 2.2423 33.5C3.08605 33.9844 3.9298 34.4766 4.77355 34.9609C5.9923 35.6641 7.20323 36.3672 8.42198 37.0703C9.8673 37.9062 11.3204 38.7422 12.7657 39.5781C14.2735 40.4531 15.7814 41.3203 17.297 42.1953C18.7345 43.0234 20.1642 43.8516 21.6017 44.6797C22.797 45.3672 23.9845 46.0547 25.1798 46.7422C25.9845 47.2109 26.797 47.6719 27.6017 48.1406C28.0704 48.4063 28.5314 48.7109 29.0392 48.8984C30.6251 49.4766 32.4845 49.3516 33.9454 48.5C34.5001 48.1797 35.0548 47.8516 35.6095 47.5313C36.6329 46.9375 37.6564 46.3437 38.672 45.75C40.0079 44.9766 41.336 44.2031 42.672 43.4219C44.1642 42.5547 45.6564 41.6875 47.1407 40.8203L51.6173 38.2188C52.9532 37.4375 54.2892 36.6641 55.6329 35.8828C56.672 35.2812 57.711 34.6797 58.7501 34.0703C59.3204 33.7344 59.8985 33.4062 60.4689 33.0703C60.6407 32.9687 60.8204 32.8672 60.9845 32.75C61.422 32.4219 61.7657 31.9688 61.7736 31.3984C61.7814 31.1094 61.7736 30.8281 61.7736 30.5391C61.7736 29.9688 61.7735 29.3906 61.7814 28.8203C61.8126 28.8828 61.8048 28.9219 61.8048 28.9609C61.8048 28.9453 61.797 28.9844 61.8048 28.9609Z" fill="#8FC1EF"/>
<path d="M60.6875 27.2812C62.1719 28.1406 62.1797 29.5391 60.7031 30.3984L33.8047 46.0312C32.3281 46.8906 29.9141 46.8906 28.4297 46.0312L1.33595 30.3984C-0.14842 29.5391 -0.156232 28.1406 1.32033 27.2812L28.2266 11.6406C29.7031 10.7812 32.1172 10.7812 33.6016 11.6406L60.6875 27.2812Z" fill="#E4ECF9"/>
<path d="M41.9297 8.65625L40.7734 7.98438C40.7812 7.98438 40.7969 7.99219 40.8047 8L41.9609 8.67187C41.9531 8.66406 41.9375 8.66406 41.9297 8.65625Z" fill="#444444"/>
<path d="M41.9609 8.67188L40.8047 8C40.8281 8.00781 40.8516 8.02344 40.875 8.03125L42.0313 8.70312C42.0078 8.69531 41.9844 8.67969 41.9609 8.67188Z" fill="#424242"/>
<path d="M42.0312 8.70313L40.875 8.03125C40.875 8.03125 40.8828 8.03125 40.8828 8.03906L42.0312 8.70313Z" fill="#404040"/>
<path d="M35.8594 6.47656L34.7031 5.80469L40.7734 7.98438L41.9297 8.65625L35.8594 6.47656ZM18.0625 34.1406L18.0312 22.3516L16.875 21.6797L16.9062 33.4688C16.9062 34.0234 17.1484 34.4453 17.5156 34.6563L18.6719 35.3281C18.3125 35.1172 18.0703 34.7031 18.0625 34.1406Z" fill="#3B94E5"/>
<path d="M27.7733 4.0234C28.0702 3.85153 28.3749 3.78903 28.6171 3.88278L33.3046 5.56247L33.2968 3.44528C33.2968 2.85934 33.7108 2.13278 34.2264 1.8359L34.9843 1.3984C35.4999 1.10153 35.9139 1.34371 35.9218 1.92965L35.9296 6.00778C35.9296 6.15621 35.9061 6.31247 35.8514 6.47653L41.9218 8.65621C42.4921 8.85934 42.5858 9.78122 42.1171 10.7109C41.8514 11.2343 41.4686 11.6484 41.078 11.875C40.7811 12.0468 40.4843 12.1093 40.2343 12.0156L37.578 11.0625L37.6093 22.8515C37.6093 23.9765 36.6405 25.664 35.664 26.2265L20.0311 35.2578C19.0546 35.8203 18.0702 35.2656 18.0702 34.1406L18.0311 22.3515L15.3905 26.3672C15.1405 26.7422 14.8436 27.0312 14.5468 27.2031C14.1561 27.4297 13.7733 27.4531 13.5077 27.2343C13.039 26.8437 13.1249 25.8281 13.6952 24.9609L26.9296 4.85934C27.1718 4.48434 27.4765 4.19528 27.7733 4.0234Z" fill="#267FD0"/>
<path d="M34.4922 0.664063C34.4688 0.65625 34.4531 0.648438 34.4375 0.640625H34.4297C34.4219 0.640625 34.4219 0.640626 34.4141 0.632813C34.4063 0.632813 34.3984 0.625 34.3906 0.625C34.3828 0.625 34.375 0.617187 34.3672 0.617187C34.3594 0.617187 34.3594 0.617188 34.3516 0.609375H34.3438C34.3281 0.609375 34.3047 0.601562 34.2891 0.601562H34.1563C34.1484 0.601562 34.1406 0.601563 34.1328 0.609375C34.1172 0.609375 34.1094 0.617187 34.0938 0.617187C34.0859 0.617187 34.0781 0.617188 34.0703 0.625C34.0625 0.625 34.0547 0.632813 34.0469 0.632813C34.0234 0.640626 34 0.648437 33.9844 0.65625C33.9766 0.65625 33.9688 0.664063 33.9609 0.664063C33.9531 0.664063 33.9531 0.671876 33.9453 0.671876C33.9063 0.687501 33.8672 0.703125 33.8281 0.726563L33.0703 1.16406L32.9297 1.25781C32.9219 1.26563 32.9141 1.27344 32.9063 1.27344C32.8594 1.3125 32.8203 1.34375 32.7734 1.39063L32.7656 1.39844L32.7422 1.42188C32.7188 1.44531 32.7031 1.46875 32.6797 1.48438L32.6563 1.50781C32.6484 1.51563 32.6484 1.52344 32.6406 1.53125C32.625 1.54688 32.6172 1.5625 32.6016 1.57812C32.5938 1.58594 32.5859 1.59375 32.5781 1.60938C32.5703 1.61719 32.5625 1.625 32.5625 1.63281C32.5547 1.64062 32.5469 1.65625 32.5391 1.67187C32.5313 1.67969 32.5234 1.6875 32.5234 1.69531C32.5156 1.71094 32.5078 1.72656 32.4922 1.74219C32.4844 1.75 32.4766 1.75781 32.4766 1.76563L32.4688 1.77344C32.4531 1.79688 32.4375 1.82812 32.4219 1.85156V1.85938C32.4219 1.86719 32.4141 1.86719 32.4141 1.875C32.4062 1.89063 32.3906 1.91406 32.3828 1.92969C32.375 1.9375 32.375 1.94531 32.3672 1.95313C32.3594 1.96094 32.3594 1.96875 32.3516 1.98437C32.3438 1.99219 32.3438 2 32.3359 2.00781C32.3281 2.03125 32.3203 2.04688 32.3047 2.07031C32.3047 2.07813 32.2969 2.07812 32.2969 2.08594V2.09375C32.2812 2.125 32.2734 2.14844 32.2656 2.17969C32.2656 2.1875 32.2656 2.1875 32.2578 2.19531C32.2578 2.20313 32.25 2.21875 32.25 2.22656C32.2422 2.24219 32.2422 2.25781 32.2344 2.27344C32.2344 2.28125 32.2266 2.29688 32.2266 2.30469C32.2188 2.32031 32.2188 2.32813 32.2109 2.34375C32.2109 2.35156 32.2031 2.35938 32.2031 2.36719C32.2031 2.38281 32.1953 2.39844 32.1953 2.40625C32.1875 2.42188 32.1875 2.4375 32.1875 2.45312C32.1875 2.46094 32.1875 2.46875 32.1797 2.46875C32.1797 2.47656 32.1797 2.49219 32.1719 2.5C32.1641 2.52344 32.1641 2.54687 32.1562 2.57031V2.60937C32.1484 2.66406 32.1484 2.71875 32.1484 2.77344L32.1562 4.89063L27.4688 3.21094C27.4531 3.20313 27.4453 3.20312 27.4297 3.19531C27.4141 3.19531 27.4062 3.1875 27.3906 3.1875C27.3828 3.1875 27.375 3.17969 27.3672 3.17969H27.3594C27.3359 3.17188 27.3125 3.17188 27.2812 3.17188H27.1875H27.1797C27.1641 3.17188 27.1484 3.17188 27.1406 3.17969C27.125 3.17969 27.1094 3.17969 27.0938 3.1875H27.0859C27.0625 3.19531 27.0391 3.19531 27.0078 3.20313C27 3.20313 26.9844 3.21094 26.9766 3.21094H26.9688L26.8281 3.25781C26.8203 3.25781 26.8203 3.25781 26.8125 3.26563C26.8047 3.26563 26.7969 3.27344 26.7969 3.27344C26.7422 3.29687 26.6797 3.32813 26.625 3.35938C26.5859 3.38281 26.5469 3.40625 26.5156 3.42969C26.5078 3.4375 26.4922 3.44531 26.4844 3.45312C26.4609 3.46875 26.4297 3.49219 26.4063 3.50781C26.3906 3.51562 26.375 3.53125 26.3594 3.54687C26.3359 3.5625 26.3125 3.58594 26.2891 3.60156L26.2422 3.64844C26.2188 3.66406 26.2031 3.6875 26.1797 3.70312C26.1797 3.70312 26.1719 3.71094 26.1719 3.71875C26.1328 3.75781 26.0938 3.79688 26.0547 3.84375C26.0469 3.85156 26.0469 3.85937 26.0391 3.85937C26.0313 3.86719 26.0234 3.88281 26.0156 3.89063C26 3.91406 25.9766 3.9375 25.9609 3.96094C25.9531 3.96875 25.9453 3.97656 25.9375 3.99219C25.9297 4 25.9219 4.01563 25.9141 4.03125C25.8984 4.04688 25.8906 4.07031 25.875 4.08594C25.8672 4.09375 25.8594 4.10156 25.8516 4.11719C25.8359 4.14062 25.8125 4.17188 25.7969 4.19531L12.5313 24.2891C12.5234 24.3047 12.5156 24.3125 12.5078 24.3281L12.4375 24.4453C12.4375 24.4453 12.4375 24.4531 12.4297 24.4531C12.4219 24.4609 12.4219 24.4687 12.4141 24.4766C12.3984 24.5078 12.3828 24.5312 12.3672 24.5625L12.3438 24.6094C12.3359 24.625 12.3281 24.6328 12.3281 24.6484C12.3203 24.6562 12.3203 24.6641 12.3125 24.6797C12.2969 24.7188 12.2734 24.7578 12.2578 24.7969V24.8047C12.2578 24.8125 12.25 24.8125 12.25 24.8203C12.2344 24.8516 12.2188 24.8828 12.2109 24.9219C12.2031 24.9297 12.2031 24.9453 12.1953 24.9531C12.1875 24.9688 12.1875 24.9844 12.1797 25C12.1719 25.0156 12.1719 25.0312 12.1641 25.0469C12.1563 25.0703 12.1484 25.0859 12.1484 25.1094C12.1406 25.125 12.1406 25.1406 12.1328 25.1641C12.1328 25.1719 12.125 25.1797 12.125 25.1875C12.1172 25.2109 12.1172 25.2344 12.1094 25.2578C12.1016 25.2812 12.1016 25.3047 12.0938 25.3281V25.3438C12.0938 25.3594 12.0859 25.375 12.0859 25.3906C12.0781 25.4297 12.0703 25.4687 12.0625 25.5156C12.0625 25.5234 12.0625 25.5312 12.0547 25.5391C12.0547 25.5547 12.0547 25.5703 12.0469 25.5859C12.0469 25.6172 12.0391 25.6484 12.0391 25.6797V25.9062C12.0391 25.9375 12.0469 25.9609 12.0469 25.9844C12.0469 26.0078 12.0547 26.0234 12.0547 26.0469C12.0625 26.0703 12.0625 26.1016 12.0703 26.125C12.0781 26.1484 12.0781 26.1641 12.0859 26.1797L12.1094 26.25C12.1172 26.2656 12.125 26.2891 12.125 26.3047C12.1328 26.3281 12.1484 26.3516 12.1562 26.375L12.1797 26.4219C12.1953 26.4453 12.2109 26.4687 12.2266 26.4844C12.2344 26.4922 12.2422 26.5078 12.25 26.5156C12.2734 26.5469 12.3047 26.5781 12.3359 26.6016C12.3672 26.625 12.3906 26.6484 12.4219 26.6641L13.5781 27.3359C13.5469 27.3203 13.5156 27.2969 13.4922 27.2734C13.4609 27.25 13.4375 27.2188 13.4062 27.1875C13.3984 27.1797 13.3906 27.1641 13.3828 27.1562C13.3672 27.1328 13.3516 27.1172 13.3359 27.0937L13.3125 27.0469C13.3047 27.0234 13.2891 27 13.2813 26.9766C13.2734 26.9609 13.2656 26.9453 13.2656 26.9219L13.2422 26.8516C13.2344 26.8359 13.2344 26.8125 13.2266 26.7969C13.2188 26.7734 13.2188 26.75 13.2109 26.7188C13.2109 26.6953 13.2031 26.6797 13.2031 26.6562C13.2031 26.6328 13.1953 26.6016 13.1953 26.5781V26.5078V26.4219V26.3516C13.1953 26.3203 13.2031 26.2891 13.2031 26.2578C13.2031 26.2344 13.2109 26.2109 13.2109 26.1875C13.2188 26.1484 13.2266 26.1094 13.2344 26.0625C13.2344 26.0469 13.2422 26.0234 13.2422 26.0078C13.25 25.9844 13.25 25.9609 13.2578 25.9375L13.2813 25.8437C13.2891 25.8281 13.2891 25.8125 13.2969 25.7891C13.3047 25.75 13.3203 25.7188 13.3281 25.6797C13.3359 25.6641 13.3359 25.6484 13.3438 25.6328C13.3594 25.5859 13.375 25.5469 13.3984 25.5C13.3984 25.4922 13.4062 25.4922 13.4062 25.4844C13.4297 25.4375 13.4531 25.3828 13.4766 25.3359C13.4844 25.3203 13.4922 25.3125 13.4922 25.2969C13.5156 25.25 13.5391 25.2109 13.5625 25.1641C13.5703 25.1562 13.5703 25.1484 13.5703 25.1406C13.6016 25.0859 13.6328 25.0312 13.6719 24.9844L26.9063 4.88281C26.9297 4.84375 26.9531 4.8125 26.9844 4.77344C27 4.75781 27.0078 4.73438 27.0234 4.71875C27.0391 4.69531 27.0547 4.67188 27.0703 4.65625C27.0859 4.63281 27.1094 4.60938 27.125 4.58594C27.1406 4.57031 27.1563 4.55469 27.1719 4.53125C27.2109 4.48438 27.25 4.44531 27.2891 4.40625L27.3047 4.39062C27.3281 4.36719 27.3438 4.35156 27.3672 4.33594L27.4141 4.28906C27.4375 4.27344 27.4609 4.25 27.4766 4.23438C27.4922 4.21875 27.5078 4.21094 27.5234 4.19531C27.5469 4.17969 27.5703 4.15625 27.6016 4.14063C27.6172 4.13281 27.625 4.125 27.6406 4.11719C27.6797 4.09375 27.7188 4.07031 27.75 4.04688C27.8047 4.01563 27.8672 3.98438 27.9219 3.96094C27.9297 3.95312 27.9453 3.95313 27.9531 3.94531L28.0938 3.89844C28.1094 3.89844 28.1172 3.89063 28.1328 3.89063C28.1562 3.88281 28.1797 3.875 28.2109 3.875C28.2344 3.875 28.25 3.86719 28.2734 3.86719C28.2891 3.86719 28.3047 3.86719 28.3125 3.85937H28.4141C28.4453 3.85937 28.4688 3.86719 28.5 3.86719C28.5078 3.86719 28.5156 3.875 28.5234 3.875C28.5469 3.88281 28.5781 3.89062 28.6016 3.89844L33.2891 5.57812L33.2813 3.46094C33.2813 3.40625 33.2891 3.35156 33.2891 3.29688C33.2891 3.28125 33.2891 3.27344 33.2969 3.25781C33.2969 3.23438 33.3047 3.21094 33.3125 3.1875C33.3125 3.17188 33.3203 3.15625 33.3203 3.13281C33.3203 3.11719 33.3281 3.10156 33.3281 3.08594C33.3359 3.0625 33.3359 3.03906 33.3438 3.01563C33.3438 3 33.3516 2.99219 33.3594 2.97656C33.3672 2.95313 33.375 2.92969 33.3828 2.89844C33.3828 2.89063 33.3906 2.875 33.3906 2.86719C33.4062 2.83594 33.4141 2.79687 33.4297 2.76562C33.4297 2.75781 33.4375 2.75781 33.4375 2.75C33.4531 2.71875 33.4609 2.6875 33.4766 2.66406C33.4844 2.65625 33.4844 2.64844 33.4922 2.63281C33.5078 2.60156 33.5234 2.57813 33.5391 2.54688C33.5391 2.53906 33.5469 2.53906 33.5469 2.53125C33.5625 2.5 33.5859 2.46875 33.6094 2.4375C33.6172 2.42969 33.625 2.42187 33.625 2.41406L33.6719 2.34375C33.6797 2.32813 33.6875 2.32031 33.6953 2.30469C33.7109 2.28906 33.7266 2.26563 33.7344 2.25C33.75 2.23438 33.7578 2.21875 33.7734 2.20312C33.7813 2.1875 33.7969 2.17969 33.8125 2.16406C33.8359 2.14062 33.8516 2.11719 33.875 2.10156L33.9063 2.07031C33.9453 2.03125 33.9922 1.99219 34.0391 1.95313C34.0469 1.94531 34.0547 1.9375 34.0625 1.9375C34.1094 1.89844 34.1562 1.86719 34.2031 1.84375L34.9609 1.40625C35 1.38281 35.0391 1.36719 35.0781 1.35156C35.0938 1.34375 35.1016 1.34375 35.1172 1.33594C35.1406 1.32813 35.1641 1.32031 35.1797 1.3125C35.1953 1.30469 35.2109 1.30469 35.2188 1.30469C35.2344 1.30469 35.2422 1.29688 35.2578 1.29688C35.2734 1.29688 35.2891 1.28906 35.3047 1.28906H35.4141C35.4375 1.28906 35.4609 1.29688 35.4844 1.29688C35.4922 1.29688 35.4922 1.29688 35.5 1.30469C35.5156 1.3125 35.5312 1.3125 35.5547 1.32031C35.5625 1.32031 35.5625 1.32031 35.5703 1.32813C35.5938 1.33594 35.6094 1.34375 35.6328 1.35937L34.4922 0.664063Z" fill="#3B94E5"/>
<path d="M28.2266 18.7656C29.3047 18.1406 30.1875 18.6406 30.1875 19.8828L30.2109 27.4219L24.3437 30.8125L24.3203 23.2734C24.3203 22.0312 25.1875 20.5234 26.2656 19.8984L28.2266 18.7656Z" fill="#267FD0" fill-opacity="0.5"/>
<path d="M29.9297 19.7969C29.9844 19.7734 30.0469 19.75 30.1016 19.7266H30.1094C30.1562 19.7109 30.2031 19.6953 30.25 19.6875C30.2734 19.6797 30.3047 19.6719 30.3281 19.6719C30.3594 19.6641 30.3984 19.6562 30.4297 19.6562C30.4531 19.6562 30.4687 19.6484 30.4844 19.6484H30.6406C30.6875 19.6484 30.7422 19.6563 30.7891 19.6641C30.7969 19.6641 30.8125 19.6719 30.8203 19.6719C30.8594 19.6797 30.8906 19.6875 30.9297 19.7031C30.9375 19.7031 30.9531 19.7109 30.9609 19.7109C31.0078 19.7266 31.0469 19.75 31.0859 19.7734L30.2422 19.2812L30.2344 19.2734C30.2031 19.2578 30.1719 19.2422 30.1328 19.2266C30.125 19.2266 30.1172 19.2187 30.1172 19.2187C30.1094 19.2109 30.0937 19.2109 30.0859 19.2109C30.0703 19.2031 30.0547 19.1953 30.0312 19.1953C30.0156 19.1875 29.9922 19.1875 29.9766 19.1797C29.9687 19.1797 29.9531 19.1719 29.9453 19.1719C29.9375 19.1719 29.9297 19.1719 29.9297 19.1641C29.8906 19.1562 29.8516 19.1562 29.8125 19.1484H29.6484C29.6328 19.1484 29.6094 19.1484 29.5859 19.1563C29.5703 19.1563 29.5469 19.1562 29.5312 19.1641C29.5156 19.1641 29.5 19.1719 29.4844 19.1719C29.4609 19.1797 29.4297 19.1797 29.4062 19.1875C29.3906 19.1875 29.375 19.1953 29.3594 19.1953C29.3281 19.2031 29.2969 19.2109 29.2578 19.2266H29.25L29.1328 19.2734L29.0859 19.2969L29.0391 19.3203C28.9766 19.3516 28.9219 19.375 28.8594 19.4141L26.9062 20.5469L26.7188 20.6641C26.6953 20.6797 26.6797 20.6953 26.6562 20.7031C26.6172 20.7344 26.5703 20.7656 26.5312 20.7969C26.5078 20.8125 26.4844 20.8359 26.4609 20.8516C26.4219 20.8828 26.3828 20.9141 26.3516 20.9453C26.3281 20.9688 26.3047 20.9844 26.2891 21.0078C26.2734 21.0234 26.2578 21.0312 26.25 21.0469C26.2344 21.0625 26.2188 21.0781 26.2109 21.0937C26.1641 21.1406 26.125 21.1875 26.0781 21.2344C26.0625 21.25 26.0469 21.2656 26.0391 21.2812C26.0312 21.2969 26.0156 21.3047 26.0078 21.3203C25.9844 21.3516 25.9609 21.3828 25.9297 21.4141C25.9141 21.4375 25.8984 21.4531 25.8828 21.4766C25.8672 21.4922 25.8594 21.5078 25.8437 21.5312C25.8281 21.5547 25.8047 21.5781 25.7891 21.6016C25.7734 21.6172 25.7656 21.6328 25.75 21.6563C25.7266 21.6875 25.7109 21.7187 25.6875 21.7422C25.6719 21.7578 25.6641 21.7812 25.6484 21.7969C25.6406 21.8047 25.6406 21.8125 25.6328 21.8203C25.6016 21.875 25.5625 21.9297 25.5312 21.9844L25.5234 21.9922C25.5156 22 25.5078 22.0156 25.5078 22.0234L25.4375 22.1406C25.4297 22.1562 25.4219 22.1797 25.4062 22.1953C25.3984 22.2109 25.3828 22.2344 25.375 22.2578C25.3672 22.2734 25.3594 22.2891 25.3516 22.3125C25.3281 22.3594 25.3125 22.4062 25.2891 22.4531C25.2891 22.4609 25.2812 22.4688 25.2812 22.4766V22.4844C25.2578 22.5391 25.2344 22.6016 25.2109 22.6562C25.2031 22.6641 25.2031 22.6797 25.2031 22.6875C25.1953 22.7109 25.1875 22.7266 25.1797 22.75C25.1719 22.7813 25.1562 22.8047 25.1484 22.8359L25.125 22.9063C25.1172 22.9297 25.1094 22.9609 25.1016 22.9844C25.0937 23 25.0937 23.0156 25.0859 23.0312C25.0781 23.0625 25.0703 23.0937 25.0625 23.1172C25.0547 23.1484 25.0469 23.1875 25.0391 23.2188C25.0391 23.2266 25.0312 23.2422 25.0312 23.25C25.0234 23.2734 25.0234 23.2969 25.0156 23.3203C25.0078 23.375 25 23.4219 24.9922 23.4766C24.9922 23.4922 24.9844 23.5078 24.9844 23.5234C24.9766 23.5547 24.9766 23.5859 24.9766 23.6172C24.9766 23.6406 24.9687 23.6641 24.9687 23.6875C24.9609 23.7578 24.9609 23.8359 24.9609 23.9062L24.9844 31.4453L25.8281 31.9375L25.8047 24.3984C25.8047 24.3281 25.8047 24.2578 25.8125 24.1797C25.8125 24.1562 25.8203 24.1328 25.8203 24.1094C25.8281 24.0625 25.8281 24.0156 25.8359 23.9687C25.8437 23.9141 25.8516 23.8672 25.8594 23.8125C25.8672 23.7734 25.875 23.7422 25.8828 23.7031C25.8906 23.6719 25.8984 23.6328 25.9062 23.6016C25.9219 23.5547 25.9297 23.5078 25.9453 23.4609C25.9531 23.4375 25.9609 23.4062 25.9687 23.3828C25.9844 23.3281 26 23.2812 26.0234 23.2266C26.0312 23.2031 26.0391 23.1797 26.0469 23.1641C26.0703 23.0937 26.1016 23.0234 26.1328 22.9531C26.1328 22.9453 26.1406 22.9375 26.1406 22.9297C26.1719 22.8672 26.1953 22.8047 26.2266 22.7422C26.2344 22.7188 26.25 22.7031 26.2578 22.6797C26.2891 22.6172 26.3203 22.5625 26.3516 22.5C26.3594 22.4922 26.3672 22.4766 26.3672 22.4688C26.4062 22.3984 26.4453 22.3359 26.4922 22.2656C26.5078 22.25 26.5156 22.2266 26.5312 22.2109L26.625 22.0703C26.6406 22.0469 26.6641 22.0234 26.6797 22C26.7109 21.9609 26.7344 21.9219 26.7656 21.8906C26.7891 21.8594 26.8125 21.8281 26.8437 21.7969C26.8672 21.7656 26.8906 21.7422 26.9219 21.7109C26.9609 21.6641 27.0078 21.6172 27.0547 21.5703L27.1406 21.4844C27.1641 21.4609 27.1875 21.4453 27.2031 21.4219C27.2422 21.3906 27.2734 21.3594 27.3125 21.3281C27.3359 21.3125 27.3594 21.2891 27.3828 21.2734C27.4219 21.2422 27.4609 21.2109 27.5078 21.1797C27.5312 21.1641 27.5469 21.1484 27.5703 21.1406C27.6328 21.1016 27.6953 21.0547 27.7578 21.0234L29.7109 19.8906C29.7734 19.8594 29.8281 19.8281 29.8906 19.7969C29.8984 19.8125 29.9141 19.8047 29.9297 19.7969Z" fill="#ACC5EA"/>
<path d="M29.7031 19.9062C30.7812 19.2812 31.6641 19.7812 31.6641 21.0234L31.6875 28.5625L25.8203 31.9531L25.7969 24.414C25.7969 23.1719 26.6641 21.664 27.7422 21.039L29.7031 19.9062Z" fill="white"/>
<path d="M44.9687 27.3203L43.7266 26.5938L46.6328 28.25L47.875 28.9687L44.9687 27.3203Z" fill="#9E7F1D"/>
<path d="M36.4688 32.6172C36.4454 32.5938 36.4219 32.5781 36.3985 32.5547L36.2813 32.4375L36.2188 32.375L36.1016 32.2344C36.086 32.2187 36.0704 32.1953 36.0547 32.1797C36.0079 32.1094 35.9532 32.0469 35.9141 31.9688C35.9063 31.9531 35.8985 31.9453 35.8907 31.9297C35.8516 31.8672 35.8204 31.8047 35.7891 31.7422C35.7735 31.7187 35.7657 31.6875 35.7501 31.6641L35.6797 31.5C35.6641 31.4688 35.6563 31.4375 35.6407 31.4062C35.6172 31.3516 35.6016 31.2969 35.5782 31.2344C35.5704 31.2031 35.5547 31.1719 35.5469 31.1406C35.5235 31.0703 35.5079 31 35.4844 30.9297C35.4766 30.9063 35.4766 30.8906 35.4688 30.8672C35.4454 30.7734 35.4219 30.6797 35.4063 30.5859C35.3985 30.5625 35.3985 30.5391 35.3907 30.5078C35.3751 30.4375 35.3672 30.3594 35.3594 30.2891C35.3516 30.25 35.3516 30.2187 35.3438 30.1797C35.336 30.1094 35.3282 30.0469 35.3282 29.9766C35.3282 29.9375 35.3204 29.8984 35.3204 29.8594C35.3126 29.7891 35.3126 29.7188 35.3126 29.6406V29.5312V29.2422V29.2031C35.3204 29.0937 35.3204 28.9766 35.336 28.8672C35.336 28.8359 35.3438 28.7969 35.3438 28.7656C35.3516 28.6875 35.3594 28.6016 35.3672 28.5234C35.3751 28.4766 35.3751 28.4375 35.3829 28.3906C35.3907 28.3203 35.4063 28.25 35.4141 28.1797C35.4219 28.1328 35.4297 28.0938 35.4376 28.0469C35.4532 27.9766 35.4688 27.8984 35.4766 27.8203C35.4844 27.7734 35.4922 27.7344 35.5079 27.6875C35.5157 27.6406 35.5313 27.5938 35.5391 27.5547C35.5547 27.4922 35.5704 27.4375 35.5782 27.375C35.5938 27.3281 35.6016 27.2812 35.6172 27.2344C35.6329 27.1875 35.6407 27.1328 35.6563 27.0859L35.7969 26.6172C35.8047 26.5859 35.8204 26.5547 35.8282 26.5234C35.8672 26.3984 35.9141 26.2812 35.961 26.1562C35.9766 26.125 35.9844 26.0859 36.0001 26.0547C36.0547 25.9141 36.1094 25.7813 36.1719 25.6406C36.1797 25.6172 36.1954 25.5937 36.2032 25.5703C36.2501 25.4609 36.3047 25.3438 36.3594 25.2344C36.3829 25.1953 36.3985 25.1484 36.4219 25.1094C36.4688 25.0078 36.5235 24.8984 36.5782 24.7969C36.5938 24.7656 36.6094 24.7266 36.6329 24.6953C36.6954 24.5703 36.7657 24.4453 36.836 24.3281C36.8594 24.2891 36.8829 24.25 36.9063 24.2188C36.9688 24.1094 37.0391 24 37.1016 23.8906C37.1251 23.8516 37.1485 23.8125 37.1719 23.7812C37.2579 23.6406 37.3516 23.5078 37.4454 23.375C37.5469 23.2344 37.6485 23.0937 37.7579 22.9531C37.7891 22.9141 37.8126 22.8828 37.8438 22.8437L37.9376 22.7266C37.9766 22.6797 38.0157 22.625 38.0626 22.5781C38.0938 22.5391 38.1251 22.5 38.1641 22.4609C38.2032 22.4219 38.2344 22.375 38.2735 22.3359C38.3282 22.2734 38.3907 22.2109 38.4454 22.1484C38.4766 22.1172 38.5079 22.0781 38.5391 22.0469C38.6016 21.9766 38.6719 21.9141 38.7344 21.8438L38.8047 21.7734L38.8829 21.6953C38.9297 21.6484 38.9844 21.6016 39.0313 21.5547C39.0626 21.5234 39.0938 21.5 39.1251 21.4687C39.1719 21.4297 39.2188 21.3828 39.2657 21.3438C39.2969 21.3125 39.3282 21.2891 39.3594 21.2578L39.5001 21.1406C39.5313 21.1172 39.5626 21.0859 39.6016 21.0625C39.6485 21.0234 39.6954 20.9922 39.7422 20.9531C39.7735 20.9297 39.8047 20.9062 39.8438 20.8828C39.8907 20.8437 39.9376 20.8125 39.9922 20.7812C40.0235 20.7578 40.0547 20.7344 40.086 20.7188C40.1407 20.6797 40.1954 20.6484 40.2501 20.6094C40.2735 20.5937 40.3047 20.5781 40.3282 20.5547C40.4063 20.5078 40.4844 20.4531 40.5704 20.4063C40.6797 20.3438 40.7891 20.2812 40.8985 20.2266C40.9297 20.2109 40.9532 20.1953 40.9844 20.1875C41.086 20.1406 41.1876 20.0859 41.2969 20.0469C41.3047 20.0469 41.3126 20.0391 41.3204 20.0391C41.4141 20 41.5079 19.9609 41.6016 19.9297C41.6329 19.9219 41.6563 19.9141 41.6876 19.9062C41.7579 19.8828 41.8204 19.8594 41.8907 19.8438C41.9297 19.8359 41.9688 19.8203 42.0079 19.8125C42.0469 19.8047 42.086 19.7969 42.1172 19.7891C42.1563 19.7812 42.2032 19.7734 42.2422 19.7656C42.2813 19.7578 42.3126 19.75 42.3516 19.7422C42.3985 19.7344 42.4532 19.7266 42.5001 19.7187C42.5235 19.7187 42.5469 19.7109 42.5704 19.7109C42.6407 19.7031 42.711 19.6953 42.7813 19.6953H43.0626C43.1016 19.6953 43.1407 19.7031 43.1797 19.7031C43.2657 19.7109 43.3438 19.7188 43.4219 19.7344C43.4376 19.7344 43.4454 19.7344 43.461 19.7422C43.5469 19.7578 43.6329 19.7812 43.7188 19.8047L43.7891 19.8281C43.8516 19.8516 43.9141 19.8672 43.9766 19.8906C44.0001 19.8984 44.0235 19.9141 44.0547 19.9219C44.1251 19.9531 44.1954 19.9844 44.2657 20.0234C44.2735 20.0312 44.2891 20.0312 44.2969 20.0391L43.0547 19.3203L43.0469 19.3125C43.0391 19.3047 43.0313 19.3047 43.0235 19.3047C42.9532 19.2656 42.8829 19.2344 42.8126 19.2031C42.8047 19.1953 42.7891 19.1953 42.7813 19.1875C42.7657 19.1797 42.7501 19.1797 42.7344 19.1719C42.6719 19.1484 42.6094 19.125 42.5469 19.1094C42.5313 19.1016 42.5157 19.1016 42.5001 19.0937C42.4922 19.0937 42.4844 19.0937 42.4766 19.0859C42.3907 19.0625 42.3047 19.0391 42.2188 19.0234H42.1797C42.1016 19.0078 42.0157 19 41.9376 18.9922C41.9219 18.9922 41.9141 18.9922 41.8985 18.9844H41.5469H41.5391C41.4688 18.9844 41.3985 18.9922 41.3282 19C41.3047 19 41.2813 19.0078 41.2579 19.0078C41.2266 19.0156 41.1876 19.0156 41.1563 19.0234C41.1407 19.0234 41.1251 19.0313 41.1094 19.0313C41.0704 19.0391 41.0391 19.0469 41.0001 19.0547C40.961 19.0625 40.9141 19.0703 40.8751 19.0781C40.836 19.0859 40.8047 19.0938 40.7657 19.1016C40.7422 19.1094 40.7188 19.1094 40.6954 19.1172C40.6797 19.125 40.6641 19.125 40.6485 19.1328C40.5782 19.1484 40.5157 19.1719 40.4454 19.1953C40.4141 19.2031 40.3907 19.2109 40.3594 19.2188C40.2657 19.25 40.1719 19.2891 40.0782 19.3281H40.0704C40.0626 19.3281 40.0547 19.3359 40.0547 19.3359C39.9532 19.375 39.8516 19.4297 39.7501 19.4766C39.7188 19.4922 39.6954 19.5078 39.6641 19.5156C39.5547 19.5703 39.4454 19.6328 39.336 19.6953C39.2579 19.7422 39.1797 19.7891 39.0938 19.8438C39.0704 19.8594 39.0391 19.875 39.0157 19.8984C38.961 19.9297 38.9063 19.9688 38.8516 20.0078C38.8204 20.0313 38.7891 20.0547 38.7579 20.0703C38.711 20.1016 38.6563 20.1406 38.6094 20.1719L38.5157 20.2422C38.4688 20.2813 38.4219 20.3125 38.3751 20.3516C38.3438 20.375 38.3126 20.4062 38.2735 20.4297L38.1329 20.5469C38.1016 20.5703 38.0704 20.6016 38.0391 20.6328C37.9922 20.6719 37.9454 20.7188 37.8985 20.7578C37.8672 20.7891 37.836 20.8125 37.8047 20.8437C37.7579 20.8906 37.7032 20.9375 37.6563 20.9844C37.6329 21.0078 37.6016 21.0313 37.5782 21.0625L37.5626 21.0781C37.5469 21.0937 37.5235 21.1172 37.5079 21.1406C37.4454 21.2031 37.3751 21.2734 37.3126 21.3438C37.2813 21.375 37.2501 21.4141 37.2188 21.4453C37.1641 21.5078 37.1016 21.5703 37.0469 21.6328C37.0313 21.6562 37.0079 21.6719 36.9922 21.6875C36.9766 21.7109 36.9532 21.7344 36.9376 21.75L36.8438 21.8672C36.8047 21.9141 36.7657 21.9687 36.7188 22.0156L36.6251 22.1328C36.6094 22.1562 36.5938 22.1719 36.5782 22.1953C36.5626 22.2109 36.5547 22.2266 36.5391 22.2422C36.4376 22.3828 36.3282 22.5156 36.2266 22.6641C36.1329 22.7969 36.0469 22.9297 35.961 23.0625C35.9532 23.0781 35.9376 23.0937 35.9297 23.1094C35.9141 23.1328 35.9063 23.1484 35.8907 23.1719C35.8204 23.2813 35.7579 23.3906 35.6954 23.5C35.6797 23.5234 35.6719 23.5391 35.6563 23.5625C35.6485 23.5781 35.6329 23.5938 35.6251 23.6094C35.5547 23.7344 35.4844 23.8516 35.4219 23.9766C35.4141 23.9844 35.4141 23.9922 35.4063 24.0078C35.3907 24.0312 35.3829 24.0547 35.3672 24.0781C35.3126 24.1797 35.2579 24.2891 35.211 24.3906C35.2032 24.4141 35.1876 24.4375 35.1797 24.4531C35.1719 24.4766 35.1641 24.4922 35.1485 24.5156C35.0938 24.625 35.0469 24.7422 34.9922 24.8516C34.9844 24.8672 34.9766 24.8906 34.9688 24.9062C34.9688 24.9141 34.961 24.9141 34.961 24.9219C34.8985 25.0625 34.8438 25.2031 34.7891 25.3359C34.7813 25.3516 34.7813 25.3594 34.7735 25.375C34.7657 25.3984 34.7579 25.4219 34.7501 25.4375C34.7032 25.5625 34.6563 25.6797 34.6172 25.8047C34.6094 25.8281 34.6016 25.8437 34.5938 25.8672C34.5938 25.875 34.586 25.8828 34.586 25.8906C34.5313 26.0469 34.4844 26.2031 34.4454 26.3594C34.4376 26.375 34.4376 26.3906 34.4297 26.3984C34.4219 26.4375 34.4141 26.4687 34.3985 26.5078C34.3829 26.5547 34.3751 26.6016 34.3594 26.6484C34.3438 26.7109 34.3282 26.7656 34.3204 26.8281C34.3126 26.875 34.2969 26.9219 34.2891 26.9688C34.2891 26.9844 34.2813 27 34.2813 27.0156C34.2735 27.0469 34.2735 27.0781 34.2657 27.1016C34.2501 27.1797 34.2344 27.25 34.2266 27.3281C34.2188 27.375 34.211 27.4141 34.2032 27.4609C34.1954 27.5312 34.1797 27.6016 34.1719 27.6719C34.1719 27.6953 34.1641 27.7266 34.1641 27.75C34.1641 27.7656 34.1641 27.7813 34.1563 27.8047C34.1485 27.8828 34.1407 27.9688 34.1329 28.0469C34.1329 28.0781 34.1251 28.1172 34.1251 28.1484C34.1172 28.2578 34.1094 28.375 34.1016 28.4844V28.5156C34.1016 28.6172 34.0938 28.7109 34.1016 28.8125V28.9141C34.1016 28.9844 34.1094 29.0625 34.1094 29.1328C34.1094 29.1719 34.1172 29.2109 34.1172 29.25C34.1251 29.3203 34.1251 29.3828 34.1329 29.4531C34.1407 29.4922 34.1407 29.5234 34.1485 29.5625C34.1563 29.6406 34.1719 29.7109 34.1797 29.7813C34.1876 29.8047 34.1876 29.8359 34.1954 29.8594C34.211 29.9531 34.2344 30.0469 34.2579 30.1406C34.2657 30.1641 34.2657 30.1797 34.2735 30.2031C34.2891 30.2734 34.3126 30.3437 34.336 30.4141C34.3438 30.4453 34.3594 30.4766 34.3672 30.5078C34.3907 30.5625 34.4063 30.625 34.4297 30.6797C34.4454 30.7109 34.4532 30.7422 34.4688 30.7734L34.5391 30.9375C34.5547 30.9609 34.5626 30.9922 34.5782 31.0156C34.6094 31.0781 34.6485 31.1406 34.6797 31.2031C34.6876 31.2188 34.6954 31.2266 34.7032 31.2422L34.8438 31.4531C34.8594 31.4687 34.8751 31.4922 34.8907 31.5078L35.0079 31.6484C35.0313 31.6719 35.0469 31.6953 35.0704 31.7109L35.1876 31.8281C35.211 31.8516 35.2344 31.8672 35.2579 31.8906C35.2969 31.9297 35.3438 31.9609 35.3907 32C35.4141 32.0156 35.4297 32.0313 35.4532 32.0469C35.5235 32.0938 35.586 32.1406 35.6641 32.1797L36.9063 32.8984C36.836 32.8594 36.7657 32.8125 36.6954 32.7656C36.6719 32.75 36.6563 32.7344 36.6329 32.7187C36.5626 32.6875 36.5157 32.6562 36.4688 32.6172Z" fill="#C68620"/>
<path d="M40.5703 20.4297C41.9141 19.6485 43.2656 19.461 44.2969 20.0547C46.1094 21.086 46.336 24.1719 44.9688 27.3203L47.875 28.9766C48.2735 29.2031 48.2735 29.9531 47.8828 30.6406C47.6875 30.9844 47.4219 31.25 47.1641 31.3985C46.9063 31.5469 46.6406 31.586 46.4375 31.4766L43.5313 29.8203C42.6485 31.0078 41.625 31.9453 40.6016 32.5313C39.2578 33.3125 37.9063 33.4922 36.875 32.9063C34.8125 31.7344 34.8047 27.8985 36.8516 24.3516C37.875 22.5781 39.2188 21.2031 40.5703 20.4297Z" fill="#FFCD2E"/>
<path d="M40.586 22.0938C41.586 21.5157 42.5938 21.375 43.3594 21.8125C44.8985 22.6875 44.9063 25.5391 43.375 28.1797C42.6094 29.5 41.6094 30.5235 40.6094 31.1016C39.6094 31.6797 38.6016 31.8204 37.836 31.3829C36.2969 30.5079 36.2891 27.6563 37.8203 25.0157C38.5781 23.6875 39.586 22.6719 40.586 22.0938Z" fill="white"/>
<path d="M41.0859 22.3359C41.2109 22.2656 41.3359 22.2421 41.4297 22.2968C41.625 22.4062 41.625 22.7656 41.4297 23.0937C41.3359 23.2578 41.2109 23.3906 41.0859 23.4609C40.9609 23.5312 40.8359 23.5546 40.7422 23.4999C40.5469 23.3906 40.5469 23.0312 40.7422 22.7031C40.8359 22.5312 40.9609 22.4062 41.0859 22.3359ZM41.4531 24.2421C41.5234 24.2031 41.6016 24.1874 41.6563 24.2187C41.7656 24.2812 41.7656 24.4921 41.6563 24.6796L40.9922 25.8281L41.6094 25.4765C41.7656 25.3828 41.8984 25.4609 41.8984 25.6406C41.8984 25.8203 41.7734 26.039 41.6172 26.1328L40.8828 26.5546V26.9921L41.6172 26.5703C41.7734 26.4765 41.9062 26.5546 41.9062 26.7343C41.9062 26.914 41.7812 27.1328 41.625 27.2265L40.8906 27.6484V28.2265C40.8906 28.4062 40.7656 28.6249 40.6094 28.7187C40.4531 28.8124 40.3281 28.7343 40.3281 28.5546V27.9765L39.5937 28.3984C39.4375 28.4921 39.3125 28.414 39.3047 28.2343C39.3047 28.0546 39.4297 27.8359 39.5859 27.7421L40.3203 27.3203V26.8828L39.5859 27.3046C39.4297 27.3984 39.3047 27.3203 39.2969 27.1406C39.2969 26.9609 39.4219 26.7421 39.5781 26.6484L40.1953 26.2968L39.5312 25.914C39.4219 25.8515 39.4219 25.6406 39.5312 25.4531C39.5859 25.3593 39.6562 25.2812 39.7344 25.2421C39.8047 25.2031 39.8828 25.1874 39.9375 25.2187L40.6016 25.5937L41.2656 24.4531C41.3125 24.3593 41.3828 24.2812 41.4531 24.2421Z" fill="#FFCD2E"/>
</svg>
