<svg width="199" height="84" viewBox="0 0 199 84" fill="none" xmlns="http://www.w3.org/2000/svg">
<path d="M52.9931 53.6141C50.5428 54.5986 50.2489 55.0057 51.1781 56.0692C52.3428 57.4118 52.0919 57.4164 61.1738 55.1366C71.2018 52.6001 71.2282 52.5937 69.589 51.1418C68.2054 49.9362 58.5231 51.353 52.9931 53.6141Z" fill="#267FD0"/>
<path d="M122.587 40.3166C121.104 39.975 120.946 40.0134 114.07 42.1519C111.568 42.9247 108.049 43.8876 106.237 44.2697C99.9747 45.5877 103.389 47.8984 109.986 46.8075C120.569 45.0609 127.516 41.4771 122.587 40.3166Z" fill="#267FD0"/>
<path d="M32.1795 61.9227C30.2967 62.938 29.3699 63.2741 29.0789 63.3444C28.5762 63.466 24.8259 57.5679 24.5061 56.2451C24.4933 56.1922 22.1688 52.0217 19.0269 60.4542C16.782 66.4576 15.6752 68.7134 11.871 74.8697C8.2875 80.6647 8.28026 80.7505 9.97205 81.3775C11.2687 81.8761 12.3863 81.6339 18.3361 79.7194C23.558 78.0368 26.5521 77.5649 32.573 77.5654C36.9431 77.5729 37.5929 77.2478 36.4235 75.6543C35.3847 74.2533 31.3255 67.3098 31.4459 67.1127C31.6866 66.7184 38.5402 63.2132 41.972 61.6554C45.8344 59.9095 42.0845 58.1838 40.1348 58.4592C38.3895 58.7691 35.9916 59.8529 32.1795 61.9227Z" fill="#267FD0"/>
<path d="M93.7495 46.3646C87.9258 46.4845 76.9067 48.2805 77.105 49.1007C77.5464 50.9262 78.9896 51.2213 84.0586 50.5279C94.5203 49.0906 95.9341 49.8409 96.4371 47.9831C96.6621 47.0606 95.4529 46.3448 93.7495 46.3646Z" fill="#267FD0"/>
<path d="M185.837 1.36165C181.717 4.01001 174.181 12.9168 175.356 13.7248C176.9 14.7798 180.278 12.4227 187.895 5.00859C191.274 1.72731 188.338 -0.22318 185.837 1.36165Z" fill="#267FD0"/>
<path d="M141.171 34.3672C139.78 34.9836 137.157 36.0658 135.31 36.7644C131.694 38.1425 131.482 38.3059 131.957 39.115C133.255 41.2377 149.419 36.6296 148.856 34.3014C148.344 32.1849 146 32.2195 141.171 34.3672Z" fill="#267FD0"/>
<path d="M166.598 18.5024C165.776 19.0374 159.958 24.3925 157.576 26.7045C156.013 28.2305 156.326 29.5269 158.814 28.8134C162.195 27.856 167.984 23.6559 169.642 21.0149C171.106 18.7288 168.124 17.5174 166.598 18.5024Z" fill="#267FD0"/>
</svg>
