<svg width="62" height="46" viewBox="0 0 62 46" fill="none" xmlns="http://www.w3.org/2000/svg">
<path d="M61.7657 25.0313C61.6798 25.8906 60.8907 26.3203 60.2189 26.7109C59.5939 27.0703 58.9689 27.4375 58.3517 27.7969C57.3517 28.375 56.3595 28.9531 55.3595 29.5312C54.1095 30.2578 52.8673 30.9844 51.6173 31.7031C50.2423 32.5 48.8673 33.3047 47.4845 34.1016C46.1017 34.9062 44.7189 35.7109 43.3282 36.5156C42.0548 37.2578 40.7892 37.9922 39.5157 38.7344C38.4767 39.3359 37.4454 39.9375 36.4064 40.5391C35.7267 40.9297 35.047 41.3281 34.3673 41.7188C33.8517 42.0156 33.3673 42.3125 32.7814 42.4844C31.2579 42.9219 29.5704 42.7734 28.1954 41.9766C27.7032 41.6875 27.2032 41.4063 26.711 41.1172C25.8048 40.5938 24.9064 40.0781 24.0001 39.5547C22.8126 38.8672 21.6251 38.1797 20.4376 37.5C19.086 36.7187 17.7267 35.9375 16.3751 35.1562C14.9767 34.3516 13.5782 33.5391 12.1798 32.7344C10.8595 31.9687 9.53917 31.2109 8.21105 30.4453L4.83605 28.5C4.03136 28.0313 3.21886 27.5703 2.41417 27.1016C2.04698 26.8906 1.6798 26.6797 1.31261 26.4609C0.734484 26.125 0.164171 25.5938 0.164171 24.875C0.164171 25.5313 0.164171 26.1875 0.156359 26.8516C0.156359 27.0859 0.140734 27.3281 0.156359 27.5703C0.203234 28.2031 0.703233 28.6953 1.22667 29.0078C1.54698 29.2031 1.87511 29.3828 2.20323 29.5703C3.04698 30.0547 3.89073 30.5469 4.73448 31.0312C5.95323 31.7344 7.16417 32.4375 8.38292 33.1406C9.82823 33.9766 11.2814 34.8125 12.7267 35.6484C14.2345 36.5234 15.7423 37.3906 17.2579 38.2656C18.6954 39.0938 20.1251 39.9219 21.5626 40.75C22.7579 41.4375 23.9454 42.125 25.1407 42.8125C25.9454 43.2812 26.7579 43.7422 27.5626 44.2109C28.0314 44.4766 28.4923 44.7813 29.0001 44.9688C30.586 45.5469 32.4454 45.4219 33.9064 44.5703C34.461 44.25 35.0157 43.9219 35.5704 43.6016C36.5939 43.0078 37.6173 42.4141 38.6329 41.8203C39.9689 41.0469 41.297 40.2734 42.6329 39.4922C44.1251 38.625 45.6173 37.7578 47.1017 36.8906L51.5782 34.2891C52.9142 33.5078 54.2501 32.7344 55.5939 31.9531C56.6329 31.3516 57.672 30.75 58.711 30.1406C59.2814 29.8047 59.8595 29.4766 60.4298 29.1406C60.6017 29.0391 60.7814 28.9375 60.9454 28.8203C61.3829 28.4922 61.7267 28.0391 61.7345 27.4688C61.7423 27.1797 61.7345 26.8984 61.7345 26.6094C61.7345 26.0391 61.7345 25.4609 61.7423 24.8906C61.7735 24.9453 61.7735 24.9922 61.7657 25.0313C61.7657 25.0469 61.7657 25.0156 61.7657 25.0313Z" fill="#8FC1EF"/>
<path d="M60.6563 23.3516C62.1406 24.2109 62.1485 25.6094 60.6719 26.4688L33.7656 42.1016C32.2891 42.9609 29.875 42.9609 28.3906 42.1016L1.3047 26.4609C-0.17967 25.6016 -0.187482 24.2031 1.28908 23.3438L28.1953 7.70312C29.6719 6.84375 32.086 6.84375 33.5703 7.70312L60.6563 23.3516Z" fill="#E4ECF9"/>
<path d="M27.5156 28.4219L26.3594 27.75C26.3359 27.7344 26.3125 27.7188 26.2891 27.6953L27.4453 28.3672C27.4687 28.3906 27.4922 28.4063 27.5156 28.4219Z" fill="#72ADE3"/>
<path d="M27.4453 28.3672L26.2891 27.6953L23.9297 25.2344L25.0859 25.9062L27.4453 28.3672ZM37.5156 1.17969C37.5391 1.17187 37.5625 1.16406 37.5938 1.15625C37.6094 1.14844 37.625 1.14844 37.6406 1.14062C37.6562 1.14062 37.6719 1.13281 37.6875 1.13281C37.7031 1.13281 37.7266 1.125 37.7422 1.125H37.8594C37.8828 1.125 37.9141 1.13281 37.9375 1.13281C37.9453 1.13281 37.9531 1.13281 37.9531 1.14062C37.9766 1.14844 37.9922 1.14844 38.0078 1.15625C38.0156 1.15625 38.0234 1.16406 38.0234 1.16406C38.0469 1.17188 38.0703 1.1875 38.0938 1.19531L36.9375 0.523438H36.9297C36.9141 0.515625 36.8984 0.507812 36.875 0.5H36.8672C36.8594 0.5 36.8516 0.492187 36.8516 0.492187C36.8438 0.492187 36.8359 0.484375 36.8203 0.484375C36.8125 0.484375 36.7969 0.476562 36.7891 0.476562C36.7812 0.476562 36.7734 0.476563 36.7734 0.46875H36.7656C36.7422 0.46875 36.7266 0.460938 36.7031 0.460938H36.5547C36.5469 0.460938 36.5391 0.460938 36.5312 0.46875C36.5156 0.46875 36.5 0.476562 36.4844 0.476562C36.4766 0.476562 36.4688 0.476563 36.4609 0.484375C36.4531 0.484375 36.4453 0.492187 36.4375 0.492187L36.3672 0.515625C36.3594 0.515625 36.3516 0.523438 36.3438 0.523438C36.3359 0.523438 36.3359 0.53125 36.3281 0.53125C36.2812 0.546875 36.2422 0.570312 36.1953 0.59375L17.5391 11.3516C17.4844 11.3828 17.4297 11.4219 17.375 11.4609C17.3672 11.4687 17.3594 11.4766 17.3438 11.4844C17.2969 11.5234 17.2422 11.5703 17.1953 11.6172C17.1875 11.6172 17.1875 11.625 17.1797 11.625L17.1562 11.6484C17.1328 11.6719 17.1094 11.6953 17.0859 11.7266L17.0625 11.75C17.0547 11.7578 17.0469 11.7656 17.0469 11.7734C17.0312 11.7891 17.0156 11.8047 17.0078 11.8203C17 11.8281 16.9922 11.8437 16.9844 11.8516C16.9766 11.8594 16.9687 11.8672 16.9609 11.8828C16.9531 11.8984 16.9375 11.9063 16.9297 11.9219L16.9063 11.9453C16.8984 11.9609 16.8828 11.9766 16.875 11.9922C16.8672 12 16.8594 12.0156 16.8516 12.0234C16.8516 12.0312 16.8437 12.0313 16.8437 12.0391C16.8281 12.0703 16.8047 12.1016 16.7891 12.1328V12.1406C16.7891 12.1484 16.7812 12.1563 16.7812 12.1563C16.7656 12.1797 16.7578 12.2031 16.7422 12.2188C16.7344 12.2266 16.7344 12.2422 16.7266 12.25C16.7187 12.2578 16.7188 12.2734 16.7109 12.2812C16.7031 12.2891 16.7031 12.2969 16.6953 12.3125C16.6875 12.3359 16.6719 12.3594 16.6641 12.3828C16.6641 12.3906 16.6562 12.3906 16.6562 12.3984V12.4062C16.6406 12.4375 16.6328 12.4688 16.6172 12.5C16.6172 12.5078 16.6172 12.5078 16.6094 12.5156C16.6016 12.5234 16.6016 12.5391 16.5938 12.5469C16.5859 12.5625 16.5781 12.5781 16.5781 12.5937C16.5703 12.6094 16.5703 12.6172 16.5703 12.6328C16.5625 12.6484 16.5625 12.6641 16.5547 12.6797C16.5547 12.6875 16.5469 12.6953 16.5469 12.7109C16.5391 12.7266 16.5391 12.7422 16.5391 12.7578C16.5312 12.7734 16.5313 12.7969 16.5234 12.8125C16.5234 12.8203 16.5234 12.8281 16.5156 12.8359C16.5156 12.8516 16.5078 12.8594 16.5078 12.875C16.5 12.9062 16.5 12.9297 16.4922 12.9609C16.4922 12.9688 16.4922 12.9766 16.4844 12.9844V13.0078C16.4766 13.0703 16.4688 13.1328 16.4688 13.1953L16.5078 28.3047C16.5078 28.6406 16.625 28.875 16.8203 28.9844L17.9766 29.6562C17.7891 29.5469 17.6641 29.3125 17.6641 28.9766L17.6406 13.8516C17.6406 13.7891 17.6484 13.7266 17.6563 13.6641C17.6563 13.6484 17.6562 13.6328 17.6641 13.6172C17.6719 13.5859 17.6719 13.5625 17.6797 13.5312C17.6797 13.5156 17.6875 13.4922 17.6875 13.4688C17.6953 13.4531 17.6953 13.4297 17.7031 13.4141C17.7109 13.3906 17.7188 13.3672 17.7266 13.3359C17.7344 13.3203 17.7344 13.3047 17.7422 13.2891C17.75 13.2578 17.7578 13.2344 17.7734 13.2031C17.7813 13.1953 17.7812 13.1797 17.7891 13.1719L17.8359 13.0547C17.8359 13.0469 17.8438 13.0469 17.8438 13.0391C17.8594 13.0078 17.875 12.9688 17.8906 12.9375C17.8984 12.9297 17.8984 12.9141 17.9062 12.9062C17.9219 12.875 17.9375 12.8438 17.9609 12.8125C17.9609 12.8047 17.9688 12.7969 17.9688 12.7969C17.9922 12.7578 18.0156 12.7266 18.0391 12.6875C18.0469 12.6797 18.0547 12.6641 18.0625 12.6562C18.0781 12.6328 18.0938 12.6016 18.1172 12.5781C18.125 12.5625 18.1406 12.5547 18.1484 12.5391C18.1641 12.5156 18.1797 12.5 18.1953 12.4766C18.2109 12.4609 18.2266 12.4453 18.2344 12.4219C18.25 12.4062 18.2578 12.3906 18.2734 12.375C18.2969 12.3516 18.3203 12.3203 18.3438 12.2969C18.3516 12.2812 18.3672 12.2734 18.375 12.2656C18.4219 12.2188 18.4687 12.1719 18.5234 12.1328C18.5312 12.125 18.5391 12.1172 18.5547 12.1094C18.6094 12.0703 18.6641 12.0313 18.7187 12L37.3672 1.23437C37.4141 1.21094 37.4531 1.1875 37.5 1.17188C37.4922 1.1875 37.5078 1.17969 37.5156 1.17969Z" fill="#3B94E5"/>
<path d="M37.3438 1.25787C37.9297 0.921933 38.4062 1.19537 38.4062 1.85943L38.4453 16.9688C38.4453 17.6407 37.9688 18.461 37.3906 18.7969L31.0469 22.461L28.7109 27.6407C28.5703 27.9532 28.3281 28.211 28.0781 28.3516C27.8281 28.4922 27.5859 28.5235 27.4453 28.3751L25.0859 25.9063L18.75 29.5626C18.1641 29.8985 17.6875 29.6251 17.6875 28.9532L17.6406 13.8516C17.6406 13.1797 18.1172 12.3594 18.6953 12.0235L37.3438 1.25787Z" fill="#267FD0"/>
<path d="M33.625 7.68751C34.0234 7.46095 34.3516 7.64063 34.3516 8.10157C34.3516 8.5547 34.0313 9.1172 33.6328 9.35157L21.2813 16.4844C20.8828 16.7109 20.5547 16.5313 20.5547 16.0703C20.5547 15.6094 20.875 15.0547 21.2734 14.8203L33.625 7.68751Z" fill="#267FD0" fill-opacity="0.5"/>
<path d="M27.7969 16.1875C28.1953 15.9609 28.5234 16.1406 28.5234 16.6016C28.5234 17.0625 28.2031 17.6172 27.8047 17.8516L21.2734 21.625C20.875 21.8516 20.5469 21.6719 20.5469 21.2109C20.5469 20.7578 20.8672 20.1953 21.2656 19.9609L27.7969 16.1875Z" fill="#267FD0" fill-opacity="0.5"/>
<path d="M34.7578 8.66406C34.7734 8.65625 34.7891 8.64844 34.8047 8.64844C34.8125 8.64844 34.8281 8.64062 34.8359 8.64062C34.8437 8.64062 34.8594 8.63281 34.8672 8.63281C34.8828 8.63281 34.8906 8.625 34.9063 8.625H34.9844C35 8.625 35.0234 8.625 35.0391 8.63281H35.0547C35.0703 8.63281 35.0781 8.64062 35.0938 8.64062C35.1016 8.64062 35.1016 8.64062 35.1094 8.64844L35.1563 8.67187L34.3125 8.17969H34.3047C34.2891 8.17187 34.2812 8.16406 34.2656 8.16406H34.2578C34.25 8.16406 34.25 8.16406 34.2422 8.15625C34.2344 8.15625 34.2266 8.14844 34.2266 8.14844C34.2188 8.14844 34.2109 8.14844 34.2031 8.14062H34.1875H34.1797C34.1641 8.14062 34.1484 8.13281 34.1328 8.13281H34.0859H34.0156C34.0078 8.13281 34 8.13281 33.9844 8.14062H33.9688C33.9609 8.14062 33.9609 8.14844 33.9531 8.14844C33.9375 8.15625 33.9219 8.15625 33.9063 8.16406C33.8984 8.16406 33.8906 8.16406 33.8906 8.17188C33.8906 8.17188 33.8828 8.17187 33.8828 8.17969C33.8516 8.19531 33.8203 8.20312 33.7891 8.22656L21.4375 15.3594C21.3906 15.3828 21.3437 15.4219 21.3047 15.4531C21.2891 15.4609 21.2734 15.4766 21.2656 15.4922C21.2422 15.5078 21.2266 15.5312 21.2031 15.5469C21.1953 15.5547 21.1875 15.5703 21.1719 15.5781L21.1484 15.6016C21.1406 15.6094 21.1328 15.6172 21.125 15.6328C21.1016 15.6562 21.0859 15.6797 21.0625 15.7031L21.0391 15.7266C21.0391 15.7344 21.0312 15.7344 21.0312 15.7422C21.0234 15.75 21.0156 15.7578 21.0156 15.7656C21 15.7891 20.9844 15.8047 20.9766 15.8281C20.9609 15.8516 20.9531 15.8672 20.9375 15.8906V15.9062C20.9297 15.9219 20.9141 15.9375 20.9062 15.9609C20.8984 15.9844 20.8828 16 20.875 16.0234C20.8672 16.0391 20.8594 16.0625 20.8516 16.0781V16.0937C20.8438 16.1172 20.8359 16.1406 20.8281 16.1562L20.8047 16.2266C20.8047 16.2344 20.7969 16.25 20.7969 16.2578C20.7969 16.2656 20.7969 16.2656 20.7891 16.2734C20.7891 16.2812 20.7813 16.2891 20.7813 16.2969C20.7734 16.3281 20.7656 16.3516 20.7578 16.3828C20.7578 16.3984 20.75 16.4141 20.75 16.4297C20.75 16.4375 20.75 16.4453 20.7422 16.4531C20.7422 16.4609 20.7422 16.4687 20.7344 16.4766C20.7266 16.5234 20.7266 16.5703 20.7266 16.6172C20.7266 16.8437 20.8047 17.0078 20.9375 17.0781L21.7813 17.5703C21.6484 17.4922 21.5703 17.3359 21.5703 17.1094C21.5703 17.0547 21.5781 17 21.5859 16.9453C21.5859 16.9375 21.5859 16.9297 21.5938 16.9219C21.6016 16.8672 21.6172 16.8203 21.6328 16.7656C21.6328 16.7578 21.6328 16.7578 21.6406 16.75C21.6563 16.6953 21.6797 16.6328 21.7031 16.5781V16.5703C21.7266 16.5156 21.7578 16.4531 21.7891 16.3984V16.3906C21.8203 16.3359 21.8516 16.2891 21.8906 16.2344C21.8906 16.2266 21.8984 16.2266 21.8984 16.2188C21.9297 16.1719 21.9687 16.1328 22.0078 16.0937L22.0313 16.0703C22.0625 16.0391 22.0937 16.0156 22.125 15.9844C22.1406 15.9688 22.1562 15.9609 22.1641 15.9453C22.2109 15.9141 22.25 15.875 22.2969 15.8516L34.6484 8.71875L34.7422 8.67187C34.7422 8.67187 34.75 8.66406 34.7578 8.66406Z" fill="#ACC5EA"/>
<path d="M34.6406 8.71876C35.0391 8.4922 35.3672 8.67188 35.3672 9.13282C35.3672 9.58595 35.0469 10.1484 34.6484 10.3828L22.2969 17.5156C21.8984 17.7422 21.5703 17.5625 21.5703 17.1016C21.5703 16.6406 21.8906 16.0859 22.2891 15.8516L34.6406 8.71876Z" fill="white"/>
<path d="M28.9375 17.1094C28.9531 17.1016 28.9688 17.0938 28.9844 17.0938C28.9922 17.0938 29.0078 17.0859 29.0156 17.0859C29.0234 17.0859 29.0391 17.0781 29.0469 17.0781C29.0625 17.0781 29.0703 17.0703 29.0859 17.0703H29.1641C29.1797 17.0703 29.2031 17.0703 29.2188 17.0781H29.2344C29.25 17.0781 29.2578 17.0859 29.2734 17.0859C29.2812 17.0859 29.2813 17.0859 29.2891 17.0938L29.3359 17.1172L28.4922 16.625H28.4844C28.4687 16.6172 28.4609 16.6094 28.4453 16.6094H28.4375C28.4297 16.6094 28.4297 16.6094 28.4219 16.6016C28.4141 16.6016 28.4062 16.5938 28.4062 16.5938C28.3984 16.5938 28.3906 16.5938 28.3828 16.5859H28.3672H28.3594C28.3438 16.5859 28.3281 16.5781 28.3125 16.5781H28.2656H28.1953C28.1875 16.5781 28.1719 16.5859 28.1641 16.5859H28.1484C28.1406 16.5859 28.1406 16.5859 28.1328 16.5938C28.1172 16.6016 28.1016 16.6016 28.0859 16.6094C28.0781 16.6094 28.0703 16.6094 28.0703 16.6172C28.0703 16.6172 28.0625 16.6172 28.0625 16.625C28.0312 16.6406 28 16.6484 27.9766 16.6719L21.4453 20.4453C21.3984 20.4688 21.3516 20.5078 21.3125 20.5391C21.2969 20.5469 21.2812 20.5625 21.2734 20.5781C21.25 20.5938 21.2344 20.6172 21.2109 20.6328C21.2031 20.6406 21.1953 20.6563 21.1797 20.6641L21.1562 20.6875C21.1484 20.6953 21.1406 20.7031 21.1328 20.7188C21.1094 20.7422 21.0937 20.7656 21.0703 20.7891L21.0469 20.8125C21.0469 20.8203 21.0391 20.8203 21.0391 20.8281C21.0312 20.8359 21.0234 20.8438 21.0234 20.8516C21.0078 20.875 20.9922 20.8906 20.9844 20.9141C20.9687 20.9375 20.9609 20.9531 20.9453 20.9766V20.9922C20.9375 21.0078 20.9297 21.0234 20.9141 21.0469C20.9062 21.0703 20.8906 21.0859 20.8828 21.1094C20.875 21.125 20.8672 21.1484 20.8594 21.1641V21.1719C20.8516 21.1953 20.8437 21.2188 20.8359 21.2344L20.8125 21.3047C20.8125 21.3125 20.8047 21.3281 20.8047 21.3359C20.8047 21.3438 20.8047 21.3438 20.7969 21.3516C20.7969 21.3594 20.7891 21.3672 20.7891 21.375C20.7812 21.4063 20.7734 21.4297 20.7656 21.4609C20.7656 21.4766 20.7578 21.4922 20.7578 21.5078C20.7578 21.5156 20.7578 21.5234 20.75 21.5313C20.75 21.5391 20.75 21.5469 20.7422 21.5547C20.7344 21.6016 20.7344 21.6484 20.7344 21.6953C20.7344 21.9219 20.8125 22.0859 20.9453 22.1563L21.7891 22.6484C21.6563 22.5703 21.5781 22.4141 21.5781 22.1875C21.5781 22.1328 21.5859 22.0781 21.5938 22.0234C21.5938 22.0156 21.5938 22.0078 21.6016 22C21.6094 21.9453 21.625 21.8984 21.6406 21.8438C21.6406 21.8359 21.6406 21.8359 21.6484 21.8281C21.6641 21.7734 21.6875 21.7109 21.7109 21.6562C21.7344 21.6016 21.7656 21.5391 21.7969 21.4844V21.4766C21.8281 21.4219 21.8594 21.375 21.8984 21.3203C21.8984 21.3125 21.9063 21.3125 21.9063 21.3047C21.9375 21.2578 21.9766 21.2188 22.0156 21.1797L22.0391 21.1563C22.0703 21.125 22.1016 21.1016 22.1328 21.0703L22.1719 21.0312C22.2187 21 22.2578 20.9609 22.3047 20.9375L28.8359 17.1641C28.8672 17.1484 28.8984 17.1328 28.9219 17.1172C28.9141 17.1172 28.9297 17.1094 28.9375 17.1094Z" fill="#ACC5EA"/>
<path d="M28.8203 17.1641C29.2188 16.9375 29.5469 17.1172 29.5469 17.5781C29.5469 18.0391 29.2266 18.5938 28.8281 18.8281L22.2969 22.6016C21.8984 22.8281 21.5703 22.6484 21.5703 22.1875C21.5703 21.7344 21.8906 21.1719 22.2891 20.9375L28.8203 17.1641Z" fill="white"/>
<path d="M44.75 13.4375C44.7266 13.4219 44.7109 13.4141 44.6875 13.4062H44.6797C44.6719 13.4062 44.6641 13.3984 44.6641 13.3984C44.6563 13.3984 44.6484 13.3906 44.6328 13.3906C44.625 13.3906 44.6094 13.3828 44.6016 13.3828C44.5937 13.3828 44.5859 13.3828 44.5859 13.375H44.5781C44.5547 13.375 44.5391 13.3672 44.5156 13.3672H44.3672C44.3594 13.3672 44.3516 13.3672 44.3438 13.375C44.3281 13.375 44.3125 13.3828 44.2969 13.3828C44.2891 13.3828 44.2813 13.3828 44.2734 13.3906C44.2656 13.3906 44.2578 13.3984 44.25 13.3984L44.1797 13.4219C44.1719 13.4219 44.1641 13.4297 44.1563 13.4297C44.1484 13.4297 44.1484 13.4375 44.1406 13.4375C44.0938 13.4531 44.0547 13.4766 44.0078 13.5L34.9063 18.7578C34.8516 18.7891 34.7969 18.8281 34.7422 18.8672C34.7344 18.875 34.7266 18.8828 34.7109 18.8906C34.6641 18.9297 34.6094 18.9766 34.5625 19.0234C34.5547 19.0234 34.5547 19.0312 34.5469 19.0312L34.5234 19.0547C34.5 19.0781 34.4766 19.1016 34.4531 19.1328L34.4297 19.1562C34.4219 19.1641 34.4141 19.1719 34.4141 19.1797C34.3984 19.1953 34.3828 19.2109 34.375 19.2266C34.3672 19.2344 34.3594 19.25 34.3516 19.2578C34.3438 19.2656 34.3359 19.2734 34.3281 19.2891C34.3203 19.3047 34.3047 19.3125 34.2969 19.3281L34.2734 19.3516C34.2656 19.3672 34.25 19.3828 34.2422 19.3984C34.2344 19.4062 34.2266 19.4219 34.2188 19.4297C34.2188 19.4375 34.2109 19.4375 34.2109 19.4453C34.1953 19.4766 34.1719 19.5078 34.1563 19.5391V19.5469C34.1563 19.5547 34.1484 19.5625 34.1484 19.5625C34.1328 19.5859 34.125 19.6094 34.1094 19.625C34.1016 19.6328 34.1016 19.6484 34.0937 19.6562C34.0859 19.6641 34.0859 19.6797 34.0781 19.6875C34.0703 19.6953 34.0703 19.7031 34.0625 19.7187C34.0547 19.7422 34.0391 19.7656 34.0312 19.7891C34.0312 19.7969 34.0234 19.7969 34.0234 19.8047V19.8125C34.0078 19.8438 34 19.875 33.9844 19.9062C33.9844 19.9141 33.9844 19.9141 33.9766 19.9219C33.9687 19.9297 33.9688 19.9453 33.9609 19.9531C33.9531 19.9687 33.9453 19.9844 33.9453 20C33.9375 20.0156 33.9375 20.0234 33.9375 20.0391C33.9297 20.0547 33.9297 20.0703 33.9219 20.0859C33.9219 20.0938 33.9141 20.1016 33.9141 20.1172C33.9062 20.1328 33.9063 20.1484 33.9063 20.1641C33.8984 20.1797 33.8984 20.2031 33.8906 20.2187C33.8906 20.2266 33.8906 20.2344 33.8828 20.2422C33.8828 20.2578 33.875 20.2656 33.875 20.2812C33.8672 20.3125 33.8672 20.3359 33.8594 20.3672C33.8594 20.375 33.8594 20.3828 33.8516 20.3906V20.4141C33.8438 20.4766 33.8359 20.5391 33.8359 20.6016L33.8672 31.0469C33.8672 31.2578 33.9141 31.4219 33.9922 31.5469C34.0391 31.625 34.1016 31.6797 34.1719 31.7187L35.3281 32.3906C35.1406 32.2812 35.0156 32.0469 35.0156 31.7109L34.9844 21.2656C34.9844 21.2031 34.9922 21.1406 35 21.0781C35 21.0625 35 21.0469 35.0078 21.0312C35.0156 21 35.0156 20.9766 35.0234 20.9453C35.0234 20.9297 35.0312 20.9062 35.0312 20.8906C35.0391 20.875 35.0391 20.8516 35.0469 20.8359C35.0547 20.8125 35.0625 20.7891 35.0703 20.7578C35.0781 20.7422 35.0781 20.7266 35.0859 20.7109C35.0938 20.6797 35.1016 20.6562 35.1172 20.625C35.125 20.6172 35.125 20.6016 35.1328 20.5938L35.1797 20.4766C35.1797 20.4688 35.1875 20.4687 35.1875 20.4609C35.2031 20.4297 35.2188 20.3906 35.2344 20.3594C35.2422 20.3516 35.2422 20.3359 35.25 20.3281C35.2656 20.2969 35.2812 20.2656 35.3047 20.2344C35.3047 20.2266 35.3125 20.2187 35.3125 20.2187C35.3359 20.1797 35.3594 20.1484 35.3828 20.1094C35.3906 20.1016 35.3984 20.0859 35.4063 20.0781C35.4219 20.0547 35.4375 20.0312 35.4609 20C35.4687 19.9844 35.4844 19.9766 35.4922 19.9609C35.5078 19.9375 35.5234 19.9219 35.5391 19.8984C35.5547 19.8828 35.5703 19.8672 35.5781 19.8516C35.5937 19.8359 35.6016 19.8203 35.6172 19.8047C35.6406 19.7812 35.6641 19.7578 35.6875 19.7266C35.6953 19.7109 35.7109 19.7031 35.7266 19.6875C35.7734 19.6406 35.8203 19.5937 35.875 19.5547C35.8828 19.5469 35.8906 19.5391 35.9062 19.5312C35.9609 19.4922 36.0156 19.4531 36.0703 19.4219L45.1563 14.1719C45.2031 14.1484 45.2422 14.125 45.2891 14.1094C45.3047 14.1016 45.3203 14.1016 45.3281 14.0937C45.3516 14.0859 45.375 14.0781 45.4063 14.0703C45.4219 14.0625 45.4375 14.0625 45.4531 14.0547C45.4688 14.0547 45.4844 14.0469 45.5 14.0469C45.5156 14.0469 45.5391 14.0391 45.5547 14.0391H45.6719C45.6953 14.0391 45.7266 14.0469 45.75 14.0469C45.7578 14.0469 45.7656 14.0469 45.7656 14.0547C45.7891 14.0625 45.8047 14.0625 45.8203 14.0703C45.8281 14.0703 45.8359 14.0781 45.8359 14.0781C45.8594 14.0859 45.8828 14.1016 45.9062 14.1094L44.75 13.4375Z" fill="#C68620"/>
<path d="M45.1562 14.1797C45.7422 13.8438 46.2187 14.1172 46.2187 14.7813L46.25 25.2266C46.25 25.8985 45.7734 26.7188 45.1953 27.0547L36.1094 32.3047C35.5234 32.6407 35.0469 32.3672 35.0469 31.7032L35.0156 21.2579C35.0156 20.586 35.4922 19.7657 36.0703 19.4297L45.1562 14.1797Z" fill="#FFCD2E"/>
<path d="M37.8906 22.7266L37.9063 26.0781L37.5 26.3125L36.1484 24.7344L36.1562 27.0859L35.7109 27.3437L35.7031 23.9922L36.1094 23.7578L37.4609 25.3359L37.4531 22.9844L37.8906 22.7266ZM44.5781 18.8672L43.8281 22.6563L43.4453 22.875L42.8437 20.875L42.2656 23.5547L41.8828 23.7812L41.1094 20.875L41.5781 20.6016L42.0859 22.7031L42.6641 19.9766L43.0234 19.7656L43.6172 21.8203L44.1172 19.1406L44.5781 18.8672ZM40.6797 21.125V21.5781L39.2578 22.3984L39.2656 23.375L40.4766 22.6719V23.125L39.2656 23.8281V24.8281L40.6875 24.0156V24.4687L38.8281 25.5391L38.8203 22.1953L40.6797 21.125Z" fill="#C68620"/>
<path d="M38.5078 26.1641L37.6641 25.6797L37.6562 23.3281L38.5 23.8203L38.5078 26.1641Z" fill="#E8CFAC"/>
<path d="M38.5 23.8203L37.6563 23.3281L38.1016 23.0781L38.9375 23.5625L38.5 23.8203ZM38.5469 27.1406L37.7031 26.6562L36.3516 25.0781L37.1953 25.5625L38.5469 27.1406ZM36.75 24.8281L35.9062 24.3438L36.3125 24.1094L37.1562 24.5938L36.75 24.8281Z" fill="#E8CFAC"/>
<path d="M36.7578 28.1719L35.9141 27.6875L35.9062 24.3438L36.75 24.8281L36.7578 28.1719Z" fill="#E8CFAC"/>
<path d="M38.9375 23.5625L38.9531 26.9062L38.5469 27.1406L37.1953 25.5625L37.2031 27.9219L36.7578 28.1719L36.75 24.8281L37.1563 24.5938L38.5078 26.1641L38.5 23.8203L38.9375 23.5625Z" fill="white"/>
<path d="M44.6641 22.6563L43.8203 22.1719L44.3203 19.4844L45.1641 19.9766L44.6641 22.6563ZM45.1641 19.9766L44.3203 19.4844L44.7891 19.2109L45.625 19.7031L45.1641 19.9766Z" fill="#E8CFAC"/>
<path d="M44.4922 23.7109L43.6484 23.2187L43.0547 21.2188L43.8906 21.7109L44.4922 23.7109Z" fill="#E8CFAC"/>
<path d="M43.1328 23.5391L42.2969 23.0469L42.875 20.3203L43.7109 20.8125L43.1328 23.5391ZM43.7109 20.8125L42.875 20.3203L43.2266 20.1172L44.0703 20.6016L43.7109 20.8125ZM42.1562 21.7109L41.3125 21.2188L41.7812 20.9531L42.625 21.4375L42.1562 21.7109Z" fill="#E8CFAC"/>
<path d="M42.9297 24.6172L42.0859 24.125L41.3125 21.2188L42.1562 21.7109L42.9297 24.6172Z" fill="#E8CFAC"/>
<path d="M45.625 19.7031L44.875 23.4844L44.4922 23.7109L43.8906 21.7109L43.3125 24.3906L42.9297 24.6172L42.1562 21.7109L42.625 21.4375L43.1328 23.5391L43.7109 20.8125L44.0703 20.6016L44.6641 22.6563L45.1641 19.9766L45.625 19.7031Z" fill="white"/>
<path d="M40.3125 25.6641L39.4688 25.1797L40.8906 24.3594L41.7344 24.8437L40.3125 25.6641ZM40.3125 24.2109L39.4688 23.7188L40.6797 23.0234L41.5156 23.5078L40.3125 24.2109Z" fill="#E8CFAC"/>
<path d="M39.875 26.375L39.0312 25.8906L39.0234 22.5391L39.8594 23.0313L39.875 26.375Z" fill="#E8CFAC"/>
<path d="M39.8594 23.0313L39.0234 22.5391L40.8828 21.4688L41.7266 21.9609L39.8594 23.0313Z" fill="#E8CFAC"/>
<path d="M41.7266 21.9609V22.4141L40.3047 23.2344L40.3125 24.2109L41.5156 23.5078L41.5234 23.9609L40.3125 24.6562V25.6641L41.7344 24.8437V25.3047L39.875 26.375L39.8594 23.0313L41.7266 21.9609Z" fill="white"/>
</svg>
