<svg width="62" height="51" viewBox="0 0 62 51" fill="none" xmlns="http://www.w3.org/2000/svg">
<path d="M61.7423 30.6406C61.6564 31.5 60.8673 31.9297 60.1954 32.3203C59.5704 32.6797 58.9454 33.0469 58.3282 33.4062C57.3282 33.9844 56.336 34.5625 55.336 35.1406C54.086 35.8672 52.8439 36.5937 51.5939 37.3125C50.2189 38.1094 48.8439 38.9141 47.461 39.7109C46.0782 40.5156 44.6954 41.3203 43.3048 42.125C42.0314 42.8672 40.7657 43.6016 39.4923 44.3437C38.4532 44.9453 37.422 45.5469 36.3829 46.1484C35.7032 46.5391 35.0235 46.9375 34.3439 47.3281C33.8282 47.625 33.3439 47.9219 32.7579 48.0937C31.2345 48.5312 29.547 48.3828 28.172 47.5859C27.6798 47.2969 27.1798 47.0156 26.6876 46.7266C25.7814 46.2031 24.8829 45.6875 23.9767 45.1641C22.7892 44.4766 21.6017 43.7891 20.4142 43.1094C19.0626 42.3281 17.7032 41.5469 16.3517 40.7656C14.9532 39.9609 13.5548 39.1484 12.1564 38.3437C10.836 37.5781 9.51573 36.8203 8.18761 36.0547L4.81261 34.1094C4.00792 33.6406 3.19542 33.1797 2.39073 32.7109C2.02355 32.5 1.65636 32.2891 1.28917 32.0703C0.711046 31.7344 0.140733 31.2031 0.140733 30.4844C0.140733 31.1406 0.140734 31.7969 0.132921 32.4609C0.132921 32.6953 0.117296 32.9375 0.132921 33.1797C0.179796 33.8125 0.679796 34.3047 1.20323 34.6172C1.52355 34.8125 1.85167 34.9922 2.1798 35.1797C3.02355 35.6641 3.8673 36.1562 4.71105 36.6406C5.9298 37.3437 7.14073 38.0469 8.35948 38.75C9.8048 39.5859 11.2579 40.4219 12.7032 41.2578C14.211 42.1328 15.7189 43 17.2345 43.875C18.672 44.7031 20.1017 45.5312 21.5392 46.3594C22.7345 47.0469 23.922 47.7344 25.1173 48.4219C25.922 48.8906 26.7345 49.3516 27.5392 49.8203C28.0079 50.0859 28.4689 50.3906 28.9767 50.5781C30.5626 51.1562 32.422 51.0312 33.8829 50.1797C34.4376 49.8594 34.9923 49.5312 35.547 49.2109C36.5704 48.6172 37.5939 48.0234 38.6095 47.4297C39.9454 46.6562 41.2735 45.8828 42.6095 45.1016C44.1017 44.2344 45.5939 43.3672 47.0782 42.5L51.5548 39.8984C52.8907 39.1172 54.2267 38.3437 55.5704 37.5625C56.6095 36.9609 57.6485 36.3594 58.6876 35.75C59.2579 35.4141 59.836 35.0859 60.4064 34.75C60.5782 34.6484 60.7579 34.5469 60.922 34.4297C61.3595 34.1016 61.7032 33.6484 61.711 33.0781C61.7189 32.7891 61.711 32.5078 61.711 32.2187C61.711 31.6484 61.711 31.0703 61.7189 30.5C61.7501 30.5625 61.7423 30.6016 61.7423 30.6406C61.7423 30.6641 61.7423 30.625 61.7423 30.6406Z" fill="#8FC1EF"/>
<path d="M60.6328 28.9609C62.1172 29.8203 62.125 31.2187 60.6485 32.0781L33.7422 47.7109C32.2656 48.5703 29.8516 48.5703 28.3672 47.7109L1.28127 32.0781C-0.203107 31.2187 -0.210921 29.8203 1.26564 28.9609L28.1719 13.3203C29.6485 12.4609 32.0625 12.4609 33.5469 13.3203L60.6328 28.9609Z" fill="#E4ECF9"/>
<path d="M29.9922 11.8984C30.0547 11.8672 30.1172 11.8359 30.1797 11.8125C30.2188 11.7969 30.25 11.7812 30.2812 11.7656C30.3437 11.7422 30.3984 11.7187 30.4609 11.6953C30.5 11.6797 30.5312 11.6719 30.5703 11.6562C30.625 11.6406 30.6797 11.6172 30.7344 11.6016C30.7734 11.5859 30.8125 11.5781 30.8516 11.5703C30.8828 11.5625 30.9141 11.5547 30.9531 11.5469C31 11.5391 31.0469 11.5234 31.0859 11.5156C31.1172 11.5078 31.1484 11.5 31.1797 11.5L31.3438 11.4766C31.3594 11.4766 31.375 11.4688 31.3906 11.4688C31.4609 11.4609 31.5312 11.4531 31.6016 11.4531H31.8672C31.9219 11.4531 31.9687 11.4609 32.0234 11.4609C32.0391 11.4609 32.0547 11.4609 32.0703 11.4688C32.1328 11.4766 32.1953 11.4844 32.2656 11.5C32.2812 11.5 32.2969 11.5078 32.3125 11.5078C32.3594 11.5156 32.4141 11.5312 32.4609 11.5391C32.4844 11.5469 32.5 11.5469 32.5234 11.5547C32.5703 11.5703 32.6094 11.5781 32.6562 11.5938C32.6797 11.6016 32.6953 11.6094 32.7188 11.6172C32.7734 11.6328 32.8203 11.6562 32.875 11.6719C32.8828 11.6719 32.8906 11.6797 32.8984 11.6797C32.9609 11.7031 33.0234 11.7344 33.0859 11.7656L33.1328 11.7891C33.1797 11.8125 33.2344 11.8438 33.2812 11.8672L32.125 11.1953C32.1172 11.1875 32.1094 11.1875 32.1016 11.1797C32.0625 11.1562 32.0234 11.1328 31.9766 11.1172L31.9297 11.0938C31.8672 11.0625 31.8125 11.0391 31.75 11.0078H31.7422C31.7344 11.0078 31.7266 11 31.7188 11C31.6641 10.9766 31.6172 10.9609 31.5625 10.9375C31.5391 10.9297 31.5234 10.9219 31.5 10.9141L31.4297 10.8906C31.4141 10.8828 31.3906 10.8828 31.375 10.875C31.3516 10.8672 31.3359 10.8672 31.3125 10.8594C31.2656 10.8438 31.2187 10.8359 31.1641 10.8281C31.1484 10.8281 31.1328 10.8203 31.1172 10.8203H31.1016C31.0391 10.8125 30.9844 10.8047 30.9219 10.7969C30.9062 10.7969 30.8906 10.7969 30.875 10.7891C30.8437 10.7891 30.8047 10.7812 30.7734 10.7812H30.4375C30.375 10.7812 30.3047 10.7891 30.2422 10.7969C30.2266 10.7969 30.2109 10.8047 30.1875 10.8047C30.1484 10.8125 30.1094 10.8125 30.0703 10.8203C30.0547 10.8203 30.0391 10.8281 30.0312 10.8281C30 10.8359 29.9687 10.8359 29.9375 10.8438C29.8906 10.8516 29.8438 10.8594 29.7969 10.875L29.7031 10.8984C29.6797 10.9063 29.6641 10.9062 29.6406 10.9141C29.625 10.9219 29.6016 10.9297 29.5781 10.9297C29.5234 10.9453 29.4688 10.9609 29.4141 10.9844C29.375 11 29.3437 11.0078 29.3047 11.0234C29.25 11.0469 29.1875 11.0703 29.125 11.0938C29.1016 11.1016 29.0781 11.1094 29.0469 11.125C29.0391 11.1328 29.0234 11.1328 29.0156 11.1406C28.9531 11.1719 28.8906 11.1953 28.8281 11.2266L28.7344 11.2734C28.6406 11.3203 28.5391 11.375 28.4453 11.4297L22.7969 14.6875C22.6719 14.7578 22.5547 14.8359 22.4375 14.9141C22.4062 14.9375 22.375 14.9609 22.3359 14.9844C22.2422 15.0469 22.1484 15.1172 22.0547 15.1875C22.0312 15.2031 22 15.2266 21.9766 15.2422C21.8672 15.3281 21.75 15.4219 21.6406 15.5156C21.6172 15.5391 21.5937 15.5625 21.5703 15.5781C21.4844 15.6562 21.3984 15.7344 21.3125 15.8203C21.2969 15.8359 21.2812 15.8516 21.2578 15.8672L21.2109 15.9141C21.1563 15.9687 21.1016 16.0234 21.0547 16.0781L20.9453 16.1875C20.8906 16.25 20.8359 16.3047 20.7813 16.3672C20.7578 16.3984 20.7344 16.4219 20.7031 16.4531L20.6797 16.4766L20.5859 16.5938C20.5391 16.6484 20.5 16.6953 20.4531 16.75C20.4219 16.7891 20.3906 16.8281 20.3516 16.875C20.3203 16.9141 20.2891 16.9453 20.2656 16.9844C20.2578 16.9922 20.25 17.0078 20.2422 17.0156C20.1328 17.1562 20.0234 17.3047 19.9219 17.4453C19.9141 17.4609 19.9062 17.4687 19.8984 17.4766C19.8828 17.4922 19.875 17.5156 19.8594 17.5312C19.75 17.6875 19.6484 17.8438 19.5391 18.0078V18.0156C19.4297 18.1875 19.3203 18.3672 19.2188 18.5469C19.2109 18.5625 19.1953 18.5781 19.1875 18.5938C19.1797 18.6016 19.1797 18.6094 19.1719 18.625C19.0625 18.8047 18.9609 18.9922 18.8594 19.1797C18.8516 19.1953 18.8438 19.2109 18.8281 19.2266C18.8203 19.2422 18.8125 19.25 18.8047 19.2656C18.6953 19.4766 18.5859 19.6953 18.4766 19.9141L18.4531 19.9609C18.4453 19.9688 18.4453 19.9844 18.4375 19.9922C18.3047 20.2734 18.1719 20.5547 18.0547 20.8359C18.0547 20.8438 18.0469 20.8516 18.0469 20.8516C17.9844 21 17.9219 21.1484 17.8594 21.3047C17.8437 21.3516 17.8203 21.3906 17.8047 21.4375C17.75 21.5703 17.7031 21.6953 17.6484 21.8281C17.6406 21.8516 17.6328 21.875 17.6172 21.8984C17.6172 21.9062 17.6094 21.9141 17.6094 21.9219C17.5312 22.125 17.4609 22.3203 17.3906 22.5234C17.375 22.5625 17.3672 22.5938 17.3516 22.6328C17.2812 22.8281 17.2109 23.0312 17.1484 23.2266C17.1406 23.2422 17.1406 23.2578 17.1328 23.2734C17.125 23.2891 17.125 23.3047 17.1172 23.3203C17.0234 23.6016 16.9375 23.8828 16.8516 24.1562C16.8437 24.1797 16.8359 24.2031 16.8281 24.2188C16.7422 24.5156 16.6562 24.8047 16.5703 25.0938V25.1016C16.5703 25.1094 16.5625 25.125 16.5625 25.1328C16.5 25.3594 16.4375 25.5859 16.3828 25.8125V25.8203C16.3203 26.0469 16.2656 26.2734 16.2109 26.4922C16.2031 26.5078 16.2031 26.5234 16.1953 26.5469C16.1406 26.7578 16.0938 26.9687 16.0469 27.1797C16.0391 27.2031 16.0312 27.2344 16.0312 27.2578C15.9844 27.4609 15.9453 27.6562 15.8984 27.8516C15.8984 27.8672 15.8906 27.8828 15.8906 27.8984C15.8828 27.9219 15.8828 27.9453 15.875 27.9688C15.8672 28.0234 15.8516 28.0703 15.8437 28.125C15.8281 28.1875 15.8203 28.25 15.8047 28.3047C15.7969 28.3594 15.7812 28.4063 15.7734 28.4531C15.7578 28.5156 15.75 28.5781 15.7344 28.6328C15.7266 28.6797 15.7188 28.7344 15.7031 28.7812C15.6875 28.8437 15.6797 28.8984 15.6719 28.9609L15.6484 29.1016C15.6406 29.1641 15.625 29.2188 15.6172 29.2734L15.5937 29.4141C15.5859 29.4688 15.5703 29.5313 15.5625 29.5859C15.5547 29.6328 15.5469 29.6719 15.5391 29.7187C15.5312 29.7734 15.5156 29.8359 15.5078 29.8906C15.5 29.9297 15.4922 29.9766 15.4844 30.0156C15.4766 30.0703 15.4609 30.1328 15.4531 30.1875C15.4453 30.2266 15.4375 30.2656 15.4375 30.3047C15.4297 30.3672 15.4141 30.4219 15.4062 30.4844C15.3984 30.5156 15.3984 30.5469 15.3906 30.5859C15.3828 30.6562 15.3672 30.7266 15.3594 30.7891C15.3594 30.8125 15.3516 30.8281 15.3516 30.8516C15.3359 30.9375 15.3281 31.0234 15.3125 31.1094C15.3125 31.1328 15.3047 31.1484 15.3047 31.1719C15.2969 31.2344 15.2891 31.2969 15.2734 31.3594C15.2656 31.3906 15.2656 31.4219 15.2578 31.4531L15.2344 31.5937C15.2266 31.625 15.2266 31.6563 15.2187 31.6953C15.2109 31.7344 15.2109 31.7734 15.2031 31.8125C15.1953 31.8438 15.1953 31.875 15.1875 31.9062C15.1797 31.9453 15.1797 31.9844 15.1719 32.0234C15.1641 32.0547 15.1641 32.0781 15.1641 32.1094C15.1641 32.1328 15.1563 32.1562 15.1563 32.1797V32.2109C15.1484 32.2578 15.1406 32.3047 15.1406 32.3516C15.1406 32.375 15.1328 32.3906 15.1328 32.4141C15.1172 32.5469 15.1016 32.6641 15.0937 32.7656C15.0937 32.7812 15.0937 32.7969 15.0859 32.8125C15.0781 32.8438 15.0781 32.8828 15.0781 32.9141C15.0781 32.9297 15.0781 32.9453 15.0703 32.9609C15.0703 32.9844 15.0625 33.0156 15.0625 33.0391C15.0625 33.0547 15.0625 33.0703 15.0547 33.0859C15.0547 33.1094 15.0469 33.125 15.0469 33.1484V33.1797C15.0469 33.2031 15.0391 33.2187 15.0391 33.2344V33.25C15.0391 33.2734 15.0391 33.2891 15.0312 33.2969C15.0312 34.3047 15.4219 35.0938 16.0391 35.4531L17.1953 36.125C16.5781 35.7656 16.1875 34.9766 16.1875 33.9688C16.1875 33.9531 16.1875 33.9375 16.1953 33.9219V33.8984C16.1953 33.8828 16.1953 33.8672 16.2031 33.8438V33.8047C16.2031 33.7891 16.2109 33.7656 16.2109 33.7422C16.2109 33.7266 16.2109 33.7109 16.2187 33.6953C16.2187 33.6719 16.2266 33.6484 16.2266 33.6172C16.2266 33.6016 16.2266 33.5859 16.2344 33.5703C16.2344 33.5391 16.2422 33.5078 16.2422 33.4687C16.2422 33.4531 16.2422 33.4375 16.25 33.4219C16.2656 33.3203 16.2734 33.2031 16.2891 33.0703C16.2891 33.0469 16.2969 33.0312 16.2969 33.0078C16.3047 32.9609 16.3047 32.9141 16.3125 32.8672C16.3203 32.8359 16.3203 32.7969 16.3281 32.7656C16.3281 32.7344 16.3359 32.7109 16.3359 32.6797C16.3437 32.6406 16.3437 32.6016 16.3516 32.5625C16.3594 32.5312 16.3594 32.5 16.3672 32.4687C16.375 32.4297 16.375 32.3906 16.3828 32.3516C16.3906 32.3203 16.3906 32.2891 16.3984 32.25L16.4219 32.1094C16.4297 32.0781 16.4297 32.0469 16.4375 32.0156C16.4453 31.9531 16.4531 31.8906 16.4687 31.8281C16.4687 31.8047 16.4766 31.7891 16.4766 31.7656C16.4922 31.6797 16.5 31.5938 16.5156 31.5078C16.5156 31.4844 16.5234 31.4688 16.5234 31.4453C16.5313 31.375 16.5469 31.3125 16.5547 31.2422C16.5625 31.2109 16.5625 31.1797 16.5703 31.1406C16.5781 31.0781 16.5859 31.0234 16.6016 30.9609C16.6094 30.9219 16.6172 30.8828 16.6172 30.8438C16.625 30.7891 16.6328 30.7266 16.6484 30.6719C16.6562 30.6328 16.6641 30.5859 16.6719 30.5469C16.6797 30.4922 16.6953 30.4375 16.7031 30.375C16.7109 30.3281 16.7187 30.2891 16.7266 30.2422C16.7344 30.1875 16.75 30.125 16.7578 30.0703L16.7812 29.9297C16.7891 29.875 16.8047 29.8125 16.8125 29.75L16.8359 29.6094C16.8438 29.5469 16.8594 29.4922 16.8672 29.4297C16.875 29.3828 16.8828 29.3281 16.8984 29.2812C16.9141 29.2188 16.9219 29.1641 16.9375 29.1016C16.9453 29.0547 16.9609 29 16.9687 28.9531C16.9844 28.8906 16.9922 28.8281 17.0078 28.7656C17.0156 28.7109 17.0312 28.6641 17.0391 28.6094L17.0625 28.4922C17.1016 28.2969 17.1484 28.1016 17.1953 27.8984C17.2031 27.875 17.2109 27.8437 17.2109 27.8203C17.2578 27.6094 17.3047 27.4062 17.3594 27.1875C17.3672 27.1719 17.3672 27.1562 17.375 27.1328C17.4297 26.9141 17.4844 26.6875 17.5469 26.4609V26.4531C17.6016 26.2266 17.6641 26 17.7266 25.7734C17.7344 25.7578 17.7344 25.7422 17.7422 25.7266C17.8203 25.4375 17.9062 25.1406 18 24.8516C18.0078 24.8281 18.0156 24.8047 18.0234 24.7891C18.1094 24.5078 18.1953 24.2266 18.2891 23.9531C18.2969 23.9219 18.3047 23.8906 18.3203 23.8672C18.3828 23.6719 18.4531 23.4688 18.5234 23.2734C18.5391 23.2344 18.5469 23.2031 18.5625 23.1641C18.6328 22.9609 18.7109 22.7656 18.7812 22.5625C18.7969 22.5312 18.8047 22.5 18.8203 22.4687C18.8672 22.3359 18.9219 22.2109 18.9766 22.0781C18.9922 22.0312 19.0156 21.9922 19.0312 21.9453C19.0937 21.7969 19.1563 21.6406 19.2188 21.4922C19.2188 21.4844 19.2266 21.4766 19.2266 21.4688C19.3516 21.1797 19.4766 20.8984 19.6094 20.625C19.625 20.6016 19.6328 20.5703 19.6484 20.5469C19.7578 20.3281 19.8594 20.1094 19.9766 19.8984C19.9922 19.8672 20.0078 19.8359 20.0234 19.8125C20.125 19.625 20.2266 19.4375 20.3359 19.2578C20.3516 19.2344 20.3672 19.2109 20.3828 19.1797C20.4844 19 20.5938 18.8281 20.7031 18.6562V18.6484C20.8047 18.4844 20.9141 18.3281 21.0234 18.1719C21.0469 18.1406 21.0625 18.1094 21.0859 18.0859C21.1875 17.9375 21.2969 17.7969 21.4063 17.6562C21.4453 17.6094 21.4844 17.5625 21.5156 17.5156C21.5469 17.4766 21.5781 17.4297 21.6172 17.3906C21.6641 17.3359 21.7031 17.2812 21.75 17.2344L21.8437 17.1172C21.875 17.0781 21.9062 17.0469 21.9375 17.0078C21.9922 16.9453 22.0469 16.8906 22.1016 16.8281L22.2109 16.7188C22.2656 16.6641 22.3203 16.6094 22.3672 16.5547C22.3984 16.5234 22.4297 16.4922 22.4687 16.4609C22.5547 16.3828 22.6406 16.2969 22.7266 16.2187C22.75 16.1953 22.7734 16.1719 22.7969 16.1562C22.9062 16.0625 23.0156 15.9688 23.1328 15.8828C23.1562 15.8594 23.1875 15.8437 23.2109 15.8281C23.3047 15.7578 23.3984 15.6953 23.4844 15.625C23.5156 15.6016 23.5469 15.5781 23.5859 15.5547C23.7031 15.4766 23.8203 15.3984 23.9453 15.3281L29.5938 12.0703C29.6953 12.0156 29.7891 11.9609 29.8828 11.9141C29.9297 11.9297 29.9609 11.9141 29.9922 11.8984ZM30.5156 1.8125C30.5625 1.78906 30.6172 1.76562 30.6641 1.75C30.6719 1.75 30.6797 1.74219 30.6797 1.74219C30.7344 1.71875 30.7812 1.70312 30.8281 1.6875C30.8437 1.67969 30.8516 1.67969 30.8672 1.67188C30.9062 1.65625 30.9453 1.64844 30.9844 1.63281C30.9922 1.63281 31 1.625 31.0078 1.625C31.0703 1.60937 31.125 1.59375 31.1875 1.58594H31.2031C31.2422 1.57812 31.2891 1.57812 31.3281 1.57031H31.4688C31.5 1.57031 31.5312 1.57812 31.5547 1.57812C31.5625 1.57812 31.5703 1.57812 31.5781 1.58594C31.6016 1.58594 31.6172 1.59375 31.6328 1.60156C31.6406 1.60156 31.6484 1.60937 31.6563 1.60937C31.6719 1.61719 31.6875 1.61719 31.7031 1.625C31.7109 1.625 31.7187 1.63281 31.7266 1.63281L31.7734 1.65625C31.7813 1.65625 31.7891 1.66406 31.7969 1.66406L30.6406 0.992187C30.6406 0.992187 30.6328 0.992187 30.6328 0.984375C30.625 0.984375 30.625 0.976562 30.6172 0.976562L30.5703 0.953124C30.5703 0.953124 30.5625 0.953125 30.5625 0.945312C30.5547 0.945312 30.5547 0.945312 30.5469 0.937499C30.5312 0.929687 30.5156 0.929687 30.5 0.921875C30.4922 0.921875 30.4922 0.921874 30.4844 0.914062H30.4766C30.4609 0.906249 30.4375 0.906249 30.4219 0.898437H30.4062H30.3984C30.3672 0.890624 30.3438 0.890625 30.3125 0.890625H30.1875H30.1797C30.1406 0.890625 30.1016 0.898437 30.0547 0.90625H30.0469H30.0391C29.9844 0.914062 29.9219 0.929687 29.8594 0.945312H29.8516C29.8437 0.945312 29.8359 0.953124 29.8359 0.953124C29.7969 0.960937 29.7578 0.976562 29.7188 0.992187C29.7031 0.999999 29.6953 1 29.6797 1.00781C29.6328 1.02344 29.5859 1.04687 29.5312 1.0625C29.5234 1.0625 29.5234 1.07031 29.5156 1.07031C29.4687 1.09375 29.4219 1.10937 29.3672 1.13281L29.3203 1.15625C29.2656 1.1875 29.2031 1.21094 29.1484 1.24219C29.1094 1.26562 29.0703 1.28125 29.0312 1.30469C28.9297 1.36719 28.8281 1.42969 28.7344 1.49219L28.6406 1.5625C28.5781 1.60937 28.5156 1.64844 28.4609 1.69531C28.4297 1.72656 28.3906 1.75 28.3594 1.78125C28.3047 1.82031 28.2578 1.86719 28.2109 1.91406C28.1797 1.94531 28.1406 1.97656 28.1094 2.00781C28.0781 2.03125 28.0547 2.0625 28.0234 2.08594L27.9688 2.14062L27.8984 2.21094C27.8516 2.26562 27.7969 2.32031 27.75 2.375C27.7344 2.39844 27.7109 2.41406 27.6953 2.4375L27.6719 2.46094C27.6328 2.50781 27.5859 2.55469 27.5469 2.60938C27.5312 2.63281 27.5078 2.65625 27.4922 2.67969L27.3047 2.91406C27.2031 3.03906 27.1094 3.17187 27.0156 3.29687C26.9219 3.42187 26.8281 3.53906 26.7422 3.66406L26.5781 3.875C26.5781 3.88281 26.5703 3.88281 26.5703 3.89062C26.5234 3.95312 26.4687 4.01562 26.4141 4.07031C26.3359 4.15625 26.2656 4.24219 26.1797 4.32031C26.125 4.375 26.0625 4.42969 26.0078 4.48438C25.9922 4.49219 25.9844 4.50781 25.9688 4.51562C25.9219 4.5625 25.8672 4.60156 25.8125 4.64062C25.7969 4.65625 25.7734 4.67188 25.7578 4.67969C25.6875 4.72656 25.625 4.77344 25.5469 4.8125C25.4922 4.84375 25.4375 4.875 25.3828 4.89844C25.3672 4.90625 25.3516 4.91406 25.3438 4.92187C25.2969 4.94531 25.2578 4.96094 25.2109 4.98437C25.2031 4.98437 25.1953 4.99219 25.1875 4.99219C25.1406 5.00781 25.0937 5.03125 25.0469 5.04688C25.0312 5.05469 25.0234 5.05469 25.0078 5.0625C24.9766 5.07031 24.9375 5.08594 24.9062 5.09375C24.8906 5.09375 24.875 5.10156 24.8672 5.10156L24.7734 5.125C24.7656 5.125 24.75 5.13281 24.7422 5.13281L24.625 5.15625H24.6094C24.5703 5.16406 24.5234 5.16406 24.4844 5.17187H24.4531C24.4062 5.17187 24.3672 5.17969 24.3203 5.17969C24.2344 5.17969 24.1406 5.1875 24.0547 5.17969H24.0391C23.9453 5.17969 23.8594 5.17187 23.7656 5.17187C23.6719 5.17187 23.5859 5.16406 23.4922 5.16406H23.1875C23.1328 5.16406 23.0703 5.17187 23.0078 5.17969H22.9766C22.9141 5.1875 22.8594 5.19531 22.7969 5.20312H22.7812C22.7734 5.20312 22.7656 5.20312 22.7578 5.21094C22.7109 5.21875 22.6562 5.22656 22.6016 5.24219C22.5937 5.24219 22.5859 5.24219 22.5781 5.25C22.5234 5.26562 22.4609 5.27344 22.3984 5.28906C22.3906 5.28906 22.3828 5.28906 22.3828 5.29687C22.375 5.29687 22.3672 5.30469 22.3594 5.30469C22.2891 5.32031 22.2188 5.34375 22.1406 5.375C22.1328 5.375 22.125 5.38281 22.1172 5.38281C22.0469 5.40625 21.9687 5.4375 21.8906 5.46875C21.8828 5.46875 21.875 5.47656 21.875 5.47656C21.8672 5.47656 21.8594 5.48437 21.8516 5.48437C21.7109 5.53906 21.5859 5.60937 21.4609 5.67969C21.3906 5.71875 21.3203 5.76562 21.25 5.8125C21.2344 5.82812 21.2109 5.83594 21.1953 5.85156C21.1406 5.89062 21.0859 5.9375 21.0312 5.97656C21.0234 5.98437 21.0156 5.99219 21 6C20.9531 6.03906 20.9063 6.08594 20.8594 6.13281L20.8359 6.15625C20.8125 6.17969 20.7969 6.20312 20.7734 6.21875L20.7031 6.28906C20.6875 6.30469 20.6797 6.32031 20.6641 6.33594C20.6563 6.35156 20.6406 6.36719 20.6328 6.375C20.625 6.39062 20.6094 6.39844 20.6016 6.41406C20.5703 6.45312 20.5469 6.49219 20.5156 6.53125C20.5156 6.53906 20.5078 6.53906 20.5078 6.54687C20.5 6.55469 20.5 6.5625 20.4922 6.57031L20.4453 6.64063C20.4219 6.67188 20.3984 6.71094 20.3828 6.74219L20.375 6.75C20.375 6.75781 20.3672 6.75781 20.3672 6.76562C20.3516 6.78906 20.3359 6.82031 20.3203 6.84375C20.2969 6.88281 20.2812 6.92188 20.2656 6.95313V6.96094C20.2656 6.96094 20.2656 6.96875 20.2578 6.96875C20.2422 7 20.2266 7.03906 20.2109 7.07031C20.1953 7.10156 20.1875 7.125 20.1797 7.15625C20.1719 7.16406 20.1719 7.17969 20.1641 7.1875C20.1641 7.19531 20.1563 7.19531 20.1563 7.20312C20.1406 7.25 20.1172 7.30469 20.1016 7.35156C20.1016 7.35937 20.0937 7.36719 20.0937 7.375C20.0859 7.39844 20.0781 7.42187 20.0703 7.4375C20.0625 7.46875 20.0547 7.5 20.0469 7.52344C20.0469 7.53906 20.0391 7.54687 20.0391 7.5625C20.0313 7.60156 20.0156 7.64844 20.0078 7.6875C20 7.71094 20 7.73437 19.9922 7.75C19.9922 7.75781 19.9922 7.76563 19.9844 7.77344C19.9609 7.875 19.9453 7.96875 19.9375 8.0625V8.07812C19.9375 8.10938 19.9297 8.14063 19.9297 8.16406C19.9297 8.19531 19.9219 8.21875 19.9219 8.25C19.9219 8.28906 19.9141 8.32812 19.9141 8.36719C19.9141 8.39062 19.9141 8.42187 19.9062 8.44531V8.8125C19.9297 9.52344 20.4766 10.7812 21.3281 11.2734L22.4844 11.9453C21.6328 11.4531 21.0859 10.1953 21.0625 9.48438V9.30469V9.24219V9.11719C21.0625 9.09375 21.0625 9.0625 21.0703 9.03906C21.0703 9 21.0781 8.96094 21.0781 8.92187C21.0781 8.89062 21.0859 8.86719 21.0859 8.83594C21.0859 8.79687 21.0937 8.76562 21.1016 8.72656C21.1172 8.63281 21.1328 8.53125 21.1484 8.4375L21.1719 8.34375C21.1797 8.30469 21.1953 8.25781 21.2031 8.21875C21.2109 8.17969 21.2266 8.13281 21.2422 8.09375C21.25 8.07031 21.2578 8.04687 21.2656 8.03125C21.2891 7.96875 21.3047 7.90625 21.3359 7.84375C21.3359 7.83594 21.3437 7.82031 21.3516 7.8125C21.375 7.75 21.4062 7.6875 21.4297 7.625C21.4297 7.625 21.4297 7.61719 21.4375 7.61719C21.4688 7.55469 21.5 7.48438 21.5391 7.42188C21.5391 7.41406 21.5469 7.41406 21.5469 7.40625L21.6641 7.21875C21.6719 7.21094 21.6719 7.20312 21.6797 7.19531C21.7188 7.14062 21.7656 7.07812 21.8047 7.02344C21.8125 7.00781 21.8281 6.99219 21.8359 6.98438C21.8672 6.94531 21.9062 6.90625 21.9453 6.86719C21.9688 6.84375 21.9844 6.82031 22.0078 6.80469C22.0625 6.75 22.1172 6.70312 22.1719 6.64844C22.1797 6.64062 22.1875 6.63281 22.2031 6.625C22.2578 6.57812 22.3125 6.53906 22.3672 6.5C22.3828 6.48437 22.4063 6.47656 22.4219 6.46094C22.4922 6.41406 22.5625 6.36719 22.6328 6.32813C22.75 6.25781 22.8828 6.19531 23.0234 6.13281C23.0391 6.125 23.0469 6.125 23.0625 6.11719C23.1406 6.08594 23.2187 6.05469 23.2891 6.03125C23.2969 6.03125 23.3047 6.02344 23.3125 6.02344C23.3906 6 23.4609 5.97656 23.5312 5.95312C23.5469 5.95312 23.5547 5.94531 23.5703 5.94531C23.6328 5.92969 23.6875 5.91406 23.75 5.90625C23.7578 5.90625 23.7656 5.90625 23.7734 5.89844C23.8281 5.89062 23.875 5.875 23.9297 5.86719C23.9453 5.86719 23.9531 5.85937 23.9688 5.85937C24.0312 5.85156 24.0937 5.84375 24.1484 5.83594H24.1797C24.2422 5.82812 24.2969 5.82812 24.3594 5.82031H24.3672C24.4688 5.8125 24.5625 5.8125 24.6562 5.82031H24.6719C24.7656 5.82031 24.8594 5.82812 24.9453 5.82812C25.0391 5.82812 25.125 5.83594 25.2188 5.83594H25.5C25.5469 5.83594 25.5859 5.82812 25.6328 5.82812H25.6641C25.7031 5.82031 25.7422 5.82031 25.7891 5.8125H25.8047L25.9219 5.78906C25.9297 5.78906 25.9453 5.78125 25.9531 5.78125L26.0469 5.75781C26.0547 5.75781 26.0625 5.75781 26.0625 5.75C26.0703 5.75 26.0781 5.74219 26.0859 5.74219C26.1172 5.73437 26.1562 5.71875 26.1875 5.71094C26.2031 5.70312 26.2109 5.70312 26.2266 5.69531C26.2734 5.67969 26.3203 5.66406 26.3672 5.64062H26.375C26.3828 5.64062 26.3828 5.63281 26.3906 5.63281C26.4375 5.61719 26.4766 5.59375 26.5234 5.57031C26.5391 5.5625 26.5547 5.55469 26.5625 5.54687C26.6172 5.52344 26.6719 5.49219 26.7266 5.46094C26.7969 5.42188 26.8672 5.375 26.9375 5.32812C26.9531 5.3125 26.9766 5.30469 26.9922 5.28906C27.0469 5.25 27.0938 5.21094 27.1484 5.16406C27.1641 5.15625 27.1719 5.14062 27.1875 5.13281C27.2422 5.08594 27.2969 5.03906 27.3516 4.98437L27.3672 4.96875C27.4453 4.89062 27.5234 4.80469 27.6016 4.71875L27.6172 4.70312L27.7578 4.53906L27.7734 4.52344C27.8281 4.46094 27.875 4.39844 27.9219 4.33594C27.9297 4.32812 27.9297 4.32031 27.9375 4.32031C28.0312 4.20312 28.1172 4.07812 28.2109 3.95312C28.3047 3.82812 28.3984 3.69531 28.5 3.57031L28.6875 3.33594C28.7031 3.3125 28.7266 3.28906 28.7422 3.27344C28.7891 3.21875 28.8359 3.15625 28.8828 3.10156C28.8984 3.07812 28.9219 3.0625 28.9375 3.03906C28.9844 2.98438 29.0312 2.92969 29.0859 2.875L29.1562 2.80469C29.2031 2.75781 29.25 2.71094 29.2969 2.67187C29.3281 2.64062 29.3594 2.60937 29.3984 2.57812C29.4453 2.53125 29.5 2.49219 29.5469 2.44531C29.5781 2.41406 29.6172 2.39062 29.6484 2.35937C29.7031 2.3125 29.7656 2.26562 29.8281 2.22656L29.9219 2.15625C30.0156 2.09375 30.1172 2.03125 30.2188 1.96875C30.2578 1.94531 30.2969 1.92188 30.3359 1.90625C30.3984 1.875 30.4531 1.84375 30.5078 1.82031C30.4844 1.82812 30.5 1.82031 30.5156 1.8125Z" fill="#3B94E5"/>
<path d="M22.6016 6.33594C22.7187 6.26563 22.8516 6.20313 22.9922 6.14063C24.6641 5.4375 25.3437 6.26563 26.6953 5.48438C27.9922 4.73438 28.4375 3.00001 30.1797 1.99219C30.2187 1.96876 30.2578 1.94532 30.2969 1.92969C32.1406 0.929693 32.25 2.29688 32.25 3.03907C32.25 3.78907 31 7.89844 29.3437 8.85157L23.9922 11.9453C22.3359 12.8984 21.0937 10.5781 21.0625 9.5C21.0234 8.52344 21.2734 7.10157 22.6016 6.33594ZM29.6016 12.1016C35.8516 8.49219 37.3516 21.0625 37.4297 21.7188C37.4375 23.5703 36.1328 26.1875 34.5234 27.1172L19.1406 36.0078C17.5312 36.9375 16.2188 35.8281 16.2109 33.9766C16.2891 33.2266 17.7031 18.9766 23.9609 15.3672L29.6016 12.1016Z" fill="#267FD0"/>
<path d="M28.6172 17.5781C28.6562 17.5546 28.6953 17.539 28.7344 17.5312C28.8906 17.4843 29.0156 17.5625 29.0625 17.7187C29.1016 17.875 29.0625 18.0937 28.9453 18.2968L27.7812 20.3125L28.6484 19.8125C28.8125 19.7187 28.9609 19.7343 29.0469 19.8437C29.1328 19.9609 29.1328 20.1562 29.0469 20.3671C28.9687 20.5781 28.8125 20.7656 28.6484 20.8593L27.3516 21.6093V22.3046L28.6562 21.5468C28.8203 21.4531 28.9688 21.4687 29.0547 21.5781C29.1406 21.6953 29.1406 21.8906 29.0547 22.1015C28.9766 22.3125 28.8203 22.5 28.6562 22.5937L27.3594 23.3437L27.3672 24.875C27.375 25.0625 27.2969 25.2968 27.1484 25.4843C27.0781 25.5781 26.9922 25.6484 26.9141 25.6953C26.8359 25.7421 26.75 25.7656 26.6797 25.7578C26.5313 25.7421 26.4453 25.6015 26.4609 25.4062L26.4531 23.875L25.0234 24.7031C24.7812 24.8281 24.5937 24.7031 24.5937 24.4296C24.5937 24.1484 24.7812 23.8125 25.0234 23.6562L26.4531 22.8281V22.1328L25.0234 22.9609C25.0156 22.9687 25.0078 22.9765 24.9922 22.9765C24.8359 23.0703 24.6797 23.0625 24.6016 22.9453C24.5156 22.8281 24.5156 22.6171 24.6016 22.3984C24.6875 22.1953 24.8359 22.0078 24.9922 21.9218C25 21.914 25.0078 21.914 25.0234 21.9062L26.0781 21.2968L24.9062 20.625C24.7266 20.5234 24.7266 20.1875 24.9062 19.8828C24.9922 19.7265 25.1094 19.6093 25.2266 19.539C25.3438 19.4687 25.4609 19.4531 25.5547 19.5078L26.9375 20.2968L28.3125 17.9218C28.3828 17.7734 28.5 17.6484 28.6172 17.5781Z" fill="#267FD0" fill-opacity="0.5"/>
<path d="M27.4141 26.3516L27.4062 24.8203L26.5625 24.3281L26.5703 25.8594C26.5625 26.0156 26.6094 26.1328 26.7031 26.1875L27.5469 26.6797C27.4531 26.625 27.4063 26.5078 27.4141 26.3516ZM29.7891 22.4297H29.8672L29.9375 22.4531L29.0938 21.9609C29.0859 21.9531 29.0781 21.9531 29.0703 21.9531C29.0625 21.9531 29.0547 21.9453 29.0469 21.9453C29.0391 21.9453 29.0312 21.9453 29.0312 21.9375H28.9531H28.9297C28.9141 21.9375 28.9062 21.9453 28.8906 21.9453C28.8828 21.9453 28.875 21.9531 28.875 21.9531C28.8672 21.9531 28.8672 21.9531 28.8594 21.9609C28.8516 21.9609 28.8437 21.9609 28.8437 21.9687C28.8203 21.9766 28.8047 21.9844 28.7813 22L27.4844 22.75L28.3281 23.2422L29.625 22.4922C29.6562 22.4766 29.6797 22.4609 29.7109 22.4531C29.7187 22.4531 29.7188 22.4531 29.7266 22.4453C29.7422 22.4375 29.7656 22.4297 29.7891 22.4297ZM29.7812 20.6875C29.7891 20.6875 29.7891 20.6875 29.7812 20.6875H29.8594L29.9297 20.7109L29.0859 20.2187C29.0781 20.2109 29.0703 20.2109 29.0625 20.2109C29.0547 20.2109 29.0469 20.2031 29.0391 20.2031C29.0312 20.2031 29.0234 20.2031 29.0234 20.1953H28.9375H28.9141C28.8984 20.1953 28.8906 20.2031 28.875 20.2031C28.8672 20.2031 28.8594 20.2109 28.8594 20.2109C28.8516 20.2109 28.8516 20.2109 28.8437 20.2187C28.8359 20.2187 28.8281 20.2187 28.8281 20.2266C28.8047 20.2344 28.7891 20.2422 28.7656 20.2578L27.8984 20.7578L28.7422 21.25L29.6094 20.75C29.6406 20.7344 29.6641 20.7187 29.6953 20.7109C29.7031 20.7109 29.7031 20.7109 29.7109 20.7031C29.7344 20.6953 29.7578 20.6875 29.7812 20.6875ZM27.3984 23.7734L26.5625 23.2812L26.5547 22.5859L27.3984 23.0781V23.7734Z" fill="#ACC5EA"/>
<path d="M29.8047 18.4609C29.8281 18.4609 29.8437 18.4687 29.8594 18.4687C29.875 18.4766 29.8906 18.4766 29.8984 18.4844L29.0547 17.9922C29.0469 17.9844 29.0391 17.9844 29.0312 17.9844C29.0234 17.9844 29.0234 17.9766 29.0156 17.9766H29.0078C29 17.9766 28.9922 17.9688 28.9844 17.9688H28.9688H28.9609H28.9219H28.9063H28.8828C28.8672 17.9688 28.8594 17.9766 28.8437 17.9766C28.8281 17.9844 28.8047 17.9844 28.7891 17.9922C28.7656 18 28.75 18.0078 28.7266 18.0234C28.6953 18.0391 28.6719 18.0625 28.6406 18.0781L28.6172 18.1016C28.6016 18.1172 28.5859 18.125 28.5781 18.1406L28.5625 18.1562L28.5469 18.1719L28.5234 18.1953C28.5078 18.2109 28.5 18.2266 28.4844 18.2422C28.4844 18.25 28.4766 18.25 28.4766 18.2578L28.4688 18.2656C28.4609 18.2734 28.4609 18.2812 28.4531 18.2812C28.4453 18.2969 28.4375 18.3047 28.4297 18.3203C28.4219 18.3359 28.4141 18.3438 28.4062 18.3594V18.3672L27.0313 20.7422L27.875 21.2344L29.25 18.8594C29.2734 18.8203 29.2969 18.7891 29.3203 18.7578L29.3281 18.75C29.3516 18.7188 29.375 18.6953 29.3984 18.6719L29.4141 18.6562L29.4687 18.6016L29.4922 18.5781C29.5234 18.5547 29.5469 18.5391 29.5781 18.5234C29.6016 18.5078 29.6172 18.5 29.6406 18.4922C29.6563 18.4844 29.6797 18.4766 29.6953 18.4687C29.7109 18.4609 29.7344 18.4609 29.75 18.4609H29.8047ZM25.5547 25.25L25.5781 25.1562V25.1484C25.5859 25.1172 25.6016 25.0781 25.6172 25.0469V25.0391C25.6328 25.0078 25.6484 24.9687 25.6641 24.9375C25.6641 24.9375 25.6641 24.9297 25.6719 24.9297C25.6875 24.8984 25.7109 24.8672 25.7344 24.8359C25.7578 24.8047 25.7812 24.7734 25.8047 24.75L25.8125 24.7422L25.875 24.6797L25.8984 24.6562C25.9219 24.6328 25.9531 24.6172 25.9766 24.5937L27.4062 23.7656L26.5625 23.2734L25.1328 24.1016C25.1094 24.1172 25.0781 24.1406 25.0547 24.1641L25.0313 24.1875L25.0078 24.2109L24.9687 24.25L24.9609 24.2578L24.9531 24.2656C24.9375 24.2812 24.9297 24.2969 24.9141 24.3125C24.9063 24.3281 24.8984 24.3359 24.8828 24.3516C24.875 24.3672 24.8672 24.375 24.8594 24.3906C24.8516 24.4062 24.8438 24.4141 24.8359 24.4297C24.8359 24.4375 24.8281 24.4375 24.8281 24.4453C24.8281 24.4453 24.8281 24.4531 24.8203 24.4531C24.8203 24.4609 24.8125 24.4609 24.8125 24.4687C24.8047 24.4844 24.7969 24.4922 24.7891 24.5078C24.7812 24.5234 24.7734 24.5312 24.7734 24.5469V24.5625C24.7734 24.5703 24.7656 24.5781 24.7656 24.5859C24.7578 24.6016 24.7578 24.6172 24.75 24.6328C24.75 24.6406 24.7422 24.6562 24.7422 24.6641V24.6797C24.7344 24.6953 24.7344 24.7187 24.7266 24.7344C24.7266 24.75 24.7188 24.7578 24.7188 24.7734V24.8047C24.7188 24.8359 24.7109 24.8672 24.7109 24.8906C24.7109 25 24.7422 25.0859 24.7891 25.1406C24.8047 25.1562 24.8203 25.1719 24.8438 25.1875L25.6875 25.6797C25.6016 25.6328 25.5547 25.5312 25.5547 25.3828C25.5547 25.3516 25.5547 25.3125 25.5625 25.2812C25.5547 25.2578 25.5547 25.2578 25.5547 25.25Z" fill="#ACC5EA"/>
<path d="M26.1875 21.75L25.1328 22.3594C25.125 22.3672 25.1172 22.3672 25.1016 22.375C25.0625 22.3984 25.0313 22.4219 25 22.4531L24.9766 22.4766L24.9531 22.5C24.9375 22.5156 24.9219 22.5313 24.9063 22.5547C24.8984 22.5625 24.8984 22.5703 24.8906 22.5781L24.8828 22.5859L24.8672 22.6016C24.8594 22.6172 24.8438 22.625 24.8359 22.6406C24.8281 22.6563 24.8203 22.6641 24.8125 22.6797C24.8047 22.6875 24.7969 22.7031 24.7969 22.7109V22.7188C24.7891 22.7344 24.7812 22.7422 24.7734 22.7578C24.7656 22.7734 24.7578 22.7813 24.7578 22.7969C24.75 22.8125 24.7422 22.8203 24.7422 22.8359C24.7344 22.8438 24.7344 22.8516 24.7344 22.8672C24.7344 22.875 24.7266 22.875 24.7266 22.8828C24.7188 22.8984 24.7188 22.9141 24.7109 22.9297C24.7109 22.9375 24.7109 22.9375 24.7031 22.9453C24.7031 22.9531 24.7031 22.9531 24.6953 22.9609C24.6953 22.9688 24.6953 22.9688 24.6875 22.9766C24.6797 22.9922 24.6797 23.0078 24.6719 23.0313V23.0391C24.6719 23.0547 24.6641 23.0703 24.6641 23.0938V23.1016C24.6641 23.1328 24.6562 23.1563 24.6562 23.1875V23.2031C24.6562 23.2266 24.6563 23.25 24.6641 23.2656C24.6641 23.2734 24.6641 23.2812 24.6719 23.2891C24.6719 23.3047 24.6797 23.3203 24.6875 23.3359C24.6875 23.3438 24.6953 23.3516 24.6953 23.3594C24.7031 23.3828 24.7188 23.3984 24.7266 23.4141C24.7422 23.4375 24.7656 23.4609 24.7969 23.4766L25.6406 23.9688C25.6172 23.9531 25.5938 23.9375 25.5703 23.9063C25.5547 23.8906 25.5469 23.8672 25.5391 23.8516C25.5391 23.8438 25.5313 23.8359 25.5313 23.8281C25.5234 23.8125 25.5234 23.7969 25.5156 23.7813C25.5156 23.7734 25.5156 23.7656 25.5078 23.7578C25.5078 23.7344 25.5 23.7188 25.5 23.6953V23.6797C25.5 23.6484 25.5 23.625 25.5078 23.5938C25.5078 23.5781 25.5156 23.5547 25.5156 23.5391V23.5313C25.5234 23.5078 25.5234 23.4844 25.5313 23.4609C25.5313 23.4531 25.5313 23.4531 25.5391 23.4453C25.5469 23.4219 25.5547 23.3984 25.5625 23.3672C25.5859 23.3125 25.6094 23.2656 25.6328 23.2188C25.6562 23.1719 25.6875 23.1328 25.7188 23.0938L25.7266 23.0859C25.7578 23.0469 25.7891 23.0156 25.8203 22.9922L25.8438 22.9688C25.875 22.9375 25.9141 22.9141 25.9453 22.8906C25.9531 22.8828 25.9609 22.8828 25.9766 22.875L27.0313 22.2656L26.1875 21.75ZM26.5 20.4531L25.6563 19.9688L27.0391 20.75L27.8828 21.2422L26.5 20.4531Z" fill="#ACC5EA"/>
<path d="M29.5781 18.5234C29.6172 18.5 29.6562 18.4843 29.6953 18.4765C29.8516 18.4296 29.9766 18.5078 30.0234 18.664C30.0625 18.8203 30.0234 19.039 29.9063 19.2421L28.7422 21.2578L29.6094 20.7578C29.7734 20.664 29.9219 20.6796 30.0078 20.789C30.0938 20.9062 30.0938 21.1015 30.0078 21.3125C29.9297 21.5234 29.7734 21.7109 29.6094 21.8046L28.3125 22.5546V23.25L29.6094 22.5C29.7734 22.4062 29.9219 22.4218 30.0078 22.5312C30.0938 22.6484 30.0938 22.8437 30.0078 23.0546C29.9297 23.2656 29.7734 23.4531 29.6094 23.5468L28.3125 24.2968L28.3203 25.8281C28.3281 26.0156 28.25 26.25 28.1016 26.4375C28.0313 26.5312 27.9453 26.6015 27.8672 26.6484C27.7891 26.6953 27.7031 26.7187 27.6328 26.7109C27.4844 26.6953 27.3984 26.5546 27.4141 26.3593L27.4063 24.8281L25.9766 25.6562C25.7344 25.7812 25.5469 25.6562 25.5469 25.3828C25.5469 25.1015 25.7344 24.7656 25.9766 24.6093L27.4063 23.7812V23.0859L25.9766 23.914C25.9688 23.9218 25.9609 23.9296 25.9453 23.9296C25.7891 24.0234 25.6328 24.0156 25.5547 23.8984C25.4688 23.7812 25.4688 23.5703 25.5547 23.3515C25.6406 23.1484 25.7891 22.9609 25.9453 22.875C25.9531 22.8671 25.9609 22.8671 25.9766 22.8593L27.0313 22.25L25.8594 21.5781C25.6797 21.4765 25.6797 21.1406 25.8594 20.8359C25.9453 20.6796 26.0625 20.5625 26.1797 20.4921C26.2969 20.4218 26.4141 20.4062 26.5078 20.4609L27.8906 21.25L29.2656 18.875C29.3438 18.7109 29.4609 18.5937 29.5781 18.5234Z" fill="#FDFDFF"/>
<path d="M25.8515 21.5703L25.0078 21.0781C24.8984 21.0156 24.8593 20.8672 24.8828 20.6953L25.7265 21.1875C25.7031 21.3672 25.7421 21.5078 25.8515 21.5703ZM25.7265 21.1875L24.8828 20.6953C24.8828 20.6719 24.8906 20.6562 24.8906 20.6328L25.7343 21.125C25.7265 21.1484 25.7265 21.1719 25.7265 21.1875Z" fill="#ACC5EA"/>
<path d="M25.7344 21.125L24.8906 20.6328C24.8906 20.6172 24.8984 20.6016 24.9063 20.5781L25.75 21.0703C25.7422 21.0937 25.7344 21.1094 25.7344 21.125ZM25.75 21.0703L24.9063 20.5781C24.9141 20.5625 24.9141 20.5469 24.9219 20.5312L25.7656 21.0234C25.7578 21.0391 25.75 21.0547 25.75 21.0703Z" fill="#ACC5EA"/>
<path d="M25.7578 21.0234L24.9141 20.5312C24.9219 20.5156 24.9219 20.5 24.9297 20.4922L25.7734 20.9844C25.7734 21 25.7656 21.0078 25.7578 21.0234ZM25.7734 20.9844L24.9297 20.4922C24.9375 20.4766 24.9375 20.4688 24.9453 20.4531L25.7891 20.9453C25.7891 20.9531 25.7812 20.9687 25.7734 20.9844ZM25.7969 20.9453L24.9531 20.4531C24.9609 20.4375 24.9609 20.4297 24.9687 20.4141L25.8125 20.9062C25.8047 20.9141 25.7969 20.9297 25.7969 20.9453ZM25.8125 20.9062L24.9687 20.4141C24.9766 20.3984 24.9844 20.3906 24.9922 20.375L25.8359 20.8672C25.8203 20.875 25.8203 20.8906 25.8125 20.9062Z" fill="#ACC5EA"/>
<path d="M25.8281 20.8672L24.9844 20.375C24.9922 20.3672 25 20.3516 25 20.3438V20.3359L25.8438 20.8281V20.8359C25.8438 20.8437 25.8359 20.8516 25.8281 20.8672ZM25.8516 20.8281L25.0078 20.3359C25.0156 20.3203 25.0234 20.3125 25.0313 20.2969L25.875 20.7891C25.8672 20.7969 25.8594 20.8125 25.8516 20.8281Z" fill="#ACC5EA"/>
<path d="M25.875 20.7891L25.0312 20.2969C25.0391 20.2813 25.0469 20.2734 25.0547 20.2578L25.8984 20.75C25.8906 20.7578 25.8828 20.7734 25.875 20.7891ZM25.9062 20.75L25.0625 20.2578C25.0703 20.2422 25.0859 20.2266 25.0937 20.2188L25.9375 20.7109C25.9219 20.7188 25.9141 20.7344 25.9062 20.75ZM25.9297 20.7031L25.0859 20.2109C25.1016 20.1953 25.1094 20.1797 25.125 20.1641L25.9688 20.6563C25.9609 20.6719 25.9453 20.6875 25.9297 20.7031Z" fill="#ACC5EA"/>
<path d="M25.9688 20.6641L25.125 20.1719C25.1406 20.1562 25.1563 20.1328 25.1719 20.1172L26.0156 20.6094C26 20.625 25.9844 20.6406 25.9688 20.6641ZM26.0234 20.6094L25.1797 20.1172C25.2266 20.0703 25.2813 20.0313 25.3359 20C25.3594 19.9844 25.3828 19.9766 25.3984 19.9687L26.2344 20.4531C26.2109 20.4609 26.1875 20.4766 26.1719 20.4844C26.125 20.5156 26.0703 20.5625 26.0234 20.6094ZM26.2344 20.4531L25.3906 19.9609C25.4063 19.9531 25.4297 19.9453 25.4453 19.9453L26.2891 20.4375C26.2734 20.4453 26.2578 20.4453 26.2344 20.4531Z" fill="#ACC5EA"/>
<path d="M26.2891 20.4375L25.4453 19.9453C25.4609 19.9453 25.4688 19.9375 25.4844 19.9375L26.3281 20.4297C26.3203 20.4297 26.3047 20.4375 26.2891 20.4375ZM26.3359 20.4297L25.4922 19.9375H25.5234L26.3672 20.4297H26.3359Z" fill="#ACC5EA"/>
<path d="M26.3672 20.4297L25.5234 19.9375H25.5547L26.3984 20.4297C26.3828 20.4219 26.375 20.4219 26.3672 20.4297ZM26.3984 20.4297L25.5547 19.9375H25.5859L26.4297 20.4297H26.3984Z" fill="#ACC5EA"/>
<path d="M26.4219 20.4297L25.5781 19.9375C25.5859 19.9375 25.5937 19.9375 25.6016 19.9453L26.4453 20.4375C26.4375 20.4297 26.4297 20.4297 26.4219 20.4297ZM26.4531 20.4375L25.6094 19.9453C25.6172 19.9453 25.625 19.9531 25.6328 19.9531L26.4766 20.4453C26.4688 20.4375 26.4609 20.4375 26.4531 20.4375Z" fill="#ACC5EA"/>
<path d="M26.4766 20.4453L25.6328 19.9531C25.6406 19.9531 25.6484 19.9609 25.6563 19.9609L26.5 20.4531C26.4922 20.4531 26.4844 20.4453 26.4766 20.4453Z" fill="#ACC5EA"/>
<path d="M44.0078 22.4531C44.0234 22.4453 44.0391 22.4453 44.0547 22.4375C44.0703 22.4375 44.0781 22.4297 44.0937 22.4297C44.1094 22.4297 44.125 22.4219 44.1484 22.4219H44.2578C44.2812 22.4219 44.3047 22.4297 44.3281 22.4297C44.3359 22.4297 44.3359 22.4297 44.3437 22.4375C44.3594 22.4453 44.3828 22.4453 44.3984 22.4531C44.4062 22.4531 44.4062 22.4531 44.4141 22.4609C44.4375 22.4688 44.4609 22.4766 44.4766 22.4922L43.3203 21.8203H43.3125L43.2656 21.7969H43.2578C43.25 21.7969 43.25 21.7969 43.2422 21.7891C43.2344 21.7891 43.2266 21.7812 43.2188 21.7812C43.2109 21.7812 43.2031 21.7734 43.1875 21.7734C43.1797 21.7734 43.1797 21.7734 43.1719 21.7656H43.1641C43.1484 21.7656 43.125 21.7578 43.1016 21.7578H42.9609C42.9531 21.7578 42.9453 21.7578 42.9375 21.7656C42.9219 21.7656 42.9141 21.7734 42.8984 21.7734C42.8906 21.7734 42.8828 21.7734 42.875 21.7812C42.8672 21.7812 42.8594 21.7891 42.8516 21.7891L42.7812 21.8125C42.7734 21.8125 42.7656 21.8203 42.7578 21.8203C42.75 21.8203 42.75 21.8281 42.7422 21.8281C42.7031 21.8437 42.6641 21.8672 42.6172 21.8906L42.125 22.1719L43.2812 22.8437L43.7734 22.5625C43.8125 22.5391 43.8594 22.5156 43.8984 22.5C43.9141 22.4922 43.9219 22.4922 43.9375 22.4844C43.9609 22.4687 43.9844 22.4609 44.0078 22.4531Z" fill="#C68620"/>
<path d="M42.3516 22.2422C42.3516 21.8828 42.2578 21.6016 42.0938 21.4219C42.0391 21.3594 41.9766 21.3125 41.9062 21.2734L40.75 20.6016C41.0234 20.7578 41.1953 21.1016 41.1953 21.5781V22.7031L42.3516 23.375V22.2422ZM39.3125 25.1328L38.1562 24.4609L41.1953 22.7031L42.3516 23.375L39.3125 25.1328ZM36.9219 27.4297C36.9219 27.4062 36.9297 27.375 36.9375 27.3516C36.9375 27.3359 36.9453 27.3125 36.9453 27.2969C36.9453 27.2812 36.9531 27.2656 36.9609 27.25C36.9687 27.2266 36.9766 27.2031 36.9766 27.1797C36.9844 27.1641 36.9844 27.1562 36.9922 27.1406C37 27.1172 37.0078 27.0859 37.0156 27.0625C37.0156 27.0547 37.0234 27.0391 37.0234 27.0313C37.0391 26.9922 37.0547 26.9609 37.0703 26.9219C37.0703 26.9219 37.0703 26.9141 37.0781 26.9141L37.125 26.8203C37.1328 26.8125 37.1328 26.7969 37.1406 26.7891C37.1562 26.7578 37.1719 26.7266 37.1875 26.7031C37.1875 26.6953 37.1953 26.6953 37.1953 26.6875C37.2187 26.6562 37.2344 26.6172 37.2578 26.5859C37.2656 26.5781 37.2734 26.5703 37.2734 26.5547L37.3203 26.4844C37.3281 26.4688 37.3359 26.4609 37.3438 26.4453C37.3594 26.4297 37.375 26.4063 37.3906 26.3906C37.4062 26.375 37.4141 26.3594 37.4297 26.3438C37.4453 26.3281 37.4531 26.3125 37.4687 26.3047C37.4922 26.2813 37.5156 26.2578 37.5312 26.2344L37.5625 26.2031C37.6094 26.1562 37.6562 26.1172 37.7031 26.0781C37.7109 26.0703 37.7187 26.0625 37.7266 26.0625C37.7734 26.0234 37.8281 25.9922 37.8828 25.9609L38.375 25.6797L37.2187 25.0078L36.7266 25.2891C36.6719 25.3203 36.625 25.3516 36.5703 25.3906C36.5625 25.3984 36.5547 25.4062 36.5469 25.4062C36.5 25.4453 36.4531 25.4844 36.4063 25.5313L36.3984 25.5391L36.375 25.5625C36.3516 25.5859 36.3281 25.6094 36.3125 25.6328L36.2891 25.6563C36.2813 25.6641 36.2812 25.6719 36.2734 25.6797C36.2578 25.6953 36.25 25.7109 36.2344 25.7266C36.2266 25.7344 36.2188 25.75 36.2109 25.7578C36.2031 25.7656 36.1953 25.7734 36.1953 25.7813C36.1875 25.7969 36.1797 25.8047 36.1719 25.8203C36.1641 25.8281 36.1562 25.8359 36.1562 25.8438C36.1484 25.8594 36.1328 25.875 36.125 25.8906C36.1172 25.8984 36.1094 25.9063 36.1094 25.9219C36.1094 25.9297 36.1016 25.9297 36.1016 25.9375C36.0859 25.9609 36.0703 25.9922 36.0547 26.0234V26.0313C36.0547 26.0391 36.0469 26.0391 36.0469 26.0469C36.0391 26.0703 36.0234 26.0859 36.0156 26.1094C36.0078 26.1172 36.0078 26.125 36 26.1406C35.9922 26.1484 35.9922 26.1641 35.9844 26.1719C35.9766 26.1797 35.9766 26.1875 35.9687 26.1953C35.9609 26.2188 35.9453 26.2422 35.9375 26.2656C35.9375 26.2656 35.9375 26.2734 35.9297 26.2734C35.9141 26.3047 35.9062 26.3281 35.8906 26.3594C35.8906 26.3672 35.8906 26.3672 35.8828 26.375C35.875 26.3828 35.875 26.3984 35.875 26.4063C35.8672 26.4219 35.8672 26.4375 35.8594 26.4531C35.8594 26.4609 35.8516 26.4766 35.8516 26.4844C35.8437 26.5 35.8438 26.5078 35.8359 26.5234C35.8359 26.5313 35.8281 26.5391 35.8281 26.5469C35.8203 26.5625 35.8203 26.5781 35.8203 26.5937C35.8125 26.6094 35.8125 26.625 35.8047 26.6406C35.8047 26.6484 35.8047 26.6484 35.7969 26.6563C35.7969 26.6719 35.7969 26.6797 35.7891 26.6953C35.7812 26.7188 35.7812 26.75 35.7734 26.7734V26.8203C35.7656 26.875 35.7656 26.9375 35.7656 26.9922L35.7813 32.6328C35.7813 32.9453 35.8906 33.1641 36.0703 33.2656L37.2266 33.9375C37.0469 33.8359 36.9375 33.6172 36.9375 33.3047L36.9219 27.6641C36.9219 27.6094 36.9297 27.5469 36.9297 27.4922C36.9219 27.4609 36.9219 27.4453 36.9219 27.4297Z" fill="#C68620"/>
<path d="M43.7734 22.5547C44.3203 22.2422 44.7578 22.4922 44.7578 23.1172L44.7734 28.7578C44.7734 29.3828 44.3359 30.1407 43.7969 30.4532L37.9063 33.8516C37.3672 34.1641 36.9219 33.9141 36.9219 33.2891L36.9062 27.6485C36.9062 27.0235 37.3438 26.2657 37.8828 25.9532L38.375 25.6719V24.5469C38.3672 22.9922 39.4688 21.0938 40.8203 20.3125C42.1719 19.5313 43.2813 20.1563 43.2813 21.7188V22.8438L43.7734 22.5547ZM42.3516 23.375V22.25C42.3516 21.2891 41.6641 20.8985 40.8281 21.3828C39.9922 21.8672 39.3125 23.0469 39.3125 24.0078V25.1328L42.3516 23.375Z" fill="#FFCD2E"/>
<path d="M38.3906 24.1797C38.3984 24.125 38.4063 24.0625 38.4141 24C38.4219 23.9375 38.4375 23.8672 38.4453 23.8047C38.4531 23.7578 38.4609 23.7188 38.4687 23.6719C38.4766 23.6328 38.4922 23.5859 38.5 23.5469C38.5156 23.4922 38.5312 23.4297 38.5469 23.375C38.5547 23.3437 38.5703 23.3047 38.5781 23.2734C38.6016 23.2109 38.6172 23.1406 38.6406 23.0781C38.6484 23.0547 38.6563 23.0234 38.6719 23C38.7031 22.9062 38.7422 22.8203 38.7812 22.7266C38.7891 22.7187 38.7891 22.7031 38.7969 22.6953C38.8359 22.6172 38.8672 22.5391 38.9063 22.4609C38.9219 22.4375 38.9297 22.4141 38.9453 22.3906C38.9844 22.3125 39.0234 22.2422 39.0625 22.1719L39.0859 22.125C39.1328 22.0391 39.1875 21.9531 39.2422 21.875L39.2891 21.8047C39.3281 21.7422 39.3672 21.6875 39.4141 21.6328L39.4844 21.5391C39.5234 21.4922 39.5547 21.4453 39.5938 21.3984L39.6875 21.2812C39.7188 21.2422 39.75 21.2109 39.7813 21.1719C39.8359 21.1094 39.8906 21.0547 39.9453 21L40.0469 20.8984C40.0703 20.875 40.1016 20.8438 40.1328 20.8203C40.1797 20.7812 40.2266 20.7344 40.2734 20.6953C40.3047 20.6719 40.3281 20.6484 40.3594 20.625C40.4062 20.5859 40.4609 20.5469 40.5156 20.5078C40.5391 20.4922 40.5625 20.4687 40.5938 20.4531C40.6719 20.3984 40.75 20.3516 40.8281 20.3047C40.9062 20.2578 40.9766 20.2266 41.0547 20.1875C41.0703 20.1797 41.0938 20.1719 41.1094 20.1641C41.1797 20.1328 41.25 20.1016 41.3203 20.0781C41.3281 20.0781 41.3281 20.0781 41.3359 20.0703C41.3984 20.0469 41.4531 20.0312 41.5156 20.0234C41.5469 20.0156 41.5859 20.0078 41.6172 20C41.6641 19.9922 41.7031 19.9844 41.75 19.9766C41.7734 19.9766 41.7969 19.9687 41.8203 19.9687C41.875 19.9687 41.9297 19.9609 41.9766 19.9687H42.0156C42.0781 19.9687 42.1406 19.9766 42.1953 19.9922C42.2109 19.9922 42.2266 20 42.2422 20C42.2891 20.0078 42.3359 20.0234 42.375 20.0391C42.3906 20.0469 42.4062 20.0469 42.4141 20.0547C42.4687 20.0781 42.5234 20.1016 42.5781 20.1328L41.4219 19.4609C41.4141 19.4609 41.4141 19.4531 41.4063 19.4531C41.3672 19.4297 41.3281 19.4141 41.2812 19.3906C41.2734 19.3906 41.2656 19.3828 41.2578 19.3828C41.2422 19.375 41.2266 19.375 41.2188 19.3672C41.1953 19.3594 41.1797 19.3516 41.1563 19.3437C41.1328 19.3359 41.1094 19.3359 41.0859 19.3281C41.0703 19.3281 41.0547 19.3203 41.0391 19.3203C41.0313 19.3203 41.0234 19.3125 41.0156 19.3125C40.9688 19.3047 40.9141 19.2969 40.8672 19.2969H40.7031C40.6875 19.2969 40.6797 19.2969 40.6641 19.3047C40.6406 19.3047 40.6172 19.3125 40.5938 19.3125C40.5703 19.3125 40.5469 19.3125 40.5234 19.3203C40.5 19.3203 40.4844 19.3281 40.4609 19.3359C40.4297 19.3438 40.3906 19.3516 40.3594 19.3594C40.3438 19.3672 40.3203 19.3672 40.3047 19.3672C40.2656 19.375 40.2188 19.3906 40.1797 19.4062C40.1719 19.4062 40.1719 19.4062 40.1641 19.4141C40.1172 19.4297 40.0625 19.4531 40.0156 19.4687C39.9922 19.4766 39.9766 19.4844 39.9531 19.5C39.9375 19.5078 39.9141 19.5156 39.8984 19.5234C39.8281 19.5547 39.75 19.5937 39.6719 19.6406C39.5938 19.6875 39.5156 19.7344 39.4375 19.7891C39.4141 19.8047 39.3906 19.8281 39.3594 19.8438C39.3047 19.8828 39.2578 19.9219 39.2031 19.9609C39.1719 19.9844 39.1484 20.0078 39.1172 20.0312C39.0703 20.0703 39.0234 20.1094 38.9766 20.1562C38.9453 20.1797 38.9219 20.2109 38.8906 20.2344C38.875 20.25 38.8594 20.2656 38.8359 20.2812C38.8203 20.2969 38.8047 20.3203 38.7812 20.3359C38.7266 20.3906 38.6719 20.4531 38.6172 20.5078L38.5625 20.5625C38.5469 20.5781 38.5312 20.5937 38.5234 20.6094L38.4297 20.7266C38.4062 20.75 38.3906 20.7734 38.3672 20.8047C38.3516 20.8281 38.3359 20.8516 38.3203 20.8672L38.25 20.9609C38.2344 20.9844 38.2188 21 38.2031 21.0234C38.1797 21.0625 38.1563 21.1016 38.125 21.1328L38.0781 21.2031C38.0703 21.2109 38.0625 21.2187 38.0547 21.2344C38.0078 21.3047 37.9688 21.375 37.9297 21.4453C37.9297 21.4531 37.9219 21.4531 37.9219 21.4609C37.9141 21.4766 37.9062 21.4922 37.8984 21.5C37.8672 21.5469 37.8438 21.6016 37.8125 21.6484C37.7969 21.6719 37.7891 21.6953 37.7734 21.7188C37.7578 21.7422 37.75 21.7656 37.7344 21.7891C37.7266 21.8125 37.7109 21.8281 37.7031 21.8516C37.6719 21.9062 37.6484 21.9687 37.625 22.0234C37.6172 22.0312 37.6172 22.0469 37.6094 22.0547C37.6094 22.0547 37.6094 22.0625 37.6016 22.0625C37.5703 22.1328 37.5391 22.2109 37.5078 22.2812C37.5 22.2969 37.5 22.3047 37.4922 22.3203C37.4844 22.3437 37.4766 22.375 37.4609 22.3984C37.4453 22.4375 37.4297 22.4687 37.4219 22.5078C37.4141 22.5391 37.4063 22.5625 37.3984 22.5937C37.3906 22.625 37.375 22.6641 37.3672 22.6953C37.3594 22.7188 37.3516 22.7344 37.3516 22.7578C37.3438 22.7969 37.3359 22.8359 37.3203 22.8672C37.3125 22.9062 37.2969 22.9531 37.2891 22.9922C37.2891 23.0078 37.2813 23.0234 37.2813 23.0391C37.2734 23.0703 37.2734 23.1016 37.2656 23.1328C37.25 23.1953 37.2422 23.2656 37.2344 23.3281C37.2344 23.3437 37.2266 23.3672 37.2266 23.3828C37.2188 23.4219 37.2188 23.4609 37.2109 23.5078C37.2109 23.5391 37.2031 23.5625 37.2031 23.5938C37.1953 23.6875 37.1953 23.7734 37.1953 23.8672V24.9922L38.3516 25.6641V24.5391C38.3516 24.4531 38.3594 24.3594 38.3594 24.2656C38.3906 24.2422 38.3906 24.2109 38.3906 24.1797ZM40.625 26.4844C41.0547 26.2344 41.3984 26.4375 41.3984 26.9297C41.3984 27.3047 41.2031 27.7344 40.9141 28.0312V28.7969C40.9141 28.9844 40.7813 29.2031 40.625 29.2969C40.4688 29.3906 40.3359 29.3125 40.3359 29.1328V28.3672C40.0547 28.3984 39.8516 28.1953 39.8516 27.8203C39.8594 27.3281 40.2031 26.7266 40.625 26.4844Z" fill="#C68620"/>
<path d="M41.3203 29.8438V29.0781L40.4766 28.5859V29.3516C40.4766 29.4453 40.5078 29.5078 40.5625 29.5391L41.4063 30.0312C41.3516 30 41.3203 29.9375 41.3203 29.8438Z" fill="#E8CFAC"/>
<path d="M41.7891 27.1172C41.7969 27.1172 41.8125 27.1094 41.8203 27.1094C41.8281 27.1094 41.8438 27.1016 41.8516 27.1016C41.8672 27.1016 41.8828 27.0938 41.8906 27.0938H41.9688C41.9922 27.0938 42.0078 27.0937 42.0234 27.1016H42.0391C42.0547 27.1016 42.0703 27.1094 42.0781 27.1172C42.0859 27.1172 42.0859 27.1172 42.0937 27.125L42.1406 27.1484L41.2969 26.6563H41.2891C41.2734 26.6484 41.2656 26.6406 41.25 26.6406H41.2422C41.2344 26.6406 41.2344 26.6406 41.2266 26.6328C41.2188 26.6328 41.2109 26.625 41.2031 26.625C41.1953 26.625 41.1875 26.625 41.1797 26.6172H41.1641H41.1562C41.1406 26.6172 41.125 26.6094 41.1094 26.6094H40.9922C40.9844 26.6094 40.9766 26.6094 40.9766 26.6172C40.9688 26.6172 40.9531 26.625 40.9453 26.625H40.9297C40.9219 26.625 40.9219 26.6328 40.9141 26.6328C40.8984 26.6406 40.875 26.6406 40.8594 26.6484C40.8516 26.6484 40.8437 26.6563 40.8437 26.6563L40.8359 26.6641L40.7422 26.7109C40.6953 26.7422 40.6406 26.7734 40.5937 26.8125C40.5781 26.8281 40.5625 26.8359 40.5469 26.8516C40.5234 26.875 40.5 26.8906 40.4766 26.9141L40.4453 26.9453C40.4375 26.9531 40.4297 26.9609 40.4219 26.9766L40.3906 27.0078C40.3672 27.0313 40.3516 27.0547 40.3281 27.0859C40.3203 27.0938 40.3125 27.1016 40.3047 27.1172C40.3047 27.125 40.2969 27.125 40.2969 27.1328L40.2734 27.1562L40.2266 27.2266C40.2109 27.25 40.2031 27.2734 40.1875 27.2891V27.3047C40.1797 27.3203 40.1641 27.3438 40.1562 27.3594C40.1484 27.3828 40.1328 27.4063 40.125 27.4219C40.1172 27.4453 40.1094 27.4609 40.0938 27.4844C40.0859 27.5078 40.0781 27.5313 40.0625 27.5547L40.0391 27.625C40.0312 27.6406 40.0312 27.6484 40.0312 27.6641C40.0312 27.6719 40.0312 27.6719 40.0234 27.6797C40.0234 27.6875 40.0156 27.6953 40.0156 27.7031C40.0078 27.7344 40 27.7656 39.9922 27.7891C39.9922 27.8047 39.9844 27.8281 39.9844 27.8437C39.9844 27.8516 39.9844 27.8594 39.9766 27.875C39.9766 27.8828 39.9766 27.8906 39.9687 27.8984C39.9609 27.9531 39.9609 28 39.9609 28.0469C39.9609 28.2891 40.0469 28.4609 40.1875 28.5469L41.0313 29.0391C40.8906 28.9609 40.8047 28.7891 40.8047 28.5391C40.8047 28.4844 40.8125 28.4219 40.8203 28.3594C40.8203 28.3516 40.8203 28.3438 40.8281 28.3281C40.8359 28.2734 40.8516 28.2187 40.8672 28.1562C40.8672 28.1484 40.8672 28.1484 40.875 28.1406C40.8906 28.0781 40.9141 28.0156 40.9453 27.9609C40.9687 27.8984 41 27.8359 41.0391 27.7812V27.7734C41.0703 27.7188 41.1094 27.6641 41.1484 27.6094C41.1484 27.6016 41.1562 27.6016 41.1562 27.5938C41.1953 27.5469 41.2266 27.5 41.2656 27.4609C41.2734 27.4531 41.2812 27.4453 41.2891 27.4297L41.3828 27.3359C41.3984 27.3203 41.4141 27.3125 41.4297 27.2969C41.4766 27.2578 41.5234 27.2266 41.5781 27.1953L41.6719 27.1484C41.6797 27.1406 41.6953 27.1406 41.7031 27.1328C41.75 27.1328 41.7656 27.125 41.7891 27.1172Z" fill="#E8CFAC"/>
<path d="M41.6016 27.1953C42.0313 26.9453 42.375 27.1484 42.375 27.6406C42.375 28.0156 42.1797 28.4453 41.8906 28.7422V29.5078C41.8906 29.6953 41.7578 29.9141 41.6016 30.0078C41.4453 30.1016 41.3125 30.0234 41.3125 29.8438V29.0781C41.0313 29.1094 40.8281 28.9063 40.8281 28.5313C40.8281 28.0391 41.1797 27.4453 41.6016 27.1953Z" fill="white"/>
</svg>
