<svg width="62" height="56" viewBox="0 0 62 56" fill="none" xmlns="http://www.w3.org/2000/svg">
<path d="M61.7657 34.8125C61.6798 35.6719 60.8907 36.1016 60.2189 36.4922C59.5939 36.8516 58.9689 37.2187 58.3517 37.5781C57.3517 38.1562 56.3595 38.7344 55.3595 39.3125C54.1095 40.0391 52.8673 40.7656 51.6173 41.4844C50.2423 42.2812 48.8673 43.0859 47.4845 43.8828C46.1017 44.6875 44.7189 45.4922 43.3282 46.2969C42.0548 47.0391 40.7892 47.7734 39.5157 48.5156C38.4767 49.1172 37.4454 49.7188 36.4064 50.3203C35.7267 50.7109 35.047 51.1094 34.3673 51.5C33.8517 51.7969 33.3673 52.0937 32.7814 52.2656C31.2579 52.7031 29.5704 52.5547 28.1954 51.7578C27.7032 51.4687 27.2032 51.1875 26.711 50.8984C25.8048 50.375 24.9064 49.8594 24.0001 49.3359C22.8126 48.6484 21.6251 47.9609 20.4376 47.2812C19.086 46.5 17.7267 45.7187 16.3751 44.9375C14.9767 44.1328 13.5782 43.3203 12.1798 42.5156C10.8595 41.75 9.53917 40.9922 8.21105 40.2266L4.83605 38.2812C4.03136 37.8125 3.21886 37.3516 2.41417 36.8828C2.04698 36.6719 1.6798 36.4609 1.31261 36.2422C0.734484 35.9062 0.164171 35.375 0.164171 34.6562C0.164171 35.3125 0.164171 35.9687 0.156359 36.6328C0.156359 36.8672 0.140734 37.1094 0.156359 37.3516C0.203234 37.9844 0.703233 38.4766 1.22667 38.7891C1.54698 38.9844 1.87511 39.1641 2.20323 39.3516C3.04698 39.8359 3.89073 40.3281 4.73448 40.8125C5.95323 41.5156 7.16417 42.2188 8.38292 42.9219C9.82823 43.7578 11.2814 44.5937 12.7267 45.4297C14.2345 46.3047 15.7423 47.1719 17.2579 48.0469C18.6954 48.875 20.1251 49.7031 21.5626 50.5313C22.7579 51.2188 23.9454 51.9062 25.1407 52.5938C25.9454 53.0625 26.7579 53.5234 27.5626 53.9922C28.0314 54.2578 28.4923 54.5625 29.0001 54.75C30.586 55.3281 32.4454 55.2031 33.9064 54.3516C34.461 54.0312 35.0157 53.7031 35.5704 53.3828C36.5939 52.7891 37.6173 52.1953 38.6329 51.6016C39.9689 50.8281 41.297 50.0547 42.6329 49.2734C44.1251 48.4062 45.6173 47.5391 47.1017 46.6719L51.5782 44.0703C52.9142 43.2891 54.2501 42.5156 55.5939 41.7344C56.6329 41.1328 57.672 40.5312 58.711 39.9219C59.2814 39.5859 59.8595 39.2578 60.4298 38.9219C60.6017 38.8203 60.7814 38.7188 60.9454 38.6016C61.3829 38.2734 61.7267 37.8203 61.7345 37.25C61.7423 36.9609 61.7345 36.6797 61.7345 36.3906C61.7345 35.8203 61.7345 35.2422 61.7423 34.6719C61.7735 34.7266 61.7735 34.7734 61.7657 34.8125C61.7657 34.8281 61.7657 34.7891 61.7657 34.8125Z" fill="#8FC1EF"/>
<path d="M60.6563 33.125C62.1406 33.9844 62.1485 35.3828 60.6719 36.2422L33.7656 51.8828C32.2891 52.7422 29.875 52.7422 28.3906 51.8828L1.3047 36.2422C-0.17967 35.3828 -0.187482 33.9844 1.28908 33.125L28.1953 17.4844C29.6719 16.625 32.086 16.625 33.5703 17.4844L60.6563 33.125Z" fill="#E4ECF9"/>
<path d="M31.7891 1.6328C32.5312 1.20311 33.1406 1.55467 33.1484 2.40623L33.2266 29.4219C33.2266 30.2734 32.625 31.3281 31.8828 31.7578L18.0937 39.7109C17.3516 40.1406 16.7422 39.789 16.7344 38.9375L16.6562 11.9219C16.6562 11.0703 17.2578 10.0156 18.0078 9.58592L31.7891 1.6328Z" fill="#267FD0"/>
<path d="M30.5547 5.24221C30.8125 5.09377 31.0234 5.21096 31.0234 5.50783L31.0781 24.7735C31.0781 25.0703 30.8672 25.4375 30.6094 25.586L19.3281 32.1016C19.0703 32.25 18.8594 32.1328 18.8594 31.836L18.8047 12.5703C18.8047 12.2735 19.0156 11.9063 19.2734 11.7578L30.5547 5.24221Z" fill="#3B94E5"/>
<path d="M32.1016 1.49219C32.125 1.48437 32.1406 1.47656 32.1641 1.47656C32.1797 1.46875 32.2031 1.46875 32.2187 1.46094C32.2422 1.45313 32.2656 1.45312 32.2891 1.45312C32.3047 1.45312 32.3125 1.45313 32.3281 1.44531H32.4297C32.4609 1.44531 32.5 1.45313 32.5312 1.46094C32.5391 1.46094 32.5469 1.46094 32.5547 1.46875C32.5781 1.47656 32.6016 1.48437 32.6328 1.49219C32.6406 1.49219 32.6484 1.5 32.6562 1.5C32.6875 1.51563 32.7187 1.52344 32.7422 1.53906L31.5859 0.867187C31.5859 0.867187 31.5781 0.867188 31.5781 0.859375C31.5547 0.84375 31.5312 0.835937 31.5078 0.828125C31.5 0.828125 31.5 0.828125 31.4922 0.820313C31.4844 0.820313 31.4766 0.8125 31.4687 0.8125C31.4531 0.804688 31.4453 0.804688 31.4297 0.796875C31.4141 0.796875 31.4062 0.789062 31.3906 0.789062C31.3828 0.789062 31.375 0.78125 31.3672 0.78125H31.3516C31.3281 0.773438 31.2969 0.773438 31.2656 0.773438H31.1484C31.1328 0.773438 31.125 0.773438 31.1094 0.78125C31.0938 0.78125 31.0859 0.78125 31.0703 0.789062C31.0625 0.789062 31.0469 0.796875 31.0391 0.796875C31.0234 0.796875 31 0.804688 30.9844 0.8125C30.9766 0.8125 30.9609 0.8125 30.9531 0.820313C30.9453 0.820313 30.9297 0.828125 30.9219 0.828125C30.8906 0.835937 30.8594 0.851563 30.8281 0.859375C30.8203 0.867188 30.8047 0.867188 30.7969 0.875C30.7891 0.875 30.7812 0.882812 30.7812 0.882812C30.7266 0.90625 30.6719 0.929688 30.6172 0.96875L16.8516 8.91406C16.8047 8.9375 16.7656 8.96875 16.7266 8.99219C16.7109 9 16.7031 9.01562 16.6875 9.02344C16.6562 9.04688 16.6328 9.0625 16.6016 9.08594C16.5859 9.10156 16.5703 9.10937 16.5547 9.125C16.5312 9.14844 16.5 9.17187 16.4766 9.19531C16.4609 9.21094 16.4453 9.22656 16.4297 9.23437C16.4219 9.24219 16.4141 9.25 16.3984 9.25781C16.3906 9.26563 16.3828 9.28125 16.3672 9.28906L16.2734 9.38281C16.2656 9.39063 16.2578 9.40625 16.2422 9.41406C16.2344 9.42188 16.2266 9.42969 16.2187 9.44531C16.2031 9.46875 16.1797 9.48437 16.1641 9.50781C16.1562 9.52344 16.1406 9.53125 16.1328 9.54687C16.125 9.5625 16.1172 9.57031 16.1094 9.58594C16.0937 9.60156 16.0859 9.61719 16.0703 9.64062C16.0625 9.64844 16.0547 9.66406 16.0469 9.67188C16.0312 9.69531 16.0156 9.71094 16.0078 9.73438C16 9.75 15.9922 9.75781 15.9844 9.77344C15.9844 9.78125 15.9766 9.78125 15.9766 9.78906L15.9062 9.90625C15.9062 9.90625 15.9062 9.91406 15.8984 9.91406C15.8906 9.92188 15.8906 9.92969 15.8828 9.9375C15.8672 9.96875 15.8516 9.99219 15.8359 10.0234C15.8281 10.0391 15.8203 10.0469 15.8203 10.0625C15.8125 10.0781 15.8047 10.0937 15.7969 10.1016C15.7891 10.1172 15.7812 10.125 15.7812 10.1406C15.7656 10.1719 15.75 10.2031 15.7422 10.2344C15.7422 10.2422 15.7344 10.25 15.7344 10.2578V10.2656C15.7187 10.3047 15.7031 10.3438 15.6875 10.3906C15.6875 10.3984 15.6797 10.4062 15.6797 10.4141C15.6719 10.4297 15.6719 10.4453 15.6641 10.4609C15.6562 10.4844 15.6484 10.5 15.6406 10.5234C15.6328 10.5391 15.6328 10.5547 15.625 10.5703C15.6172 10.5859 15.6172 10.6094 15.6094 10.625C15.6094 10.6406 15.6016 10.6484 15.6016 10.6641C15.5937 10.6875 15.5938 10.7031 15.5859 10.7266C15.5781 10.75 15.5703 10.7734 15.5703 10.7969C15.5703 10.8047 15.5625 10.8125 15.5625 10.8203C15.5625 10.8359 15.5547 10.8516 15.5547 10.8672C15.5469 10.9063 15.5391 10.9375 15.5391 10.9766C15.5391 10.9844 15.5312 11 15.5312 11.0078C15.5312 11.0312 15.5234 11.0547 15.5234 11.0703C15.5234 11.0859 15.5234 11.1016 15.5156 11.1172C15.5156 11.1641 15.5078 11.2187 15.5078 11.2656L15.5859 38.2812C15.5859 38.6562 15.7031 38.9297 15.8984 39.0859C15.9297 39.1094 15.9531 39.125 15.9844 39.1484L17.1406 39.8203C16.8984 39.6797 16.7422 39.3828 16.7422 38.9531L16.6641 11.9375C16.6641 11.8906 16.6641 11.8359 16.6719 11.7891C16.6719 11.7734 16.6719 11.7578 16.6797 11.7422C16.6797 11.7109 16.6875 11.6797 16.6953 11.6484C16.7031 11.6172 16.7031 11.5781 16.7109 11.5391C16.7187 11.5156 16.7187 11.4922 16.7266 11.4609C16.7344 11.4375 16.7344 11.4141 16.7422 11.3906L16.7656 11.2969C16.7734 11.2813 16.7734 11.2578 16.7812 11.2422C16.7891 11.2031 16.8047 11.1719 16.8203 11.1328C16.8281 11.1172 16.8281 11.1016 16.8359 11.0859C16.8516 11.0391 16.875 10.9844 16.8984 10.9375C16.8984 10.9297 16.9062 10.9219 16.9062 10.9141C16.9219 10.8672 16.9453 10.8281 16.9687 10.7891C16.9766 10.7734 16.9844 10.7656 16.9922 10.75C17.0156 10.7109 17.0391 10.6641 17.0547 10.625C17.0625 10.6172 17.0625 10.6094 17.0703 10.6016C17.0938 10.5547 17.125 10.5078 17.1562 10.4609C17.1641 10.4453 17.1719 10.4375 17.1797 10.4219L17.25 10.3281C17.2656 10.3125 17.2734 10.2969 17.2891 10.2734C17.3125 10.25 17.3281 10.2188 17.3516 10.1953C17.3672 10.1719 17.3828 10.1484 17.4062 10.1328C17.4219 10.1094 17.4375 10.0938 17.4609 10.0703C17.4922 10.0391 17.5234 10.0078 17.5469 9.97656L17.6016 9.92188C17.6172 9.90625 17.6328 9.89063 17.6484 9.88281C17.6719 9.85938 17.7031 9.83594 17.7266 9.8125C17.7422 9.79688 17.7578 9.78906 17.7734 9.77344C17.8047 9.75 17.8281 9.72656 17.8594 9.71094C17.875 9.70312 17.8828 9.6875 17.8984 9.67969C17.9375 9.64844 17.9844 9.625 18.0234 9.60156L31.8047 1.64844C31.8594 1.61719 31.9141 1.58594 31.9766 1.5625C31.9922 1.55469 32.0156 1.54688 32.0312 1.53906C32.0391 1.51563 32.0781 1.5 32.1016 1.49219Z" fill="#3B94E5"/>
<path d="M25.7578 30.1953C26.6094 29.7031 27.2969 30.1015 27.3047 31.0781C27.3125 32.0546 26.6172 33.2421 25.7734 33.7343C24.9219 34.2265 24.2344 33.8281 24.2344 32.8515C24.2344 31.8749 24.9062 30.6874 25.7578 30.1953Z" fill="white"/>
<path d="M23.8281 19.2891C23.7187 19.2266 23.7187 19.0156 23.8281 18.8203L25.2422 16.375C25.2969 16.2813 25.3672 16.2031 25.4453 16.1562C25.4687 16.1406 25.4922 16.1328 25.5156 16.125C25.6172 16.1016 25.6953 16.1406 25.7187 16.2422C25.7422 16.3438 25.7187 16.4766 25.6406 16.6016L24.2266 19.0469C24.1719 19.1406 24.0938 19.2188 24.0234 19.2578C23.9609 19.3047 23.8906 19.3203 23.8281 19.2891Z" fill="#267FD0" fill-opacity="0.7"/>
<path d="M24.9219 18.5704C25.0235 18.5469 25.1016 18.586 25.125 18.6875C25.1485 18.7891 25.125 18.9219 25.0469 19.0469L24.4375 20.0938C24.211 20.4766 23.9219 20.7813 23.625 20.9454C23.3282 21.1172 23.0391 21.1563 22.8125 21.0235C22.3672 20.7657 22.3594 19.9375 22.8047 19.1641L23.4141 18.1172C23.4688 18.0235 23.5391 17.9454 23.6172 17.8985C23.6406 17.8829 23.6641 17.875 23.6875 17.8672C23.7891 17.8438 23.8672 17.8829 23.8907 17.9844C23.9141 18.086 23.8907 18.2188 23.8125 18.3438L23.2032 19.3907C23.0547 19.6407 23 19.9141 23.0547 20.1172C23.1094 20.3125 23.2656 20.4063 23.461 20.3516C23.5078 20.336 23.5625 20.3204 23.6094 20.2891C23.7578 20.2032 23.9063 20.0469 24.0157 19.8594L24.625 18.8125C24.6797 18.7188 24.75 18.6407 24.8282 18.5938C24.8672 18.586 24.8985 18.5782 24.9219 18.5704ZM26.6485 14.4063C27.0938 14.6563 27.1016 15.4766 26.6641 16.25L26.0547 17.2969C26 17.3907 25.9297 17.461 25.8594 17.5C25.7891 17.5391 25.711 17.5547 25.6563 17.5235C25.5469 17.461 25.5469 17.2579 25.6485 17.0625L26.2578 16.0157C26.4063 15.7657 26.461 15.4922 26.4063 15.2891C26.3516 15.0938 26.1953 15 26 15.0547C25.9532 15.0704 25.8985 15.086 25.8516 15.1172C25.7032 15.2032 25.5547 15.3594 25.4453 15.5469L24.836 16.5938C24.7813 16.6875 24.711 16.7657 24.6328 16.8047C24.6094 16.8204 24.586 16.8282 24.5625 16.836C24.461 16.8594 24.3828 16.8204 24.3594 16.7188C24.336 16.6172 24.3594 16.4844 24.4375 16.3594L25.0469 15.3125C25.2656 14.9375 25.5547 14.6407 25.8438 14.4766C26.1328 14.3204 26.4219 14.2813 26.6485 14.4063Z" fill="#267FD0" fill-opacity="0.7"/>
<path d="M25.9766 19.5078C26 19.5078 26.0156 19.5156 26.0312 19.5234L25.1875 19.0313C25.1797 19.0313 25.1797 19.0234 25.1719 19.0234C25.1641 19.0234 25.1641 19.0234 25.1562 19.0156H25.0859C25.0781 19.0156 25.0703 19.0156 25.0625 19.0234C25.0547 19.0234 25.0391 19.0313 25.0312 19.0313C25.0156 19.0391 25.0078 19.0469 24.9922 19.0547C24.9766 19.0625 24.9531 19.0781 24.9375 19.0938L24.9219 19.1094C24.9141 19.1172 24.9062 19.125 24.8906 19.1328L24.8828 19.1406L24.875 19.1484L24.8594 19.1641C24.8516 19.1719 24.8437 19.1797 24.8359 19.1953L24.8281 19.2031V19.2109C24.8281 19.2188 24.8203 19.2188 24.8203 19.2266C24.8125 19.2344 24.8125 19.2422 24.8047 19.25C24.7969 19.2578 24.7969 19.2656 24.7891 19.2734L24.1797 20.3203C24.1562 20.3672 24.125 20.4062 24.0937 20.4531L24.0859 20.4609C24.0625 20.5 24.0312 20.5312 24 20.5625C23.9922 20.5703 23.9844 20.5781 23.9844 20.5859L23.9141 20.6563L23.8828 20.6875C23.8516 20.7188 23.8125 20.7422 23.7734 20.7578C23.75 20.7734 23.7187 20.7891 23.6953 20.7969L23.625 20.8203C23.6016 20.8281 23.5781 20.8281 23.5625 20.8359H23.4766C23.4609 20.8359 23.4375 20.8281 23.4219 20.8281H23.4141C23.3984 20.8203 23.375 20.8125 23.3594 20.8047L24.2031 21.2969C24.2109 21.3047 24.2187 21.3047 24.2344 21.3125C24.2422 21.3125 24.25 21.3203 24.2578 21.3203H24.2656C24.2734 21.3203 24.2891 21.3281 24.2969 21.3281H24.4219C24.4375 21.3281 24.4531 21.3203 24.4687 21.3203C24.4922 21.3125 24.5156 21.3047 24.5312 21.2969C24.5547 21.2891 24.5859 21.2734 24.6094 21.2578C24.6484 21.2344 24.6797 21.2109 24.7187 21.1875C24.7266 21.1797 24.7422 21.1719 24.75 21.1562C24.7656 21.1406 24.7891 21.125 24.8047 21.1094C24.8125 21.1016 24.8125 21.0938 24.8203 21.0938C24.8281 21.0859 24.8359 21.0781 24.8359 21.0703C24.8437 21.0625 24.8516 21.0547 24.8594 21.0391C24.875 21.0234 24.8906 21 24.9062 20.9844C24.9141 20.9766 24.9141 20.9688 24.9219 20.9688L24.9297 20.9609C24.9375 20.9531 24.9453 20.9453 24.9453 20.9375C24.9531 20.9219 24.9687 20.9063 24.9766 20.8906C24.9844 20.875 25 20.8594 25.0078 20.8438C25.0078 20.8438 25.0078 20.8359 25.0156 20.8359L25.625 19.7891C25.6406 19.7656 25.6562 19.7422 25.6641 19.7266V19.7188C25.6797 19.7031 25.6953 19.6875 25.7031 19.6641L25.7109 19.6563C25.7187 19.6406 25.7344 19.6328 25.75 19.625L25.7656 19.6094C25.7812 19.5938 25.8047 19.5859 25.8203 19.5703C25.8438 19.5547 25.8672 19.5469 25.8906 19.5391C25.9297 19.5078 25.9531 19.5078 25.9766 19.5078ZM27.4062 16.5078C27.4141 16.4609 27.4141 16.4141 27.4141 16.375V16.3516C27.4141 16.3125 27.4062 16.2734 27.3984 16.2344C27.375 16.1328 27.3203 16.0625 27.25 16.0234L26.4062 15.5312C26.4766 15.5703 26.5234 15.6406 26.5547 15.7422C26.5625 15.7813 26.5703 15.8203 26.5703 15.8594V15.8828C26.5703 15.9219 26.5703 15.9609 26.5625 16.0078C26.5625 16.0234 26.5547 16.0469 26.5547 16.0625C26.5547 16.0703 26.5547 16.0781 26.5469 16.0859C26.5391 16.1172 26.5312 16.1406 26.5234 16.1719C26.5234 16.1797 26.5234 16.1797 26.5156 16.1875C26.5078 16.2187 26.5 16.2422 26.4844 16.2734V16.2813C26.4688 16.3125 26.4609 16.3438 26.4453 16.375L26.3984 16.4688L25.7891 17.5156L25.7812 17.5234C25.7734 17.5312 25.7734 17.5391 25.7656 17.5469C25.7578 17.5547 25.7578 17.5625 25.7578 17.5703V17.5859C25.7578 17.5938 25.7578 17.5938 25.75 17.6016C25.75 17.6094 25.7422 17.6172 25.7422 17.625C25.7422 17.6328 25.7344 17.6484 25.7344 17.6563C25.7344 17.6641 25.7266 17.6797 25.7266 17.6875C25.7266 17.6953 25.7266 17.7109 25.7187 17.7188V17.8203C25.7187 17.8359 25.7266 17.8516 25.7266 17.8594C25.7266 17.8672 25.7344 17.875 25.7344 17.8828C25.7422 17.8984 25.7422 17.9062 25.75 17.9141C25.75 17.9219 25.7578 17.9219 25.7578 17.9297C25.7656 17.9453 25.7812 17.9531 25.7969 17.9688L26.6406 18.4609C26.625 18.4531 26.6094 18.4375 26.6016 18.4219C26.6016 18.4141 26.5937 18.4141 26.5937 18.4063C26.5859 18.3984 26.5781 18.3828 26.5781 18.375C26.5781 18.3672 26.5703 18.3594 26.5703 18.3516C26.5703 18.3359 26.5625 18.3281 26.5625 18.3125V18.2109C26.5625 18.1875 26.5703 18.1719 26.5781 18.1484L26.6016 18.0781V18.0703C26.6094 18.0469 26.625 18.0234 26.6328 18L27.2422 16.9531L27.2656 16.9063L27.2891 16.8594L27.3125 16.8125C27.3203 16.7969 27.3281 16.7813 27.3281 16.7656V16.7578C27.3359 16.7422 27.3438 16.7188 27.3438 16.7031C27.3438 16.6953 27.3516 16.6875 27.3516 16.6719C27.3516 16.6641 27.3516 16.6641 27.3594 16.6562C27.3594 16.6484 27.3594 16.6484 27.3672 16.6406C27.375 16.6172 27.375 16.5937 27.3828 16.5781V16.5703C27.3828 16.5625 27.3828 16.5547 27.3906 16.5469C27.3984 16.5391 27.4062 16.5234 27.4062 16.5078Z" fill="#ACC5EA"/>
<path d="M25.7969 16.5938C25.7891 16.5938 25.7891 16.5859 25.7813 16.5859C25.7734 16.5859 25.7734 16.5859 25.7656 16.5781H25.6953C25.6875 16.5781 25.6797 16.5781 25.6719 16.5859C25.6641 16.5859 25.6484 16.5938 25.6406 16.5938C25.625 16.6016 25.6172 16.6094 25.6016 16.6172C25.5859 16.625 25.5625 16.6406 25.5469 16.6562L25.5313 16.6719L25.5078 16.6953L25.5 16.7031L25.4922 16.7109L25.4766 16.7266C25.4688 16.7344 25.4609 16.7422 25.4531 16.7578L25.4453 16.7656V16.7734L25.4375 16.7813C25.4297 16.7891 25.4297 16.7969 25.4219 16.8047C25.4141 16.8125 25.4141 16.8203 25.4063 16.8281V16.8359L23.9922 19.2813C23.9844 19.2891 23.9844 19.2969 23.9766 19.3047C23.9688 19.3125 23.9688 19.3203 23.9609 19.3281C23.9531 19.3359 23.9531 19.3438 23.9531 19.3516C23.9531 19.3594 23.9453 19.3672 23.9453 19.375C23.9453 19.3828 23.9375 19.3906 23.9375 19.3984C23.9375 19.4063 23.9297 19.4141 23.9297 19.4219V19.4375C23.9297 19.4453 23.9219 19.4609 23.9219 19.4688C23.9219 19.4766 23.9219 19.4844 23.9141 19.4922V19.6016C23.9141 19.6172 23.9219 19.6328 23.9219 19.6406C23.9219 19.6484 23.9297 19.6562 23.9297 19.6641C23.9375 19.6797 23.9375 19.6875 23.9453 19.6953C23.9453 19.7031 23.9531 19.7031 23.9531 19.7109C23.9609 19.7266 23.9766 19.7344 23.9922 19.75L24.8359 20.2422C24.8203 20.2344 24.8047 20.2188 24.7969 20.2031C24.7969 20.1953 24.7891 20.1953 24.7891 20.1875C24.7813 20.1797 24.7734 20.1641 24.7734 20.1563C24.7734 20.1484 24.7656 20.1406 24.7656 20.1328C24.7656 20.1172 24.7578 20.1094 24.7578 20.0938V19.9844C24.7578 19.9609 24.7656 19.9453 24.7734 19.9219V19.9141L24.7969 19.8438C24.8047 19.8203 24.8203 19.7969 24.8359 19.7734L26.25 17.3281C26.2656 17.3047 26.2734 17.2813 26.2891 17.2656V17.2578C26.3047 17.2422 26.3203 17.2188 26.3281 17.2031L26.3359 17.1953C26.3438 17.1797 26.3594 17.1719 26.375 17.1641L26.3906 17.1484C26.4063 17.1328 26.4219 17.125 26.4453 17.1094C26.4688 17.0938 26.4922 17.0859 26.5156 17.0781C26.5391 17.0703 26.5625 17.0703 26.5859 17.0703C26.6094 17.0703 26.625 17.0781 26.6484 17.0859L25.7969 16.5938Z" fill="#ACC5EA"/>
<path d="M24.8203 20.2266C24.7109 20.1641 24.7109 19.9531 24.8203 19.7578L26.2344 17.3125C26.2891 17.2188 26.3594 17.1406 26.4375 17.0937C26.4609 17.0781 26.4844 17.0703 26.5078 17.0625C26.6094 17.0391 26.6875 17.0781 26.7109 17.1797C26.7344 17.2812 26.7109 17.4141 26.6328 17.5391L25.2188 19.9844C25.1641 20.0781 25.0859 20.1563 25.0156 20.1953C24.9453 20.25 24.875 20.2578 24.8203 20.2266Z" fill="white"/>
<path d="M25.9063 19.5156C26.0078 19.4922 26.086 19.5313 26.1094 19.6328C26.1328 19.7344 26.1094 19.8672 26.0313 19.9922L25.4219 21.0391C25.1953 21.4219 24.9063 21.7266 24.6094 21.8906C24.3125 22.0625 24.0235 22.1016 23.7969 21.9687C23.3516 21.7109 23.3438 20.8828 23.7891 20.1094L24.3985 19.0625C24.4532 18.9688 24.5235 18.8906 24.6016 18.8437C24.625 18.8281 24.6485 18.8203 24.6719 18.8125C24.7735 18.7891 24.8516 18.8281 24.875 18.9297C24.8985 19.0312 24.875 19.1641 24.7969 19.2891L24.1875 20.3359C24.0391 20.5859 23.9844 20.8594 24.0391 21.0625C24.0938 21.2578 24.25 21.3516 24.4453 21.2969C24.4922 21.2813 24.5469 21.2656 24.5938 21.2344C24.7422 21.1484 24.8907 20.9922 25 20.8047L25.6094 19.7578C25.6641 19.6641 25.7344 19.5859 25.8125 19.5391C25.8594 19.5313 25.8828 19.5234 25.9063 19.5156Z" fill="white"/>
<path d="M24.8203 18.8281L23.9766 18.3359C23.9688 18.3359 23.9687 18.3281 23.9609 18.3281C23.9531 18.3281 23.9531 18.3281 23.9453 18.3203H23.875C23.8672 18.3203 23.8594 18.3203 23.8516 18.3281C23.8438 18.3281 23.8281 18.3359 23.8203 18.3359C23.8047 18.3437 23.7969 18.3516 23.7813 18.3594C23.7656 18.3672 23.7422 18.3828 23.7266 18.3984L23.7109 18.4141L23.6875 18.4375L23.6797 18.4453L23.6719 18.4531L23.6562 18.4687C23.6484 18.4766 23.6406 18.4844 23.6328 18.5L23.625 18.5078V18.5156L23.6172 18.5234C23.6094 18.5313 23.6094 18.5391 23.6016 18.5469C23.5937 18.5547 23.5938 18.5625 23.5859 18.5703V18.5781L22.9766 19.625C22.9609 19.6562 22.9453 19.6797 22.9297 19.7109C22.9219 19.7266 22.9141 19.7422 22.9062 19.75C22.8984 19.7578 22.8984 19.7734 22.8906 19.7812C22.8906 19.7891 22.8828 19.7969 22.875 19.8047C22.8594 19.8359 22.8437 19.8672 22.8281 19.9062V19.9141C22.8281 19.9219 22.8203 19.9297 22.8203 19.9297C22.8125 19.9531 22.7969 19.9844 22.7891 20.0078C22.7812 20.0156 22.7813 20.0313 22.7734 20.0391C22.7656 20.0547 22.7656 20.0625 22.7578 20.0781C22.75 20.0859 22.75 20.1016 22.7422 20.1094C22.7344 20.1328 22.7266 20.1484 22.7266 20.1719C22.7188 20.1875 22.7187 20.2031 22.7109 20.2109C22.7109 20.2187 22.7109 20.2187 22.7031 20.2266C22.6953 20.25 22.6953 20.2734 22.6875 20.2969C22.6797 20.3125 22.6797 20.3359 22.6719 20.3516V20.3594C22.6719 20.375 22.6719 20.3828 22.6641 20.3984C22.6562 20.4375 22.6484 20.4688 22.6484 20.5078V20.5547C22.6484 20.5859 22.6406 20.6172 22.6406 20.6562V20.8516C22.6406 20.8906 22.6484 20.9219 22.6563 20.9609V20.9844C22.6641 21.0234 22.6719 21.0703 22.6875 21.1016C22.6875 21.1094 22.6953 21.125 22.6953 21.1328C22.7031 21.1563 22.7188 21.1875 22.7266 21.2109C22.7344 21.2266 22.7422 21.2344 22.7422 21.25C22.7578 21.2734 22.7656 21.2891 22.7812 21.3125C22.7891 21.3203 22.7969 21.3359 22.8047 21.3437C22.8203 21.3672 22.8359 21.3828 22.8516 21.3984L22.875 21.4219C22.8984 21.4453 22.9297 21.4688 22.9609 21.4844L23.8047 21.9766C23.7734 21.9609 23.7422 21.9375 23.7187 21.9141L23.6953 21.8906C23.6797 21.875 23.6641 21.8594 23.6484 21.8359C23.6406 21.8281 23.6328 21.8125 23.625 21.8047C23.6094 21.7813 23.6016 21.7656 23.5859 21.7422C23.5781 21.7266 23.5703 21.7187 23.5703 21.7031C23.5547 21.6797 23.5469 21.6484 23.5391 21.625C23.5391 21.6172 23.5312 21.6016 23.5312 21.5937C23.5156 21.5547 23.5078 21.5156 23.5 21.4766V21.4531C23.4922 21.4219 23.4922 21.3828 23.4844 21.3437V21.1484C23.4844 21.1172 23.4922 21.0859 23.4922 21.0469C23.4922 21.0312 23.4922 21.0156 23.5 20.9922C23.5078 20.9531 23.5078 20.9219 23.5156 20.8828C23.5156 20.8672 23.5234 20.8516 23.5234 20.8359C23.5234 20.8203 23.5312 20.7969 23.5391 20.7813C23.5469 20.75 23.5547 20.7266 23.5625 20.6953C23.5625 20.6797 23.5703 20.6641 23.5781 20.6562C23.5859 20.625 23.6016 20.5937 23.6094 20.5625C23.6172 20.5469 23.6172 20.5391 23.625 20.5234C23.6406 20.4844 23.6563 20.4531 23.6719 20.4141C23.6719 20.4062 23.6797 20.3984 23.6797 20.3984C23.6953 20.3594 23.7188 20.3125 23.7422 20.2734C23.75 20.2656 23.75 20.25 23.7578 20.2422C23.7812 20.2031 23.8047 20.1563 23.8281 20.1172L24.4375 19.0703C24.4531 19.0469 24.4609 19.0234 24.4766 19.0078V19C24.4922 18.9844 24.5078 18.9609 24.5156 18.9453L24.5234 18.9375C24.5313 18.9219 24.5469 18.9141 24.5625 18.9063L24.5781 18.8906C24.5937 18.875 24.6094 18.8672 24.6328 18.8516C24.6562 18.8359 24.6797 18.8281 24.7031 18.8203C24.7266 18.8125 24.75 18.8125 24.7734 18.8125C24.7812 18.8125 24.7969 18.8203 24.8203 18.8281Z" fill="#ACC5EA"/>
<path d="M27.6327 15.3516C28.078 15.6016 28.0858 16.4219 27.6483 17.1954L27.0389 18.2422C26.9843 18.336 26.9139 18.4063 26.8436 18.4454C26.7733 18.4844 26.6952 18.5 26.6405 18.4688C26.5311 18.4063 26.5311 18.2032 26.6327 18.0079L27.2421 16.961C27.3905 16.711 27.4452 16.4375 27.3905 16.2344C27.3358 16.0391 27.1796 15.9454 26.9843 16C26.9374 16.0157 26.8827 16.0313 26.8358 16.0625C26.6874 16.1485 26.5389 16.3047 26.4296 16.4922L25.8202 17.5391C25.7655 17.6329 25.6952 17.711 25.6171 17.75C25.5936 17.7657 25.5702 17.7735 25.5468 17.7813C25.4452 17.8047 25.3671 17.7657 25.3436 17.6641C25.3202 17.5625 25.3436 17.4297 25.4218 17.3047L26.0311 16.2579C26.2499 15.8829 26.5389 15.586 26.828 15.4219C27.1171 15.2657 27.4139 15.2266 27.6327 15.3516Z" fill="white"/>
<path d="M26.1875 16.0312C26.1953 16.0156 26.2031 16.0078 26.2188 15.9922C26.2344 15.9687 26.2578 15.9453 26.2734 15.9219C26.2891 15.9062 26.2969 15.8906 26.3125 15.875C26.3203 15.8594 26.3359 15.8516 26.3438 15.8437C26.375 15.8125 26.3984 15.7812 26.4297 15.7578C26.4453 15.7422 26.4688 15.7266 26.4844 15.7031C26.5 15.6875 26.5156 15.6797 26.5234 15.6641C26.5469 15.6484 26.5625 15.625 26.5859 15.6094C26.6016 15.6016 26.6094 15.5859 26.625 15.5781C26.6484 15.5625 26.6719 15.5469 26.6953 15.5234C26.7031 15.5156 26.7188 15.5078 26.7266 15.5C26.7578 15.4766 26.7969 15.4531 26.8281 15.4375C26.875 15.4063 26.9219 15.3906 26.9688 15.3672C26.9844 15.3594 26.9922 15.3594 27.0078 15.3516C27.0391 15.3438 27.0625 15.3281 27.0938 15.3203C27.1094 15.3125 27.125 15.3125 27.1328 15.3047C27.1484 15.2969 27.1641 15.2969 27.1797 15.2969C27.1953 15.2969 27.2188 15.2891 27.2344 15.2891H27.3516C27.3828 15.2891 27.4063 15.2891 27.4375 15.2969H27.4453C27.4688 15.3047 27.4922 15.3125 27.5234 15.3203C27.5313 15.3203 27.5391 15.3281 27.5469 15.3281C27.5703 15.3359 27.6016 15.3516 27.625 15.3672L26.7813 14.875C26.7656 14.8672 26.7422 14.8516 26.7266 14.8438C26.7188 14.8438 26.7188 14.8359 26.7109 14.8359C26.7031 14.8359 26.6953 14.8281 26.6875 14.8281C26.6797 14.8281 26.6719 14.8203 26.6641 14.8203C26.6484 14.8125 26.6328 14.8125 26.6094 14.8047H26.6016C26.5781 14.8047 26.5547 14.7969 26.5312 14.7969H26.3828C26.3672 14.7969 26.3594 14.8047 26.3438 14.8047C26.3281 14.8047 26.3125 14.8125 26.2969 14.8125H26.2813C26.2734 14.8125 26.2656 14.8203 26.2578 14.8203C26.2266 14.8281 26.2031 14.8359 26.1719 14.8516C26.1641 14.8516 26.1563 14.8594 26.1484 14.8594C26.1406 14.8594 26.1328 14.8672 26.1328 14.8672L25.9922 14.9375C25.9609 14.9609 25.9219 14.9766 25.8906 15C25.8828 15.0078 25.8672 15.0156 25.8594 15.0234C25.8359 15.0391 25.8125 15.0547 25.7891 15.0781C25.7734 15.0859 25.7656 15.1016 25.75 15.1094C25.7266 15.125 25.7109 15.1406 25.6875 15.1641C25.6719 15.1797 25.6563 15.1875 25.6484 15.2031C25.6328 15.2109 25.625 15.2266 25.6094 15.2344L25.5938 15.25C25.5625 15.2812 25.5391 15.3125 25.5078 15.3359L25.4844 15.3594L25.4766 15.3672C25.4609 15.3828 25.4531 15.3984 25.4375 15.4141C25.4219 15.4297 25.4063 15.4531 25.3906 15.4688C25.3906 15.4766 25.3828 15.4766 25.3828 15.4844C25.375 15.5 25.3672 15.5078 25.3516 15.5234C25.3359 15.5391 25.3281 15.5547 25.3125 15.5703C25.3047 15.5781 25.2969 15.5937 25.2891 15.6016C25.2813 15.6172 25.2734 15.625 25.2656 15.6406C25.2578 15.6484 25.25 15.6641 25.2422 15.6719C25.2266 15.7031 25.2031 15.7344 25.1875 15.7578L24.5781 16.8047C24.5703 16.8125 24.5703 16.8203 24.5625 16.8281C24.5547 16.8359 24.5547 16.8437 24.5469 16.8516C24.5469 16.8594 24.5391 16.8672 24.5391 16.875C24.5391 16.8828 24.5313 16.8906 24.5313 16.8984C24.5313 16.9062 24.5234 16.9141 24.5234 16.9219C24.5234 16.9297 24.5156 16.9375 24.5156 16.9531C24.5156 16.9609 24.5078 16.9766 24.5078 16.9844C24.5078 16.9922 24.5 17.0078 24.5 17.0156V17.0781C24.5 17.1016 24.5 17.1328 24.5078 17.1563C24.5234 17.2031 24.5469 17.2422 24.5781 17.2578L25.4219 17.75C25.3906 17.7266 25.3594 17.6953 25.3516 17.6484C25.3438 17.625 25.3438 17.6016 25.3438 17.5703V17.5469C25.3438 17.5234 25.3438 17.5 25.3516 17.4766C25.3594 17.4453 25.3672 17.4141 25.3828 17.3828L25.4297 17.2891L26.0391 16.2422C26.0625 16.2031 26.0859 16.1641 26.1172 16.125C26.125 16.1094 26.1328 16.1016 26.1406 16.0859C26.1406 16.0859 26.1641 16.0547 26.1875 16.0312Z" fill="#ACC5EA"/>
<path d="M31.7891 1.6328C32.5312 1.20311 33.1406 1.55467 33.1484 2.40623L33.2266 29.4219C33.2266 30.2734 32.625 31.3281 31.8828 31.7578L18.0937 39.7109C17.3516 40.1406 16.7422 39.789 16.7344 38.9375L16.6562 11.9219C16.6562 11.0703 17.2578 10.0156 18.0078 9.58592L31.7891 1.6328Z" fill="#267FD0"/>
<path d="M30.5547 5.24221C30.8125 5.09377 31.0234 5.21096 31.0234 5.50783L31.0781 24.7735C31.0781 25.0703 30.8672 25.4375 30.6094 25.586L19.3281 32.1016C19.0703 32.25 18.8594 32.1328 18.8594 31.836L18.8047 12.5703C18.8047 12.2735 19.0156 11.9063 19.2734 11.7578L30.5547 5.24221Z" fill="#3B94E5"/>
<path d="M32.1016 1.49219C32.125 1.48437 32.1406 1.47656 32.1641 1.47656C32.1797 1.46875 32.2031 1.46875 32.2187 1.46094C32.2422 1.45313 32.2656 1.45312 32.2891 1.45312C32.3047 1.45312 32.3125 1.45313 32.3281 1.44531H32.4297C32.4609 1.44531 32.5 1.45313 32.5312 1.46094C32.5391 1.46094 32.5469 1.46094 32.5547 1.46875C32.5781 1.47656 32.6016 1.48437 32.6328 1.49219C32.6406 1.49219 32.6484 1.5 32.6562 1.5C32.6875 1.51563 32.7187 1.52344 32.7422 1.53906L31.5859 0.867187C31.5859 0.867187 31.5781 0.867188 31.5781 0.859375C31.5547 0.84375 31.5312 0.835937 31.5078 0.828125C31.5 0.828125 31.5 0.828125 31.4922 0.820313C31.4844 0.820313 31.4766 0.8125 31.4687 0.8125C31.4531 0.804688 31.4453 0.804688 31.4297 0.796875C31.4141 0.796875 31.4062 0.789062 31.3906 0.789062C31.3828 0.789062 31.375 0.78125 31.3672 0.78125H31.3516C31.3281 0.773438 31.2969 0.773438 31.2656 0.773438H31.1484C31.1328 0.773438 31.125 0.773438 31.1094 0.78125C31.0938 0.78125 31.0859 0.78125 31.0703 0.789062C31.0625 0.789062 31.0469 0.796875 31.0391 0.796875C31.0234 0.796875 31 0.804688 30.9844 0.8125C30.9766 0.8125 30.9609 0.8125 30.9531 0.820313C30.9453 0.820313 30.9297 0.828125 30.9219 0.828125C30.8906 0.835937 30.8594 0.851563 30.8281 0.859375C30.8203 0.867188 30.8047 0.867188 30.7969 0.875C30.7891 0.875 30.7812 0.882812 30.7812 0.882812C30.7266 0.90625 30.6719 0.929688 30.6172 0.96875L16.8516 8.91406C16.8047 8.9375 16.7656 8.96875 16.7266 8.99219C16.7109 9 16.7031 9.01562 16.6875 9.02344C16.6562 9.04688 16.6328 9.0625 16.6016 9.08594C16.5859 9.10156 16.5703 9.10937 16.5547 9.125C16.5312 9.14844 16.5 9.17187 16.4766 9.19531C16.4609 9.21094 16.4453 9.22656 16.4297 9.23437C16.4219 9.24219 16.4141 9.25 16.3984 9.25781C16.3906 9.26563 16.3828 9.28125 16.3672 9.28906L16.2734 9.38281C16.2656 9.39063 16.2578 9.40625 16.2422 9.41406C16.2344 9.42188 16.2266 9.42969 16.2187 9.44531C16.2031 9.46875 16.1797 9.48437 16.1641 9.50781C16.1562 9.52344 16.1406 9.53125 16.1328 9.54687C16.125 9.5625 16.1172 9.57031 16.1094 9.58594C16.0937 9.60156 16.0859 9.61719 16.0703 9.64062C16.0625 9.64844 16.0547 9.66406 16.0469 9.67188C16.0312 9.69531 16.0156 9.71094 16.0078 9.73438C16 9.75 15.9922 9.75781 15.9844 9.77344C15.9844 9.78125 15.9766 9.78125 15.9766 9.78906L15.9062 9.90625C15.9062 9.90625 15.9062 9.91406 15.8984 9.91406C15.8906 9.92188 15.8906 9.92969 15.8828 9.9375C15.8672 9.96875 15.8516 9.99219 15.8359 10.0234C15.8281 10.0391 15.8203 10.0469 15.8203 10.0625C15.8125 10.0781 15.8047 10.0937 15.7969 10.1016C15.7891 10.1172 15.7812 10.125 15.7812 10.1406C15.7656 10.1719 15.75 10.2031 15.7422 10.2344C15.7422 10.2422 15.7344 10.25 15.7344 10.2578V10.2656C15.7187 10.3047 15.7031 10.3438 15.6875 10.3906C15.6875 10.3984 15.6797 10.4062 15.6797 10.4141C15.6719 10.4297 15.6719 10.4453 15.6641 10.4609C15.6562 10.4844 15.6484 10.5 15.6406 10.5234C15.6328 10.5391 15.6328 10.5547 15.625 10.5703C15.6172 10.5859 15.6172 10.6094 15.6094 10.625C15.6094 10.6406 15.6016 10.6484 15.6016 10.6641C15.5937 10.6875 15.5938 10.7031 15.5859 10.7266C15.5781 10.75 15.5703 10.7734 15.5703 10.7969C15.5703 10.8047 15.5625 10.8125 15.5625 10.8203C15.5625 10.8359 15.5547 10.8516 15.5547 10.8672C15.5469 10.9063 15.5391 10.9375 15.5391 10.9766C15.5391 10.9844 15.5312 11 15.5312 11.0078C15.5312 11.0312 15.5234 11.0547 15.5234 11.0703C15.5234 11.0859 15.5234 11.1016 15.5156 11.1172C15.5156 11.1641 15.5078 11.2187 15.5078 11.2656L15.5859 38.2812C15.5859 38.6562 15.7031 38.9297 15.8984 39.0859C15.9297 39.1094 15.9531 39.125 15.9844 39.1484L17.1406 39.8203C16.8984 39.6797 16.7422 39.3828 16.7422 38.9531L16.6641 11.9375C16.6641 11.8906 16.6641 11.8359 16.6719 11.7891C16.6719 11.7734 16.6719 11.7578 16.6797 11.7422C16.6797 11.7109 16.6875 11.6797 16.6953 11.6484C16.7031 11.6172 16.7031 11.5781 16.7109 11.5391C16.7187 11.5156 16.7187 11.4922 16.7266 11.4609C16.7344 11.4375 16.7344 11.4141 16.7422 11.3906L16.7656 11.2969C16.7734 11.2813 16.7734 11.2578 16.7812 11.2422C16.7891 11.2031 16.8047 11.1719 16.8203 11.1328C16.8281 11.1172 16.8281 11.1016 16.8359 11.0859C16.8516 11.0391 16.875 10.9844 16.8984 10.9375C16.8984 10.9297 16.9062 10.9219 16.9062 10.9141C16.9219 10.8672 16.9453 10.8281 16.9687 10.7891C16.9766 10.7734 16.9844 10.7656 16.9922 10.75C17.0156 10.7109 17.0391 10.6641 17.0547 10.625C17.0625 10.6172 17.0625 10.6094 17.0703 10.6016C17.0938 10.5547 17.125 10.5078 17.1562 10.4609C17.1641 10.4453 17.1719 10.4375 17.1797 10.4219L17.25 10.3281C17.2656 10.3125 17.2734 10.2969 17.2891 10.2734C17.3125 10.25 17.3281 10.2188 17.3516 10.1953C17.3672 10.1719 17.3828 10.1484 17.4062 10.1328C17.4219 10.1094 17.4375 10.0938 17.4609 10.0703C17.4922 10.0391 17.5234 10.0078 17.5469 9.97656L17.6016 9.92188C17.6172 9.90625 17.6328 9.89063 17.6484 9.88281C17.6719 9.85938 17.7031 9.83594 17.7266 9.8125C17.7422 9.79688 17.7578 9.78906 17.7734 9.77344C17.8047 9.75 17.8281 9.72656 17.8594 9.71094C17.875 9.70312 17.8828 9.6875 17.8984 9.67969C17.9375 9.64844 17.9844 9.625 18.0234 9.60156L31.8047 1.64844C31.8594 1.61719 31.9141 1.58594 31.9766 1.5625C31.9922 1.55469 32.0156 1.54688 32.0312 1.53906C32.0391 1.51563 32.0781 1.5 32.1016 1.49219Z" fill="#3B94E5"/>
<path d="M25.7578 30.1953C26.6094 29.7031 27.2969 30.1015 27.3047 31.0781C27.3125 32.0546 26.6172 33.2421 25.7734 33.7343C24.9219 34.2265 24.2344 33.8281 24.2344 32.8515C24.2344 31.8749 24.9062 30.6874 25.7578 30.1953Z" fill="white"/>
<path d="M31.9297 41.4844C31.9766 41.5625 32.0391 41.6172 32.1094 41.6563L33.2656 42.3281C33.0781 42.2188 32.9531 41.9844 32.9531 41.6484L31.7969 40.9766C31.8047 41.1875 31.8516 41.3594 31.9297 41.4844Z" fill="#C68620"/>
<path d="M46.1484 23.4922C46.125 23.4766 46.1094 23.4688 46.0859 23.4609H46.0781C46.0703 23.4609 46.0625 23.4531 46.0625 23.4531C46.0547 23.4531 46.0469 23.4453 46.0313 23.4453C46.0234 23.4453 46.0078 23.4375 46 23.4375C45.9922 23.4375 45.9844 23.4375 45.9844 23.4297H45.9766C45.9531 23.4297 45.9375 23.4219 45.9141 23.4219H45.7656C45.7578 23.4219 45.75 23.4219 45.7422 23.4297C45.7266 23.4297 45.7109 23.4375 45.6953 23.4375C45.6875 23.4375 45.6797 23.4375 45.6719 23.4453C45.6641 23.4453 45.6563 23.4531 45.6484 23.4531C45.625 23.4609 45.6016 23.4688 45.5703 23.4766C45.5625 23.4766 45.5547 23.4844 45.5469 23.4844C45.5391 23.4844 45.5391 23.4922 45.5313 23.4922C45.4844 23.5078 45.4453 23.5313 45.3984 23.5547L32.8359 30.8047C32.7813 30.8359 32.7266 30.875 32.6719 30.9141C32.6641 30.9219 32.6563 30.9297 32.6406 30.9375C32.5938 30.9766 32.5391 31.0234 32.4922 31.0703C32.4844 31.0703 32.4844 31.0781 32.4766 31.0781L32.4531 31.1016C32.4297 31.125 32.4063 31.1484 32.3828 31.1797L32.3594 31.2031C32.3516 31.2109 32.3438 31.2187 32.3438 31.2266C32.3281 31.2422 32.3125 31.2578 32.3047 31.2734C32.2969 31.2813 32.2891 31.2969 32.2813 31.3047C32.2734 31.3125 32.2656 31.3203 32.2578 31.3359C32.25 31.3516 32.2344 31.3594 32.2266 31.375L32.2031 31.3984C32.1953 31.4141 32.1797 31.4297 32.1719 31.4453C32.1641 31.4531 32.1563 31.4688 32.1484 31.4766C32.1484 31.4844 32.1406 31.4844 32.1406 31.4922C32.125 31.5234 32.1016 31.5547 32.0859 31.5859V31.5938C32.0859 31.6016 32.0781 31.6094 32.0781 31.6094C32.0625 31.6328 32.0547 31.6562 32.0391 31.6719C32.0312 31.6797 32.0312 31.6953 32.0234 31.7031C32.0156 31.7109 32.0156 31.7266 32.0078 31.7344C32 31.7422 32 31.75 31.9922 31.7656C31.9844 31.7891 31.9688 31.8125 31.9609 31.8359C31.9609 31.8437 31.9531 31.8437 31.9531 31.8516V31.8594C31.9375 31.8906 31.9297 31.9219 31.9141 31.9531C31.9141 31.9609 31.9141 31.9609 31.9062 31.9688C31.8984 31.9766 31.8984 31.9922 31.8906 32C31.8828 32.0156 31.875 32.0312 31.875 32.0469C31.8672 32.0625 31.8672 32.0703 31.8672 32.0859C31.8594 32.1016 31.8594 32.1172 31.8516 32.1328C31.8516 32.1406 31.8438 32.1484 31.8438 32.1641C31.8359 32.1797 31.8359 32.1953 31.8359 32.2109C31.8281 32.2266 31.8281 32.25 31.8203 32.2656C31.8203 32.2734 31.8203 32.2813 31.8125 32.2891C31.8125 32.3047 31.8047 32.3125 31.8047 32.3281C31.7969 32.3594 31.7969 32.3828 31.7891 32.4141C31.7891 32.4219 31.7891 32.4297 31.7813 32.4375V32.4609C31.7734 32.5234 31.7656 32.5859 31.7656 32.6484L31.7891 40.9844L32.9453 41.6562L32.9219 33.3203C32.9219 33.2578 32.9297 33.1953 32.9375 33.1328C32.9375 33.1172 32.9375 33.1016 32.9453 33.0859C32.9531 33.0547 32.9531 33.0313 32.9609 33C32.9609 32.9844 32.9688 32.9609 32.9688 32.9375C32.9766 32.9219 32.9766 32.8984 32.9844 32.8828C32.9922 32.8594 33 32.8359 33.0078 32.8047C33.0156 32.7891 33.0156 32.7734 33.0234 32.7578C33.0313 32.7266 33.0391 32.7031 33.0547 32.6719C33.0625 32.6641 33.0625 32.6484 33.0703 32.6406L33.1172 32.5234C33.1172 32.5156 33.125 32.5156 33.125 32.5078C33.1406 32.4766 33.1562 32.4375 33.1719 32.4063C33.1797 32.3984 33.1797 32.3828 33.1875 32.375C33.2031 32.3438 33.2188 32.3125 33.2422 32.2812C33.2422 32.2734 33.25 32.2656 33.25 32.2656C33.2734 32.2266 33.2969 32.1953 33.3203 32.1563C33.3281 32.1484 33.3359 32.1328 33.3438 32.125C33.3594 32.1016 33.375 32.0781 33.3984 32.0469C33.4063 32.0312 33.4219 32.0234 33.4297 32.0078C33.4453 31.9844 33.4609 31.9688 33.4766 31.9453C33.4922 31.9297 33.5078 31.9141 33.5156 31.8906C33.5313 31.875 33.5391 31.8594 33.5547 31.8438C33.5781 31.8203 33.6016 31.7969 33.625 31.7656C33.6328 31.75 33.6484 31.7422 33.6641 31.7266C33.7109 31.6797 33.7578 31.6328 33.8125 31.5938C33.8203 31.5859 33.8281 31.5781 33.8438 31.5703C33.8984 31.5313 33.9531 31.4922 34.0078 31.4609L46.5703 24.2109C46.6172 24.1875 46.6563 24.1641 46.7031 24.1484C46.7188 24.1406 46.7344 24.1406 46.7422 24.1328L46.8125 24.1094C46.8281 24.1016 46.8438 24.1016 46.8594 24.0938C46.875 24.0938 46.8906 24.0859 46.9062 24.0859C46.9219 24.0859 46.9453 24.0781 46.9609 24.0781H47.0781C47.1016 24.0781 47.1328 24.0859 47.1562 24.0859C47.1641 24.0859 47.1719 24.0859 47.1719 24.0938C47.1953 24.1016 47.2109 24.1016 47.2266 24.1094C47.2344 24.1094 47.2422 24.1172 47.2422 24.1172C47.2656 24.125 47.2891 24.1406 47.3125 24.1484L46.1484 23.4922Z" fill="#C68620"/>
<path d="M46.5547 24.2344C47.1406 23.8985 47.6172 24.1719 47.6172 24.836L47.6406 33.1719C47.6406 33.8438 47.1641 34.6641 46.5859 35.0001L34.0234 42.2501C33.4375 42.586 32.9609 42.3126 32.9609 41.6485L32.9375 33.3126C32.9375 32.6407 33.4141 31.8204 33.9922 31.4844L46.5547 24.2344Z" fill="#FFCD2E"/>
<path d="M34.1875 37.8281L33.6953 37.5469C33.6953 37.5938 33.7109 37.625 33.7344 37.6406L34.2266 37.9219C34.2031 37.9062 34.1875 37.875 34.1875 37.8281Z" fill="#E8CFAC"/>
<path d="M36.0703 36.8359L35.5781 36.5547C35.5781 36.6016 35.5937 36.6328 35.6172 36.6484L36.1094 36.9297C36.0859 36.9141 36.0703 36.875 36.0703 36.8359Z" fill="#E8CFAC"/>
<path d="M37.8437 35.875L37.3516 35.5938C37.3516 35.6406 37.3672 35.6719 37.3906 35.6875L37.8828 35.9687C37.8594 35.9531 37.8437 35.9219 37.8437 35.875Z" fill="#E8CFAC"/>
<path d="M22.649 22.8359L23.4724 22.8399H24.3337C24.1698 23.0101 24.0697 23.1787 24.2643 23.4403H22.1092C21.9374 23.3867 21.8878 23.2536 21.9193 23.0983C21.9322 23.0249 21.9712 22.9586 22.0291 22.9117C22.087 22.8648 22.16 22.8404 22.2345 22.843C22.374 22.8375 22.5119 22.8383 22.649 22.8359Z" fill="#EE8C2A"/>
<path d="M25.0774 24.5623C24.9468 24.4649 24.8425 24.3366 24.7737 24.1889C24.7049 24.0412 24.6739 23.8787 24.6834 23.716C24.6937 23.5088 24.6046 23.4757 24.4226 23.4796C23.7552 23.4915 23.0886 23.4891 22.4211 23.4891C22.3156 23.4891 22.2037 23.5159 22.106 23.4442C22.2021 23.3299 22.3368 23.3512 22.4605 23.3496C22.8325 23.3441 23.2052 23.3496 23.5771 23.3496C24.0081 23.3496 24.0081 23.3496 24.1429 22.9328C23.7607 22.9328 23.3825 22.9367 23.0043 22.9328C22.8798 22.9328 22.7458 22.9509 22.6457 22.8437C22.7682 22.7096 22.8628 22.5525 22.9239 22.3815C22.9851 22.2105 23.0116 22.0291 23.0019 21.8477C22.9916 21.1015 22.9846 20.3553 23.0082 19.6099C23.0405 18.576 23.9207 17.5328 24.8852 17.3468C25.0041 17.1892 25.1743 17.1577 25.3579 17.1522C25.6716 17.1344 25.9864 17.151 26.2964 17.2018C26.38 17.2664 26.5439 17.2696 26.4848 17.4445C26.3847 17.5446 26.2444 17.5745 26.127 17.6462C25.3138 18.1403 24.8915 18.8621 24.871 19.8124C24.8607 20.2946 24.8757 20.7761 24.871 21.2575C24.8623 21.7532 24.9577 22.2638 24.6023 22.7626C25.9623 22.7626 27.2459 22.7626 28.5304 22.7586C28.6382 22.7527 28.7463 22.7527 28.8542 22.7586C29.1529 22.7783 29.3412 22.9359 29.3435 23.1629C29.3459 23.3898 29.1599 23.5521 28.8582 23.5758C28.5564 23.5994 28.2703 23.5813 27.9756 23.5852C27.8968 23.5852 27.818 23.5852 27.7392 23.5805C27.3452 23.5892 26.9512 23.5876 26.5573 23.5805C26.361 23.5734 26.1633 23.5805 25.9671 23.5734C25.7378 23.5632 25.6747 23.6798 25.6952 23.8886C25.7138 24.0561 25.7831 24.2138 25.8938 24.3409C25.9608 24.4197 26.0514 24.4985 26.0419 24.6191C25.7417 24.8775 25.3619 24.8594 25.0774 24.5623Z" fill="#F7A648"/>
<path d="M22.6071 15.8315C22.5984 16.0592 22.3888 16.1955 22.1626 16.0821C21.8317 15.9158 21.5141 15.7204 21.2005 15.5218C21.061 15.4328 21.0295 15.2893 21.1217 15.1365C21.2139 14.9836 21.3581 14.9324 21.4992 15.008C21.8451 15.1901 22.1784 15.3949 22.5133 15.5959C22.5491 15.6227 22.5768 15.6589 22.5934 15.7005C22.6099 15.742 22.6147 15.7874 22.6071 15.8315Z" fill="#F9C14A"/>
<path d="M22.4543 13.9246C22.452 13.8626 22.4687 13.8013 22.5023 13.7491C22.5358 13.6968 22.5845 13.656 22.6419 13.6323C22.7782 13.5771 22.9263 13.5842 23.0098 13.7197C23.21 14.0444 23.4038 14.3738 23.5827 14.7094C23.6552 14.8442 23.6063 14.9789 23.4826 15.0735C23.3802 15.1523 23.2462 15.1807 23.1588 15.0885C22.8333 14.7544 22.6757 14.3186 22.4543 13.9246Z" fill="#F9C14A"/>
<path d="M21.4275 17.4744H20.8972C20.8218 17.4739 20.7493 17.4448 20.6944 17.3931C20.6394 17.3414 20.606 17.2709 20.6008 17.1956C20.5956 17.1203 20.6191 17.0458 20.6664 16.9871C20.7138 16.9283 20.7816 16.8896 20.8563 16.8787C21.2287 16.8594 21.6019 16.8594 21.9744 16.8787C22.0119 16.8805 22.0487 16.89 22.0824 16.9067C22.1161 16.9234 22.1459 16.9469 22.17 16.9757C22.1942 17.0045 22.2121 17.038 22.2226 17.0741C22.2332 17.1101 22.2361 17.148 22.2313 17.1853C22.2333 17.225 22.2267 17.2646 22.212 17.3016C22.1972 17.3385 22.1747 17.3718 22.1459 17.3992C22.1171 17.4266 22.0827 17.4474 22.045 17.4603C22.0074 17.4731 21.9675 17.4777 21.9279 17.4737C21.7609 17.4752 21.5946 17.4744 21.4275 17.4744Z" fill="#F9C049"/>
<path d="M27.7346 18.3019C28.0819 18.8525 28.2473 19.4983 28.2074 20.1481C28.1845 20.6997 28.2168 21.2473 28.1979 21.7966C28.1853 22.1906 28.2767 22.5325 28.5305 22.832H24.4211C24.8451 22.4167 24.7844 21.9179 24.7836 21.4317C24.7836 20.851 24.7836 20.2703 24.7836 19.6895C24.7907 18.6699 25.5346 17.6825 26.5053 17.3973C26.5335 17.3769 26.5671 17.3654 26.6018 17.3644C26.6365 17.3635 26.6708 17.373 26.7 17.3918C27.1271 17.6014 27.5368 17.8322 27.7346 18.3019Z" fill="#F9C049"/>
<path d="M26.5061 23.493C26.5447 23.9059 26.4754 24.281 26.1263 24.5544L26.0207 24.5993C25.7701 24.3432 25.5518 24.0777 25.607 23.6774C25.6251 23.5434 25.6653 23.4851 25.8016 23.4883C26.0364 23.4946 26.2713 23.4914 26.5061 23.493Z" fill="#F9C049"/>
<path d="M40.698 35.7585C40.6122 35.7226 40.5366 35.6658 40.478 35.5934C40.4195 35.5211 40.3798 35.4353 40.3626 35.3438C40.3396 35.2274 40.2857 35.2214 40.1853 35.2487C39.8169 35.3476 39.4469 35.4384 39.0769 35.5307C39.0183 35.5453 38.96 35.5756 38.8959 35.5493C38.9334 35.4727 39.0111 35.4659 39.0794 35.4479C39.2849 35.3934 39.4923 35.345 39.6985 35.2935C39.9375 35.234 39.9375 35.234 39.9546 34.9842C39.7427 35.037 39.5335 35.0915 39.3233 35.1416C39.2543 35.1588 39.1825 35.1874 39.1122 35.1418C39.1616 35.0505 39.1923 34.9503 39.2025 34.8471C39.2128 34.7438 39.2024 34.6395 39.172 34.5403C39.0631 34.128 38.956 33.7152 38.8661 33.2987C38.7411 32.721 39.0849 32.0209 39.5939 31.7844C39.6381 31.6806 39.7281 31.6396 39.8292 31.6111C40.0007 31.5579 40.1774 31.5236 40.3564 31.5089C40.4116 31.5332 40.5029 31.5123 40.4944 31.6175C40.4527 31.6868 40.3791 31.7228 40.3239 31.7788C39.9413 32.1651 39.8069 32.6237 39.9269 33.1534C39.9879 33.4222 40.0628 33.6871 40.1267 33.9547C40.1904 34.2307 40.3139 34.5006 40.1858 34.8263C40.9399 34.6383 41.6516 34.4609 42.3632 34.2811C42.4222 34.2629 42.4821 34.248 42.5427 34.2364C42.7111 34.206 42.8373 34.2673 42.8699 34.3928C42.9026 34.5183 42.822 34.634 42.6579 34.6889C42.4938 34.7437 42.3327 34.7732 42.1699 34.8161C42.1262 34.827 42.0825 34.8379 42.0381 34.8462C41.8209 34.9054 41.6022 34.959 41.3828 35.0096C41.273 35.0328 41.1644 35.064 41.0546 35.0872C40.926 35.1133 40.9072 35.1866 40.9474 35.2996C40.9809 35.3898 41.0411 35.4678 41.12 35.5229C41.1681 35.5573 41.2292 35.5885 41.2406 35.6566C41.1099 35.8415 40.8968 35.8839 40.698 35.7585Z" fill="#F9F4EF"/>
<path d="M38.1213 31.2592C38.148 31.3867 38.0507 31.4912 37.9096 31.4596C37.7031 31.4132 37.5 31.3487 37.2987 31.282C37.209 31.2519 37.1717 31.1767 37.2017 31.0792C37.2317 30.9817 37.3046 30.9334 37.3932 30.9558C37.6102 31.0089 37.8233 31.0764 38.0368 31.1416C38.0604 31.1515 38.0807 31.1677 38.0957 31.1885C38.1106 31.2092 38.1195 31.2337 38.1213 31.2592Z" fill="#FDFCFA"/>
<path d="M37.773 30.2231C37.7632 30.189 37.764 30.1527 37.7753 30.1191C37.7867 30.0855 37.8081 30.0562 37.8366 30.035C37.9046 29.9856 37.9877 29.9691 38.0527 30.0327C38.2086 30.185 38.3616 30.3408 38.5072 30.5022C38.566 30.5669 38.5575 30.6484 38.502 30.7179C38.4561 30.7758 38.3857 30.81 38.3245 30.771C38.0979 30.6307 37.9503 30.4109 37.773 30.2231Z" fill="#FDFCFA"/>
<path d="M37.6945 32.3332L37.4005 32.4065C37.3586 32.4166 37.3144 32.4105 37.2767 32.3895C37.2391 32.3684 37.2108 32.3339 37.1976 32.2929C37.1843 32.2518 37.187 32.2073 37.2051 32.1682C37.2233 32.1291 37.2555 32.0982 37.2954 32.0819C37.4992 32.0197 37.7062 31.9681 37.9154 31.9273C37.9364 31.9231 37.9581 31.9233 37.9791 31.9279C38.0001 31.9325 38.0199 31.9414 38.0372 31.954C38.0546 31.9666 38.0692 31.9827 38.08 32.0013C38.0908 32.0198 38.0977 32.0404 38.1002 32.0617C38.1068 32.0835 38.1086 32.1064 38.1055 32.1289C38.1025 32.1514 38.0946 32.173 38.0824 32.1921C38.0702 32.2113 38.054 32.2276 38.0349 32.24C38.0158 32.2523 37.9943 32.2603 37.9718 32.2636C37.8794 32.2875 37.7871 32.3101 37.6945 32.3332Z" fill="white"/>
<path d="M41.3056 31.92C41.5743 32.1773 41.7553 32.5125 41.823 32.8783C41.8866 33.1873 41.9802 33.4865 42.0456 33.7936C42.0931 34.0138 42.1911 34.1908 42.3731 34.3217L40.0947 34.8898C40.2724 34.601 40.1698 34.3328 40.1021 34.0633C40.0218 33.7413 39.9416 33.4193 39.8613 33.0973C39.7242 32.531 40.0002 31.8808 40.499 31.5884C40.5118 31.5732 40.5288 31.5622 40.548 31.5569C40.5671 31.5515 40.5874 31.5521 40.6062 31.5584C40.8719 31.6156 41.131 31.687 41.3056 31.92Z" fill="white"/>
<path d="M41.3423 34.9681C41.4208 35.1917 41.4342 35.4093 41.2785 35.6092L41.2261 35.6487C41.0518 35.5413 40.8941 35.4242 40.8693 35.1947C40.8608 35.1179 40.8751 35.08 40.9511 35.0629C41.0822 35.0339 41.2119 34.9997 41.3423 34.9681Z" fill="white"/>
<path d="M25.0774 15.1526C25.4148 15.018 25.7917 15.018 26.1291 15.1526C26.269 15.1442 26.3703 15.2248 26.467 15.305C26.9611 15.7123 27.0235 16.6119 26.5901 17.0823C26.5193 17.161 26.4508 17.2518 26.3225 17.2259C26.0727 17.3211 25.8258 17.197 25.5745 17.2151C25.3381 17.2316 25.1069 17.2417 24.8879 17.3362C24.9051 17.2679 24.8627 17.2322 24.8186 17.1897C24.1811 16.5641 24.2524 15.718 24.9836 15.22C25.0198 15.2011 25.0467 15.1762 25.0774 15.1526ZM25.5998 15.7454C25.5315 15.7439 25.4632 15.7564 25.3997 15.7815C25.3363 15.8066 25.2784 15.8442 25.2297 15.8919C25.1809 15.9397 25.1419 15.9978 25.1155 16.0608C25.0892 16.1236 25.0764 16.191 25.0764 16.2591C25.0728 16.3312 25.0834 16.4042 25.1086 16.4719C25.1339 16.5396 25.173 16.6014 25.2229 16.6536C25.2727 16.7057 25.3324 16.7474 25.3987 16.7757C25.4652 16.8039 25.5373 16.818 25.6096 16.8176C25.6819 16.8173 25.7533 16.8025 25.8196 16.7737C25.8858 16.7448 25.9459 16.7024 25.9954 16.6497C26.0446 16.5971 26.0831 16.5348 26.1077 16.4671C26.1322 16.3993 26.1421 16.3271 26.1379 16.2551C26.1312 16.1173 26.0712 15.9867 25.9709 15.8919C25.8707 15.7972 25.7378 15.7444 25.5998 15.7454Z" fill="#F9C049"/>
</svg>
