<svg width="11" height="12" viewBox="0 0 11 12" fill="none" xmlns="http://www.w3.org/2000/svg">
<path fill-rule="evenodd" clip-rule="evenodd" d="M5.33333 0.666504C3.88444 0.666504 3.704 0.672726 3.13422 0.699393C1.19644 0.788282 0.120889 1.86295 0.032 3.80073C0.00622222 4.3705 0 4.55184 0 5.99984C0 7.44873 0.00622222 7.63006 0.032 8.19895C0.120889 10.1358 1.19644 11.2123 3.13422 11.3012C3.704 11.3269 3.88444 11.3332 5.33333 11.3332C6.78222 11.3332 6.96356 11.3269 7.53333 11.3012C9.46756 11.2123 10.5476 10.1376 10.6347 8.19895C10.6604 7.63006 10.6667 7.44873 10.6667 5.99984C10.6667 4.55184 10.6604 4.3705 10.6347 3.80073C10.5476 1.86562 9.47111 0.787393 7.53333 0.699393C6.96356 0.672726 6.78222 0.666504 5.33333 0.666504ZM5.33327 1.62871C6.75727 1.62871 6.92616 1.63404 7.48882 1.65982C8.93504 1.7256 9.60882 2.41093 9.67549 3.8456C9.70038 4.40826 9.70571 4.57626 9.70571 6.00026C9.70571 7.42426 9.70038 7.59315 9.67549 8.15493C9.60882 9.58871 8.93593 10.2758 7.48882 10.3416C6.92616 10.3665 6.75816 10.3727 5.33327 10.3727C3.90927 10.3727 3.74038 10.3674 3.1786 10.3416C1.72971 10.2749 1.0586 9.58693 0.991933 8.15493C0.967044 7.59315 0.960822 7.42426 0.960822 6.00026C0.960822 4.57626 0.967044 4.40737 0.991933 3.8456C1.05771 2.41004 1.73149 1.72471 3.1786 1.65893C3.74038 1.63315 3.90927 1.62871 5.33327 1.62871ZM2.59456 5.99989C2.59456 4.487 3.82122 3.26122 5.33322 3.26122C6.84522 3.26122 8.07189 4.48789 8.07189 5.99989C8.07189 7.51278 6.84522 8.73855 5.33322 8.73855C3.82122 8.73855 2.59456 7.51278 2.59456 5.99989ZM5.3335 7.77794C4.35127 7.77794 3.55572 6.98239 3.55572 6.00016C3.55572 5.01883 4.35127 4.22238 5.3335 4.22238C6.31483 4.22238 7.11216 5.01794 7.11216 6.00016C7.11216 6.98239 6.31483 7.77794 5.3335 7.77794ZM7.53967 3.15376C7.53967 2.79998 7.82678 2.51376 8.17967 2.51376C8.53433 2.51376 8.82055 2.79998 8.82055 3.15376C8.82055 3.50754 8.53344 3.79376 8.17967 3.79376C7.82589 3.79376 7.53967 3.50665 7.53967 3.15376Z" fill="#267FD0"/>
</svg>
