<svg width="60" height="60" viewBox="0 0 60 60" fill="none" xmlns="http://www.w3.org/2000/svg">
<path fill-rule="evenodd" clip-rule="evenodd" d="M30.5279 40.8045H33.9854V44.262H30.5279V40.8045ZM30.5279 39.7452V36.2883H33.9854V39.7452H30.5279ZM20.3528 44.7038C23.176 46.5543 26.4718 47.5537 29.8472 47.5828C33.2227 47.612 36.5353 46.6697 39.39 44.8683V31.4098L29.8717 26.0073L20.3528 31.4098V44.7038ZM26.0111 40.8045H29.4686V44.262H26.0111V40.8045ZM26.0111 36.2899H29.4686V39.7468H26.0111V36.2899Z" fill="#267FD0"/>
<path fill-rule="evenodd" clip-rule="evenodd" d="M15.2978 28.4836L16.5807 27.7553L29.8709 20.2132L44.4435 28.4847V40.0287C46.4916 37.0865 47.5868 33.5863 47.5812 30.0014C47.5812 20.2906 39.7085 12.418 29.9977 12.418C20.287 12.418 12.4143 20.2906 12.4143 30.0014C12.409 33.4316 13.4116 36.7879 15.2978 39.653V28.4836Z" fill="#267FD0"/>
<path fill-rule="evenodd" clip-rule="evenodd" d="M20.9035 52.7981C22.6195 53.482 24.4076 53.9688 26.2335 54.2492L26.8655 60H32.8931L33.5209 54.2879C35.3491 54.0256 37.1417 53.5568 38.8642 52.8905L42.2868 57.5556L47.5081 54.5394L45.1912 49.2724C46.64 48.1283 47.9561 46.8255 49.1146 45.3882L54.4171 47.7197L57.4323 42.4988L52.7972 39.0989C53.4814 37.3828 53.9683 35.5945 54.2484 33.7684L59.9992 33.1374V27.1088L54.2779 26.481C54.0155 24.6535 53.5468 22.8616 52.8806 21.1398L57.5473 17.7167L54.5332 12.4948L49.2662 14.8128C48.1226 13.3638 46.8198 12.0477 45.3825 10.8894L47.714 5.58525L42.4942 2.57012L39.0921 7.20675C37.3763 6.52301 35.5883 6.03618 33.7627 5.75562L33.1312 0H27.102L26.4743 5.718C24.6467 5.98006 22.8548 6.44886 21.133 7.11538L17.71 2.44812L14.4401 4.33566L12.4886 5.46432L14.4401 9.90263L14.8055 10.7346L14.4401 11.0291C13.1353 12.1007 11.9439 13.3034 10.8848 14.6183L5.58119 12.2863L2.56552 17.506L7.20216 20.9081C6.51829 22.6239 6.03146 24.4119 5.75103 26.2375L0.000244141 26.8685V32.8972L5.72093 33.5244C5.98326 35.3519 6.45206 37.1438 7.11832 38.8656L2.45105 42.2892L5.4651 47.5106L10.7322 45.1936C11.8293 46.5829 13.0726 47.8501 14.4406 48.9735L14.6142 49.1149L14.4406 49.5089L12.2827 54.418L14.4406 55.6643L17.5041 57.4331L20.9035 52.7981ZM9.26062 30.0013C9.26062 24.5013 11.4455 19.2266 15.3346 15.3375C19.2236 11.4485 24.4984 9.2636 29.9984 9.2636C41.451 9.2636 50.7361 18.5487 50.7361 30.0013C50.7361 41.454 41.451 50.7407 29.9984 50.7407C24.4985 50.7407 19.2238 48.5559 15.3348 44.6669C11.4457 40.778 9.26076 35.5034 9.26062 30.0035V30.0013Z" fill="#F3BB44"/>
</svg>
